<svg width="890" height="489" viewBox="0 0 890 489" fill="none" xmlns="http://www.w3.org/2000/svg">
<g clip-path="url(#clip0)">
<path d="M890 406.985C890 182.213 691.121 0 445.79 0C200.459 0 1.57837 182.213 1.57837 406.985H890Z" fill="#C7E1E9"/>
<path d="M760.171 193.911C760.17 194.111 760.095 194.304 759.96 194.452C759.824 194.599 759.638 194.691 759.439 194.708L719.844 198.053L716.214 202.884C715.361 204.019 714.255 204.941 712.986 205.575C711.716 206.209 710.316 206.54 708.897 206.54H634.498C630.143 206.54 628.127 201.124 631.415 198.271L586.554 194.498C586.382 194.482 586.221 194.403 586.104 194.275C585.987 194.147 585.922 193.98 585.921 193.806C585.921 193.715 585.939 193.625 585.974 193.541C586.009 193.457 586.06 193.38 586.124 193.316C586.189 193.252 586.265 193.201 586.349 193.166C586.433 193.132 586.523 193.114 586.614 193.114H710.245C713.352 193.119 716.39 192.2 718.975 190.473L726.103 185.712C726.667 185.335 727.33 185.134 728.008 185.134H729.564L723.564 193.119H759.384C759.592 193.121 759.791 193.206 759.939 193.354C760.086 193.502 760.169 193.702 760.171 193.911Z" fill="white"/>
<path d="M585.928 193.81C585.928 193.984 585.993 194.151 586.11 194.28C586.227 194.408 586.388 194.487 586.561 194.502L631.416 198.275L634.425 195.696L585.928 193.81Z" fill="#D8E9F1"/>
<path d="M760.171 193.911C760.17 194.111 760.095 194.304 759.96 194.451C759.825 194.599 759.64 194.69 759.441 194.708L683.83 201.089L679.637 197.411L760.171 193.911Z" fill="#D8E9F1"/>
<path d="M615.84 199.379C615.84 202.466 613.76 204.016 610.44 204.016C609.002 204.016 607.83 203.703 606.958 203.146C607.296 203.324 607.672 203.418 608.054 203.419C609.717 203.419 611.067 201.608 611.067 199.376C611.067 197.145 609.717 195.334 608.054 195.334C607.672 195.336 607.296 195.429 606.958 195.607V195.595C607.826 195.043 608.985 194.737 610.44 194.737C613.877 194.735 615.84 196.443 615.84 199.379Z" fill="white"/>
<path d="M608.052 203.419C609.717 203.419 611.067 201.609 611.067 199.376C611.067 197.144 609.717 195.333 608.052 195.333C606.387 195.333 605.037 197.144 605.037 199.376C605.037 201.609 606.387 203.419 608.052 203.419Z" fill="#98C8DB"/>
<path d="M688.555 199.379C688.555 202.466 686.473 204.016 683.153 204.016C681.715 204.016 680.543 203.703 679.674 203.146C680.01 203.324 680.384 203.418 680.765 203.419C682.432 203.419 683.782 201.608 683.782 199.376C683.782 197.145 682.432 195.334 680.765 195.334C680.385 195.336 680.01 195.43 679.674 195.607V195.595C680.539 195.043 681.7 194.737 683.153 194.737C686.592 194.735 688.555 196.443 688.555 199.379Z" fill="white"/>
<path d="M680.767 203.419C682.432 203.419 683.782 201.609 683.782 199.376C683.782 197.144 682.432 195.333 680.767 195.333C679.102 195.333 677.752 197.144 677.752 199.376C677.752 201.609 679.102 203.419 680.767 203.419Z" fill="#98C8DB"/>
<path d="M642.249 197.94H631.767L634.439 195.696H641.051C641.319 195.696 641.58 195.779 641.799 195.934C642.018 196.089 642.184 196.308 642.274 196.56L642.595 197.46C642.614 197.515 642.62 197.573 642.611 197.631C642.603 197.688 642.581 197.743 642.547 197.79C642.513 197.837 642.468 197.875 642.416 197.901C642.365 197.927 642.307 197.941 642.249 197.94Z" fill="#98C8DB"/>
<path d="M651.67 195.696H651.446C651.106 195.696 650.83 195.972 650.83 196.313V197.322C650.83 197.663 651.106 197.94 651.446 197.94H651.67C652.011 197.94 652.287 197.663 652.287 197.322V196.313C652.287 195.972 652.011 195.696 651.67 195.696Z" fill="#98C8DB"/>
<path d="M655.74 195.696H655.516C655.176 195.696 654.9 195.972 654.9 196.313V197.322C654.9 197.663 655.176 197.94 655.516 197.94H655.74C656.081 197.94 656.357 197.663 656.357 197.322V196.313C656.357 195.972 656.081 195.696 655.74 195.696Z" fill="#98C8DB"/>
<path d="M659.809 195.696H659.585C659.244 195.696 658.968 195.972 658.968 196.313V197.322C658.968 197.663 659.244 197.94 659.585 197.94H659.809C660.149 197.94 660.425 197.663 660.425 197.322V196.313C660.425 195.972 660.149 195.696 659.809 195.696Z" fill="#98C8DB"/>
<path d="M663.878 195.696H663.653C663.313 195.696 663.037 195.972 663.037 196.313V197.322C663.037 197.663 663.313 197.94 663.653 197.94H663.878C664.218 197.94 664.494 197.663 664.494 197.322V196.313C664.494 195.972 664.218 195.696 663.878 195.696Z" fill="#98C8DB"/>
<path d="M667.947 195.696H667.723C667.383 195.696 667.107 195.972 667.107 196.313V197.322C667.107 197.663 667.383 197.94 667.723 197.94H667.947C668.288 197.94 668.564 197.663 668.564 197.322V196.313C668.564 195.972 668.288 195.696 667.947 195.696Z" fill="#98C8DB"/>
<path d="M672.017 195.696H671.793C671.453 195.696 671.177 195.972 671.177 196.313V197.322C671.177 197.663 671.453 197.94 671.793 197.94H672.017C672.358 197.94 672.634 197.663 672.634 197.322V196.313C672.634 195.972 672.358 195.696 672.017 195.696Z" fill="#98C8DB"/>
<path d="M676.03 308.982L658.662 328.373C657.111 330.103 654.951 331.165 652.635 331.335L271.372 359.378C275.968 348.738 278.64 337.365 279.262 325.789H649.121C651.688 325.789 654.173 324.878 656.134 323.218L672.957 308.975L676.03 308.982Z" fill="white"/>
<path d="M654.787 331.063L271.372 359.376C274.166 352.925 276.25 346.189 277.587 339.287L654.787 331.063Z" fill="#E2EFF4"/>
<path d="M329.307 400.523C345.785 400.523 359.143 387.145 359.143 370.642C359.143 354.139 345.785 340.761 329.307 340.761C312.829 340.761 299.471 354.139 299.471 370.642C299.471 387.145 312.829 400.523 329.307 400.523Z" fill="white"/>
<path d="M329.361 393.788C342.095 393.788 352.419 383.449 352.419 370.696C352.419 357.942 342.095 347.603 329.361 347.603C316.627 347.603 306.304 357.942 306.304 370.696C306.304 383.449 316.627 393.788 329.361 393.788Z" fill="#98C8DB"/>
<path d="M329.361 374.345C331.373 374.345 333.005 372.711 333.005 370.696C333.005 368.68 331.373 367.046 329.361 367.046C327.348 367.046 325.717 368.68 325.717 370.696C325.717 372.711 327.348 374.345 329.361 374.345Z" stroke="white" stroke-width="0.923768" stroke-miterlimit="10"/>
<path d="M112.88 359.347L5.77563 351.467C6.47858 346.664 7.27333 341.888 8.15988 337.138C8.86282 333.335 9.62606 329.552 10.4496 325.789H104.997C105.621 337.354 108.29 348.716 112.88 359.347Z" fill="white"/>
<path d="M112.88 359.347L5.77563 351.467C6.47858 346.664 7.27333 341.887 8.15988 337.138L106.674 339.279C108.01 346.174 110.091 352.903 112.88 359.347Z" fill="#E2EFF4"/>
<path d="M55.3572 400.523C71.8351 400.523 85.1932 387.145 85.1932 370.642C85.1932 354.139 71.8351 340.761 55.3572 340.761C38.8793 340.761 25.5212 354.139 25.5212 370.642C25.5212 387.145 38.8793 400.523 55.3572 400.523Z" fill="white"/>
<path d="M55.3036 393.788C68.0378 393.788 78.361 383.449 78.361 370.696C78.361 357.942 68.0378 347.603 55.3036 347.603C42.5694 347.603 32.2463 357.942 32.2463 370.696C32.2463 383.449 42.5694 393.788 55.3036 393.788Z" fill="#98C8DB"/>
<path d="M55.3044 374.345C57.317 374.345 58.9485 372.711 58.9485 370.696C58.9485 368.68 57.317 367.046 55.3044 367.046C53.2917 367.046 51.6602 368.68 51.6602 370.696C51.6602 372.711 53.2917 374.345 55.3044 374.345Z" stroke="white" stroke-width="0.923768" stroke-miterlimit="10"/>
<path d="M201.57 227.716H182.697L190.329 115.672C190.386 115.234 190.6 114.833 190.931 114.542C191.262 114.251 191.688 114.09 192.128 114.09C192.569 114.09 192.994 114.251 193.325 114.542C193.656 114.833 193.87 115.234 193.928 115.672L201.57 227.716Z" fill="white"/>
<path d="M364.556 249.521L364.523 252.224L264.358 267.762C262.426 264.722 260.319 261.797 258.048 259.003L364.556 249.521Z" fill="white"/>
<path d="M126.291 258.904C124.034 261.683 121.936 264.588 120.01 267.606L20.891 252.231L20.8582 249.528L126.291 258.904Z" fill="white"/>
<path d="M192.133 226.847V114.088C192.574 114.087 193 114.247 193.332 114.539C193.664 114.83 193.877 115.233 193.933 115.671L201.569 227.716L192.133 226.847Z" fill="#E2EFF4"/>
<path d="M192.134 413.531C240.34 413.531 279.42 371.74 279.42 320.188C279.42 268.636 240.34 226.845 192.134 226.845C143.927 226.845 104.848 268.636 104.848 320.188C104.848 371.74 143.927 413.531 192.134 413.531Z" fill="#E2EFF4"/>
<path d="M271.222 280.652C267.033 324.136 211.301 363.445 192.13 363.445C171.755 363.445 117.154 324.144 113.035 280.671C126.946 248.873 157.135 226.847 192.13 226.847C227.125 226.847 257.307 248.873 271.222 280.652Z" fill="white"/>
<path d="M154.17 279.67L154.16 295.245L137.156 300.747L148.734 282.653C149.318 281.74 150.122 280.989 151.072 280.469C152.022 279.949 153.087 279.677 154.17 279.677V279.67Z" fill="#98C8DB"/>
<path d="M192.308 279.67H156.575V295.241H192.308V279.67Z" fill="#98C8DB"/>
<path d="M230.442 279.67H194.953V295.241H230.442V279.67Z" fill="#98C8DB"/>
<path d="M233.015 279.67V295.235L250.101 300.764L238.626 282.67C238.043 281.751 237.238 280.994 236.285 280.469C235.332 279.945 234.262 279.67 233.175 279.67H233.015Z" fill="#98C8DB"/>
<path d="M446.635 0V406.966H444.935V0H446.635Z" fill="white"/>
<path d="M839.912 219.064H51.6724C51.9951 218.494 52.3219 217.928 52.6466 217.36H838.938C839.263 217.928 839.59 218.494 839.912 219.064Z" fill="white"/>
<path d="M113.481 136.903V406.979H111.781V138.669C112.345 138.081 112.914 137.492 113.481 136.903Z" fill="white"/>
<path d="M224.537 53.9988V406.985H222.835V54.9025C223.402 54.5978 223.967 54.2993 224.537 53.9988Z" fill="white"/>
<path d="M224.537 233.521V348.748C223.967 349.106 223.402 349.454 222.835 349.798V232.842C223.404 233.06 223.972 233.289 224.537 233.521Z" fill="#D8E9F1"/>
<path d="M335.587 12.6248V406.985H333.887V13.0262C334.452 12.8903 335.028 12.7627 335.587 12.6248Z" fill="white"/>
<path d="M779.796 138.669V406.923H778.096V136.903C778.663 137.492 779.233 138.081 779.796 138.669Z" fill="white"/>
<path d="M668.744 54.9025V406.923H667.044V53.9988C667.611 54.2993 668.176 54.5978 668.744 54.9025Z" fill="white"/>
<path d="M557.694 13.0262V406.923H555.992V12.6248C556.561 12.7627 557.126 12.8903 557.694 13.0262Z" fill="white"/>
<path d="M668.744 193.117H667.044V206.787H668.744V193.117Z" fill="#D8E9F1"/>
<path d="M890.001 406.985H1.5791V439.232H890.001V406.985Z" fill="white"/>
<path d="M0.607178 439.841H885.142" stroke="#D8E9F1" stroke-width="0.923768" stroke-miterlimit="10" stroke-linecap="round"/>
<path d="M885.75 439.841C885.75 440.005 885.685 440.162 885.569 440.278C885.453 440.393 885.297 440.458 885.133 440.458H0.616905C0.473996 440.433 0.344491 440.359 0.25117 440.247C0.157849 440.136 0.106689 439.996 0.106689 439.85C0.106689 439.705 0.157849 439.564 0.25117 439.453C0.344491 439.342 0.473996 439.267 0.616905 439.242H885.152C885.309 439.247 885.458 439.311 885.569 439.423C885.681 439.534 885.745 439.684 885.75 439.841Z" fill="#D8E9F1"/>
<path d="M446.867 406.985L375.095 439.232L372.39 440.448H369.424L372.129 439.232L443.897 406.985H446.867Z" fill="#D8E9F1"/>
<path d="M113.587 406.985L42.1358 439.232L39.4412 440.448H36.4856L39.1802 439.232L110.632 406.985H113.587Z" fill="#D8E9F1"/>
<path d="M224.808 406.985L153.016 439.232L150.309 440.448H147.339L150.046 439.232L221.834 406.985H224.808Z" fill="#D8E9F1"/>
<path d="M335.823 406.985L263.523 439.232L260.796 440.448H257.809L260.534 439.232L332.837 406.985H335.823Z" fill="#D8E9F1"/>
<path d="M783.369 406.985L711.397 439.232L708.682 440.448H705.706L708.421 439.232L780.39 406.985H783.369Z" fill="#D8E9F1"/>
<path d="M889.569 406.985L816.599 439.232L813.847 440.448H810.84L813.594 439.232L886.56 406.985H889.569Z" fill="#D8E9F1"/>
<path d="M668.761 406.985L596.767 439.232L594.052 440.448H591.075L593.793 439.232L665.78 406.985H668.761Z" fill="#D8E9F1"/>
<path d="M705.709 440.448H708.683L670.128 457.723C670.051 457.759 669.966 457.777 669.881 457.777C669.746 457.769 669.618 457.717 669.515 457.629C669.412 457.541 669.341 457.422 669.313 457.289C669.285 457.157 669.301 457.019 669.358 456.896C669.416 456.774 669.513 456.674 669.633 456.612L705.709 440.448Z" fill="#D8E9F1"/>
<path d="M557.862 406.985L485.905 439.232L483.19 440.448H480.214L482.927 439.232L554.884 406.985H557.862Z" fill="#D8E9F1"/>
<path d="M855.529 249.522L751.562 361.791H732.128C729.164 361.79 726.23 362.375 723.492 363.51C720.754 364.646 718.266 366.311 716.17 368.409C714.074 370.508 712.412 373 711.278 375.742C710.144 378.484 709.56 381.423 709.56 384.391C709.56 390.63 712.086 396.536 716.168 400.616C719.248 403.706 723.158 405.835 727.423 406.742C727.867 406.837 728.317 406.919 728.771 406.985H728.819H687.201C686.996 406.985 686.79 406.985 686.599 406.985C680.824 406.836 675.327 404.469 671.245 400.373C667.161 396.281 664.635 390.387 664.635 384.146C664.636 378.152 667.014 372.404 671.245 368.166C675.477 363.928 681.217 361.546 687.201 361.546H706.641L839.401 218.167C845.245 228.371 850.621 238.823 855.529 249.522Z" fill="#98C8DB"/>
<path d="M780.075 406.985L779.845 407.236H732.127C731.003 407.237 729.881 407.153 728.77 406.985C728.316 406.919 727.866 406.837 727.422 406.742C723.157 405.835 719.247 403.706 716.167 400.616C712.085 396.526 709.559 390.63 709.559 384.391C709.559 381.423 710.142 378.484 711.277 375.742C712.411 373 714.073 370.508 716.169 368.409C718.264 366.311 720.752 364.646 723.49 363.51C726.229 362.375 729.163 361.79 732.127 361.791H751.562L855.736 249.316C863.678 266.628 870.311 284.513 875.58 302.821L780.075 406.985Z" fill="white"/>
<path d="M853.806 245.829L749.125 358.869H731.124C724.43 358.869 718.01 361.533 713.277 366.273C708.543 371.014 705.884 377.444 705.884 384.148C705.884 394.44 712.026 403.498 720.837 407.442" stroke="white" stroke-width="0.739015" stroke-miterlimit="10" stroke-linecap="round"/>
<path d="M830.509 287.66C830.509 287.66 814.3 321.942 828.137 366.924H838.73C838.73 366.924 846.952 317.364 830.509 287.66Z" fill="#9FA2BA"/>
<path d="M832.98 330.699C833.566 343.235 834.182 356.261 834.686 366.414C834.692 366.543 834.647 366.669 834.56 366.765C834.473 366.861 834.352 366.918 834.224 366.924H834.199C834.075 366.925 833.955 366.877 833.865 366.791C833.775 366.705 833.722 366.588 833.716 366.463C832.925 350.518 831.856 327.49 831.071 310.402L825.712 302.512C825.815 302.079 825.918 301.655 826.02 301.24L830.986 308.547C830.544 298.932 830.205 291.462 830.08 288.646C830.351 287.995 830.509 287.66 830.509 287.66C830.694 287.993 830.873 288.329 831.054 288.668C831.26 293.378 832.041 310.464 832.904 328.97L839.561 318.06C839.629 318.576 839.693 319.093 839.755 319.612L833.015 330.66C833.005 330.674 832.993 330.688 832.98 330.699Z" fill="#4361EE"/>
<path d="M821.68 366.924C821.68 366.924 812.552 354.876 816.854 329.61C816.854 329.61 831.667 344.975 829.455 366.924H821.68Z" stroke="#4361EE" stroke-width="0.739015" stroke-miterlimit="10" stroke-linecap="round"/>
<path d="M851.677 314.57C851.677 314.57 854.822 343.468 842.574 366.924H833.664C833.664 366.924 834.266 336.413 851.677 314.57Z" fill="#F5BBBB"/>
<path d="M843.138 366.924C843.138 366.924 852.562 357.249 853.528 348.849C853.528 348.849 838.729 355.576 838.729 366.924H843.138Z" fill="#9FA2BA"/>
<path d="M840.991 407.125H823.524L820.889 366.438H843.628L840.991 407.125Z" fill="white"/>
<path d="M844.217 317.798C845.107 317.798 845.829 317.076 845.829 316.184C845.829 315.293 845.107 314.57 844.217 314.57C843.327 314.57 842.606 315.293 842.606 316.184C842.606 317.076 843.327 317.798 844.217 317.798Z" stroke="#4361EE" stroke-width="0.739015" stroke-miterlimit="10" stroke-linecap="round"/>
<path d="M814.089 363.808C814.979 363.808 815.7 363.085 815.7 362.194C815.7 361.303 814.979 360.58 814.089 360.58C813.199 360.58 812.477 361.303 812.477 362.194C812.477 363.085 813.199 363.808 814.089 363.808Z" stroke="#4361EE" stroke-width="0.739015" stroke-miterlimit="10" stroke-linecap="round"/>
<path d="M505.074 488.485H722.591" stroke="#D8E9F1" stroke-width="0.923768" stroke-miterlimit="10" stroke-linecap="round"/>
<path d="M700.339 479.201H655.072L631.322 381.694H682.355C685.003 381.694 687.575 382.584 689.657 384.223C691.74 385.861 693.213 388.152 693.84 390.729L711.823 464.555C712.248 466.297 712.272 468.114 711.894 469.867C711.515 471.62 710.744 473.264 709.637 474.675C708.531 476.086 707.12 477.226 705.509 478.01C703.898 478.794 702.13 479.202 700.339 479.201Z" fill="#4361EE"/>
<path d="M632.127 381.694H683.162C685.81 381.694 688.381 382.585 690.463 384.223C692.546 385.861 694.018 388.152 694.646 390.729L712.63 464.555" stroke="white" stroke-width="0.923768" stroke-miterlimit="10" stroke-linecap="round"/>
<path d="M642.836 381.803C645.516 381.803 648.119 382.703 650.227 384.361C652.335 386.019 653.826 388.337 654.461 390.945L672.396 465.142C672.826 466.905 672.85 468.743 672.466 470.517C672.082 472.291 671.301 473.955 670.181 475.382C669.062 476.81 667.633 477.964 666.003 478.757C664.373 479.551 662.584 479.963 660.771 479.963" stroke="white" stroke-width="0.923768" stroke-miterlimit="10" stroke-linecap="round"/>
<path d="M662.525 390.945L680.46 465.141" stroke="white" stroke-width="0.923768" stroke-miterlimit="10" stroke-linecap="round"/>
<path d="M668.841 390.945L686.776 465.141" stroke="white" stroke-width="0.923768" stroke-miterlimit="10" stroke-linecap="round"/>
<path d="M675.157 390.945L693.092 465.141" stroke="white" stroke-width="0.923768" stroke-miterlimit="10" stroke-linecap="round"/>
<path d="M681.474 390.945L699.409 465.141" stroke="white" stroke-width="0.923768" stroke-miterlimit="10" stroke-linecap="round"/>
<path d="M687.789 390.945L705.724 465.141" stroke="white" stroke-width="0.923768" stroke-miterlimit="10" stroke-linecap="round"/>
<path d="M661.104 487.122C662.605 487.122 663.821 485.904 663.821 484.401C663.821 482.898 662.605 481.68 661.104 481.68C659.603 481.68 658.387 482.898 658.387 484.401C658.387 485.904 659.603 487.122 661.104 487.122Z" stroke="#191D3A" stroke-width="0.923768" stroke-linecap="round" stroke-linejoin="round"/>
<path d="M696.79 487.122C698.291 487.122 699.507 485.904 699.507 484.401C699.507 482.898 698.291 481.68 696.79 481.68C695.29 481.68 694.073 482.898 694.073 484.401C694.073 485.904 695.29 487.122 696.79 487.122Z" stroke="#191D3A" stroke-width="0.923768" stroke-linecap="round" stroke-linejoin="round"/>
<path d="M654.779 478.602L626.122 360.403C625.926 359.595 625.915 358.752 626.091 357.939C626.267 357.126 626.625 356.363 627.138 355.709C627.652 355.054 628.307 354.526 629.054 354.162C629.801 353.798 630.621 353.61 631.452 353.61H640.142C641.647 353.61 643.108 354.118 644.289 355.052C645.471 355.985 646.303 357.29 646.654 358.756L651.761 380.276" stroke="#191D3A" stroke-width="0.923768" stroke-linecap="round" stroke-linejoin="round"/>
<path d="M625.706 487.685H588.956L598.497 474.743C598.497 474.743 607.991 480.14 628.426 479.389H628.491L629.373 483.016C629.508 483.572 629.514 484.151 629.393 484.71C629.271 485.268 629.024 485.792 628.671 486.242C628.318 486.691 627.868 487.055 627.355 487.305C626.841 487.554 626.277 487.684 625.706 487.685Z" fill="#191D3A"/>
<path d="M539.413 474.759C540.094 475.127 549.986 480.358 571.969 479.401V484.586C571.969 486.122 570.672 487.365 569.071 487.365H531.192L539.413 474.759Z" fill="#191D3A"/>
<path d="M627.851 479.45H627.788C608.299 480.167 599.245 475.016 599.245 475.016L571.353 374.098V479.397C550.304 480.354 540.592 475.123 539.943 474.755V314.78H587.794L626.772 475.02L627.851 479.45Z" fill="white" stroke="#191D3A" stroke-width="0.923768" stroke-linejoin="round"/>
<path d="M571.356 374.102V341.306L577.372 339.525" stroke="#191D3A" stroke-width="0.923768" stroke-linecap="round" stroke-linejoin="round"/>
<path d="M641.294 360.788L631.097 361.072C630.653 361.085 630.217 360.962 629.845 360.719C629.474 360.477 629.185 360.127 629.017 359.716L628.318 358.011L622.935 357.939C622.301 357.93 621.682 357.749 621.142 357.416C620.603 357.083 620.163 356.61 619.87 356.047L604.249 323.558L603.951 322.941C603.018 320.143 606.829 316.427 611.953 314.706C617.077 312.986 622 313.85 622.939 316.65L633.36 346.307L635.869 346.362C636.934 346.374 637.97 346.711 638.84 347.326C639.709 347.941 640.371 348.807 640.739 349.808L643.53 357.455C643.662 357.823 643.706 358.217 643.658 358.605C643.61 358.993 643.472 359.364 643.254 359.689C643.036 360.013 642.745 360.282 642.405 360.473C642.064 360.664 641.684 360.772 641.294 360.788Z" fill="#9FA2BA"/>
<path d="M630.734 346.298L635.879 346.354" stroke="#191D3A" stroke-width="0.739015" stroke-miterlimit="10" stroke-linecap="round"/>
<path d="M638.26 360.344C638.652 360.33 639.035 360.223 639.378 360.032C639.721 359.842 640.014 359.572 640.233 359.247C640.452 358.921 640.591 358.547 640.639 358.157C640.686 357.767 640.641 357.372 640.506 357.003L638.962 352.774" stroke="#191D3A" stroke-width="0.739015" stroke-miterlimit="10" stroke-linecap="round"/>
<path d="M634.89 360.407C635.282 360.394 635.665 360.287 636.008 360.096C636.351 359.906 636.645 359.636 636.864 359.31C637.083 358.985 637.222 358.611 637.269 358.221C637.317 357.831 637.271 357.436 637.137 357.067L635.593 352.838" stroke="#191D3A" stroke-width="0.739015" stroke-miterlimit="10" stroke-linecap="round"/>
<path d="M631.647 360.512C632.039 360.499 632.423 360.393 632.766 360.202C633.109 360.012 633.402 359.742 633.622 359.416C633.841 359.09 633.98 358.717 634.027 358.327C634.074 357.936 634.029 357.541 633.894 357.172L632.35 352.943" stroke="#191D3A" stroke-width="0.739015" stroke-miterlimit="10" stroke-linecap="round"/>
<path d="M628.584 357.639V356.609C628.584 354.86 626.899 353.439 625.152 353.439L624.223 350.969" stroke="#191D3A" stroke-width="0.739015" stroke-miterlimit="10" stroke-linecap="round"/>
<path d="M528.241 352.408L499.87 348.102C499.166 347.996 498.51 348.48 498.403 349.185L496.948 358.8C496.842 359.504 497.326 360.162 498.029 360.269L526.401 364.574C527.104 364.681 527.761 364.196 527.868 363.492L529.322 353.877C529.429 353.172 528.945 352.514 528.241 352.408Z" fill="white"/>
<path d="M500.372 346.829L501.258 346.963L499.441 359.108L498.555 358.974C498.339 358.937 498.132 358.857 497.947 358.739C497.761 358.621 497.601 358.467 497.475 358.287C497.349 358.107 497.26 357.904 497.212 357.689C497.165 357.474 497.16 357.252 497.199 357.035L498.508 348.276C498.565 347.838 498.793 347.439 499.142 347.168C499.491 346.897 499.934 346.775 500.372 346.829Z" fill="#4361EE"/>
<path d="M529.392 352.918L528.083 361.677C528.056 361.896 527.986 362.106 527.878 362.298C527.77 362.489 527.625 362.657 527.451 362.792C527.278 362.928 527.08 363.027 526.868 363.086C526.656 363.144 526.435 363.16 526.217 363.133L525.452 363.017L527.269 350.872L528.034 350.987C528.469 351.064 528.856 351.31 529.111 351.672C529.365 352.034 529.466 352.482 529.392 352.918Z" fill="#4361EE"/>
<path d="M535.931 318.776L522.16 362.077C521.648 363.682 519.981 364.753 518.152 364.64L508.286 364.059C507.966 364.045 507.655 363.954 507.378 363.793C507.102 363.632 506.868 363.407 506.697 363.137L503.569 358.349C503.16 357.681 502.952 356.91 502.969 356.128C502.987 355.345 503.228 354.584 503.665 353.935L508.689 346.479L516.23 314.731C517.775 312.611 522.271 311.534 527.037 312.341C532.58 313.28 536.475 315.925 535.931 318.776Z" fill="#9FA2BA"/>
<path d="M507.105 363.295L507.543 356.681" stroke="#191D3A" stroke-width="0.739015" stroke-miterlimit="10" stroke-linecap="round"/>
<path d="M510.884 363.853L511.321 356.988" stroke="#191D3A" stroke-width="0.739015" stroke-miterlimit="10" stroke-linecap="round"/>
<path d="M514.801 364.172L515.239 357.309" stroke="#191D3A" stroke-width="0.739015" stroke-miterlimit="10" stroke-linecap="round"/>
<path d="M518.248 364.261L518.686 357.396" stroke="#191D3A" stroke-width="0.739015" stroke-miterlimit="10" stroke-linecap="round"/>
<path d="M556.009 252.548V241.269L568.525 240.596L574.465 252.548H556.009Z" fill="#9FA2BA"/>
<path d="M553.909 237.963L552.735 237.323C552.645 237.274 552.566 237.208 552.502 237.128C552.437 237.048 552.389 236.957 552.36 236.859C552.331 236.76 552.322 236.657 552.332 236.555C552.343 236.454 552.374 236.355 552.423 236.265L555.609 230.431C555.813 230.051 556.108 229.727 556.466 229.487C556.824 229.246 557.235 229.097 557.664 229.052C558.918 228.912 559.534 229.542 559.534 229.542L562.593 231.981C563.087 232.374 563.44 232.918 563.599 233.53C563.758 234.142 563.715 234.789 563.475 235.373L562.328 238.179C562.085 238.745 561.643 239.202 561.086 239.462C560.529 239.723 559.895 239.769 559.306 239.591L553.909 237.963Z" fill="#9FA2BA"/>
<path d="M559.1 232.932L557.215 232.146" stroke="#191D3A" stroke-width="0.739015" stroke-miterlimit="10" stroke-linecap="round"/>
<path d="M557.778 235.09C558.002 234.57 557.928 234.038 557.612 233.901C557.296 233.765 556.858 234.076 556.635 234.595C556.411 235.115 556.485 235.647 556.801 235.784C557.117 235.92 557.554 235.609 557.778 235.09Z" fill="#191D3A"/>
<path d="M568.87 242.358C568.446 242.631 567.962 242.795 567.46 242.836C566.958 242.877 566.454 242.793 565.992 242.593L564.389 241.901" stroke="#191D3A" stroke-width="0.739015" stroke-miterlimit="10" stroke-linecap="round"/>
<path d="M566.24 242.107L564.638 241.415L566.059 237.111C566.132 236.883 566.255 236.674 566.418 236.498C566.581 236.322 566.78 236.185 567.001 236.094C567.223 236.003 567.462 235.962 567.701 235.974C567.94 235.985 568.173 236.049 568.385 236.16L568.727 236.335C569.097 236.495 569.432 236.726 569.713 237.016C569.993 237.306 570.214 237.649 570.363 238.024C570.512 238.399 570.585 238.801 570.579 239.204C570.573 239.608 570.488 240.007 570.328 240.378L570.276 240.501C569.951 241.248 569.344 241.836 568.588 242.137C567.832 242.437 566.988 242.427 566.24 242.107Z" fill="#9FA2BA"/>
<path d="M566.538 238.85C566.747 238.381 567.133 238.012 567.611 237.826C568.089 237.639 568.622 237.648 569.093 237.852" stroke="#191D3A" stroke-width="0.739015" stroke-miterlimit="10" stroke-linecap="round"/>
<path d="M568.385 236.16C568.173 236.049 567.939 235.985 567.7 235.974C567.461 235.963 567.223 236.004 567.001 236.094C566.78 236.185 566.58 236.323 566.418 236.498C566.255 236.674 566.132 236.883 566.058 237.111L564.174 242.85C563.294 243.972 561.469 244.32 559.98 244.258L555.596 244.145C555.121 244.132 554.656 244.003 554.242 243.769C553.828 243.534 553.477 243.202 553.221 242.801C552.964 242.4 552.81 241.941 552.771 241.467C552.733 240.992 552.811 240.515 552.998 240.077L553.911 237.957L559.3 239.585C559.889 239.762 560.523 239.716 561.08 239.455C561.638 239.195 562.079 238.737 562.322 238.171L563.468 235.367C563.708 234.783 563.752 234.136 563.593 233.524C563.434 232.912 563.081 232.368 562.587 231.975L559.528 229.536C559.063 229.197 558.5 229.018 557.924 229.026C557.349 229.033 556.791 229.226 556.334 229.577C554.758 226.308 558.073 225.388 559.417 226.061C560.394 226.551 568.738 231.545 569.24 233.008C569.538 233.871 569.357 235.162 569.004 236.477L568.385 236.16Z" fill="#4361EE"/>
<path d="M536.197 318.628C536.58 315.832 532.483 313.263 527.032 312.341C522.264 311.534 517.526 312.611 515.979 314.729L526.173 267.464C527.119 263.232 529.475 259.448 532.854 256.737C536.234 254.026 540.434 252.548 544.764 252.548H586.4C589.71 252.548 592.946 253.534 595.696 255.379C598.446 257.225 600.586 259.848 601.844 262.914L622.854 316.372C621.697 313.788 616.933 313.029 611.973 314.698C606.88 316.413 603.088 320.089 603.957 322.883L586.789 285.282L586.227 298.197L590.764 322.858C590.764 322.858 591.306 335.209 574.378 335.715C556.412 336.251 547.142 323.391 547.142 323.391L539.126 333.889V304.163L536.197 318.628Z" fill="#F5BBBB"/>
<path d="M556.472 246.926H571.717C572.081 246.926 572.438 247.029 572.748 247.221C573.057 247.414 573.307 247.69 573.468 248.017L575.694 252.545H552.139L554.776 247.912C554.947 247.612 555.194 247.363 555.492 247.19C555.789 247.017 556.128 246.926 556.472 246.926Z" fill="#F5BBBB"/>
<path d="M603.534 323.142C602.613 320.184 606.362 316.287 611.755 314.472C617.013 312.703 622.059 313.506 623.286 316.246L620.33 308.922C619.07 306.11 614.164 305.011 608.761 306.83C603.211 308.695 599.1 312.695 600.038 315.733L603.534 323.142Z" stroke="white" stroke-width="0.739015" stroke-linejoin="round"/>
<path d="M534.247 256.078C534.247 256.078 543.944 257.358 545.817 269.748H587.722" stroke="white" stroke-width="0.739015" stroke-linecap="round" stroke-linejoin="round"/>
<path d="M536.683 317.846L545.845 269.738" stroke="white" stroke-width="0.739015" stroke-linecap="round" stroke-linejoin="round"/>
<path d="M586.794 286.643L588.661 267.223" stroke="white" stroke-width="0.739015" stroke-linecap="round" stroke-linejoin="round"/>
<path d="M537.776 313.049L536.432 318.778C536.978 315.929 532.58 313.278 527.032 312.339C521.67 311.431 516.41 312.909 515.543 315.569L516.922 309.428C517.504 306.569 522.987 305.015 528.557 305.957C534.127 306.9 538.357 310.192 537.776 313.049Z" stroke="white" stroke-width="0.739015" stroke-linejoin="round"/>
<path d="M575.427 252.278H552.139" stroke="white" stroke-width="0.739015" stroke-miterlimit="10" stroke-linecap="round"/>
<path d="M312.886 373.662H254.289C257.41 373.662 260.456 372.701 263.014 370.909C265.572 369.118 267.518 366.582 268.588 363.645L281.899 326.57L295.789 362.799C296.86 365.735 298.805 368.271 301.363 370.062C303.92 371.854 306.965 372.815 310.086 372.816H312.323L312.886 373.662Z" fill="#9FA2BA" stroke="#9FA2BA" stroke-width="1.29328" stroke-linecap="round" stroke-linejoin="round"/>
<path d="M466.415 372.806H310.088C306.967 372.806 303.921 371.845 301.363 370.053C298.805 368.261 296.859 365.726 295.789 362.789L282.33 325.896H414.697C416.168 325.897 417.604 326.35 418.81 327.194C420.015 328.039 420.932 329.235 421.437 330.619L433.173 362.789C433.936 364.885 435.149 366.787 436.727 368.361C438.726 369.443 440.962 370.009 443.234 370.008H463.582C464.326 370.008 465.041 370.301 465.57 370.825C466.099 371.349 466.4 372.061 466.409 372.806H466.415Z" fill="#4361EE"/>
<path d="M281.54 325.862L267.697 363.81C266.735 366.447 264.987 368.725 262.69 370.334C260.392 371.943 257.657 372.806 254.853 372.806H235.995C236.004 372.061 236.305 371.349 236.834 370.826C237.363 370.302 238.077 370.008 238.821 370.008H252.06C254.863 370.009 257.599 369.146 259.897 367.537C262.194 365.928 263.942 363.65 264.904 361.013L276.414 329.45C276.797 328.398 277.494 327.489 278.411 326.847C279.327 326.205 280.418 325.861 281.536 325.862H281.54Z" fill="#4361EE"/>
<path d="M465.992 373.662H307.662" stroke="#9FA2BA" stroke-width="1.29328" stroke-miterlimit="10" stroke-linecap="round"/>
<path d="M379.403 373.662C376.282 373.662 373.236 372.702 370.678 370.91C368.12 369.119 366.174 366.584 365.103 363.648L351.645 326.753" stroke="#9FA2BA" stroke-width="1.29328" stroke-miterlimit="10" stroke-linecap="round"/>
<path d="M414.06 373.662C410.939 373.662 407.893 372.702 405.335 370.91C402.777 369.119 400.83 366.584 399.759 363.648L386.302 326.753" stroke="#9FA2BA" stroke-width="1.29328" stroke-miterlimit="10" stroke-linecap="round"/>
<path d="M344.747 373.662C341.625 373.662 338.58 372.702 336.021 370.91C333.463 369.119 331.517 366.584 330.445 363.648L316.989 326.753" stroke="#9FA2BA" stroke-width="1.29328" stroke-miterlimit="10" stroke-linecap="round"/>
<path d="M251.167 413.613C251.167 392.302 264.799 375.025 281.616 375.025C298.433 375.025 312.066 392.302 312.066 413.613" stroke="#9FA2BA" stroke-width="1.29328" stroke-miterlimit="10"/>
<path d="M399.681 413.613C399.681 392.302 413.314 375.025 430.132 375.025C446.949 375.025 460.582 392.302 460.582 413.613" stroke="#9FA2BA" stroke-width="1.29328" stroke-miterlimit="10"/>
<path d="M347.317 343.647L337.729 345.855L336.434 339.81L338.327 337.871C339.062 337.117 339.542 336.152 339.7 335.111C339.859 334.07 339.688 333.006 339.211 332.068L336.08 325.919L341.338 325.888L347.317 343.647Z" fill="#9FA2BA"/>
<path d="M332.15 314.484C333.69 314.484 335.194 314.953 336.462 315.828C337.731 316.702 338.704 317.942 339.254 319.383L341.418 325.888L336.088 325.919L339.219 332.068C339.696 333.006 339.867 334.071 339.708 335.112C339.55 336.152 339.069 337.117 338.335 337.871L336.442 339.81L337.737 345.856L308.896 352.21L297.62 325.977H297.357L296.995 323.253C296.852 322.169 296.941 321.066 297.254 320.018C297.567 318.97 298.097 318 298.811 317.171C299.525 316.343 300.405 315.675 301.395 315.212C302.384 314.748 303.46 314.5 304.552 314.482L332.15 314.484Z" fill="#F5BBBB"/>
<path d="M338.326 337.871C339.061 337.118 339.541 336.153 339.7 335.113C339.859 334.072 339.687 333.008 339.21 332.07L334.224 322.271" stroke="white" stroke-width="0.739015" stroke-miterlimit="10" stroke-linecap="round"/>
<path d="M384.78 402.46H364.705L362.891 396.941L346.314 346.481C345.726 344.676 347.592 342.823 349.485 342.823L357.468 342.56C359.727 342.56 361.929 343.271 363.761 344.594C365.594 345.917 366.965 347.783 367.68 349.929L382.982 396.941L384.78 402.46Z" fill="#191D3A"/>
<path d="M359.255 356.193L344.456 396.951L342.45 402.47H322.328L324.219 396.951L332.892 371.665H321.931C315.048 371.665 304.049 366.638 308.914 351.955L349.636 342.609C351.264 342.61 352.868 343.001 354.314 343.75C355.76 344.499 357.006 345.584 357.947 346.913C358.889 348.243 359.499 349.78 359.727 351.394C359.954 353.009 359.792 354.654 359.255 356.193Z" fill="#191D3A"/>
<path d="M334.66 364.882L331.418 374.419" stroke="white" stroke-width="0.739015" stroke-miterlimit="10" stroke-linecap="round"/>
<path d="M342.61 403.673L359.546 355.609C360.084 354.069 360.246 352.423 360.019 350.809C359.792 349.194 359.181 347.657 358.239 346.327C357.297 344.997 356.051 343.912 354.604 343.163C353.158 342.414 351.553 342.023 349.925 342.022V342.022" stroke="white" stroke-width="0.739015" stroke-miterlimit="10" stroke-linecap="round"/>
<path d="M344.454 396.942L342.448 402.461H322.326L324.217 396.942H344.454Z" fill="#9FA2BA"/>
<path d="M384.781 402.46H364.704L362.891 396.941H382.983L384.781 402.46Z" fill="#9FA2BA"/>
<path d="M350.945 414.171H333.68C333.323 414.171 332.978 414.046 332.704 413.817L329.97 411.528C329.896 411.465 329.807 411.423 329.712 411.404C329.616 411.385 329.518 411.39 329.426 411.42C329.333 411.449 329.249 411.501 329.183 411.572C329.116 411.642 329.068 411.728 329.043 411.822L328.599 413.626C328.559 413.783 328.467 413.922 328.338 414.021C328.21 414.12 328.052 414.172 327.89 414.171H320.924C320.818 414.172 320.714 414.15 320.617 414.106C320.521 414.063 320.436 413.998 320.367 413.917C320.299 413.836 320.249 413.741 320.222 413.639C320.195 413.536 320.19 413.429 320.209 413.325L322.332 402.456H342.537L350.945 414.171Z" fill="#F5BBBB"/>
<path d="M393.72 414.171H376.454C376.098 414.172 375.752 414.046 375.478 413.817L372.744 411.528C372.67 411.465 372.581 411.423 372.486 411.404C372.39 411.385 372.292 411.39 372.199 411.42C372.107 411.449 372.023 411.501 371.956 411.572C371.889 411.642 371.84 411.728 371.815 411.822L371.373 413.626C371.333 413.783 371.241 413.921 371.112 414.02C370.984 414.119 370.826 414.172 370.664 414.171H363.175C363.069 414.173 362.964 414.151 362.867 414.107C362.771 414.063 362.685 413.999 362.616 413.918C362.548 413.837 362.498 413.742 362.47 413.639C362.443 413.537 362.438 413.429 362.457 413.325L364.58 402.456H384.785L393.72 414.171Z" fill="#F5BBBB"/>
<path d="M326.352 313.877C323.955 315.112 321.028 314.622 318.555 312.847L318.51 312.872C312.675 315.9 306.094 314.519 303.808 310.108C301.522 305.696 304.402 299.663 310.233 296.63C311.915 295.743 313.749 295.184 315.639 294.984C315.507 294.572 315.467 294.136 315.519 293.707C315.572 293.278 315.717 292.865 315.944 292.497C316.171 292.129 316.475 291.815 316.835 291.576C317.195 291.337 317.602 291.179 318.029 291.113C318.456 291.046 318.892 291.073 319.307 291.192C319.722 291.31 320.107 291.517 320.435 291.799C320.763 292.081 321.025 292.43 321.206 292.823C321.386 293.216 321.479 293.643 321.478 294.076C321.479 294.549 321.366 295.016 321.149 295.437C324.027 295.891 326.919 298.063 328.631 301.386C331.171 306.324 330.152 311.911 326.352 313.877Z" fill="#191D3A"/>
<path d="M310.866 314.486L314.856 305.612H322.235V320.324L310.866 314.486Z" fill="#9FA2BA"/>
<path d="M322.235 305.612V311.273C320.936 311.445 319.619 311.148 318.519 310.437C317.418 309.725 316.607 308.644 316.229 307.388L315.695 305.612H322.235Z" fill="#191D3A"/>
<path d="M325.194 300.665V305.264C325.195 305.732 325.103 306.195 324.924 306.627C324.746 307.059 324.484 307.452 324.154 307.783C323.823 308.113 323.431 308.376 323 308.554C322.568 308.733 322.106 308.825 321.639 308.825H319.896C318.96 308.824 318.047 308.542 317.274 308.014C316.501 307.486 315.905 306.737 315.563 305.865H313.919C313.307 305.847 312.726 305.591 312.3 305.151C311.873 304.711 311.635 304.122 311.635 303.509C311.635 302.896 311.873 302.307 312.3 301.867C312.726 301.427 313.307 301.171 313.919 301.153H314.139C314.528 301.153 314.91 301.256 315.246 301.451V301.441L321.322 296.762C322.353 296.77 323.339 297.185 324.065 297.918C324.791 298.651 325.199 299.641 325.199 300.673L325.194 300.665Z" fill="#9FA2BA"/>
<path d="M314.948 303.86C314.948 303.533 314.818 303.218 314.587 302.987C314.356 302.755 314.042 302.625 313.715 302.625" stroke="#191D3A" stroke-width="0.554261" stroke-miterlimit="10" stroke-linecap="round"/>
<path d="M325.305 300.688C325.305 300.688 323.955 300.167 322.874 301.169C322.13 301.861 321.93 303.751 322.498 304.543" stroke="#191D3A" stroke-width="0.554261" stroke-miterlimit="10" stroke-linecap="round"/>
<path d="M319.789 303.426C320.023 303.426 320.213 303.167 320.213 302.847C320.213 302.528 320.023 302.269 319.789 302.269C319.555 302.269 319.366 302.528 319.366 302.847C319.366 303.167 319.555 303.426 319.789 303.426Z" fill="#191D3A"/>
<path d="M323.735 303.426C323.969 303.426 324.158 303.167 324.158 302.847C324.158 302.528 323.969 302.269 323.735 302.269C323.501 302.269 323.311 302.528 323.311 302.847C323.311 303.167 323.501 303.426 323.735 303.426Z" fill="#191D3A"/>
<path d="M322.602 306.448C322.602 306.448 321.254 306.804 320.833 305.721" stroke="#191D3A" stroke-width="0.554261" stroke-miterlimit="10" stroke-linecap="round"/>
<path d="M317.836 301.122C317.836 301.122 319.03 300.196 320.541 300.488" stroke="#191D3A" stroke-width="0.554261" stroke-miterlimit="10" stroke-linecap="round"/>
<path d="M358.196 343.262C358.196 343.6 358.061 343.925 357.822 344.164C357.582 344.404 357.258 344.538 356.92 344.538H341.348L315.755 352.224C314.542 352.607 313.265 352.746 311.999 352.633C310.732 352.521 309.5 352.159 308.373 351.568C307.247 350.978 306.247 350.17 305.433 349.192C304.619 348.214 304.005 347.084 303.628 345.868L297.437 325.979L313.738 325.888L317.403 336.775L342.666 336.469C345.389 336.469 348.073 337.372 350.505 338.597L357.493 342.121C357.704 342.228 357.881 342.391 358.005 342.592C358.128 342.794 358.194 343.025 358.194 343.262H358.196Z" fill="#9FA2BA"/>
<path d="M315.295 337.053L322.516 337.148" stroke="#191D3A" stroke-width="0.554261" stroke-miterlimit="10" stroke-linecap="round"/>
<path d="M339.323 342.484C339.323 343.154 339.589 343.796 340.062 344.27C340.535 344.743 341.176 345.009 341.845 345.009" stroke="#191D3A" stroke-width="0.554261" stroke-miterlimit="10" stroke-linecap="round"/>
<path d="M349.595 340.946L354.81 343.085C355.093 343.201 355.336 343.399 355.507 343.654C355.678 343.908 355.769 344.208 355.77 344.515" stroke="#191D3A" stroke-width="0.554261" stroke-miterlimit="10" stroke-linecap="round"/>
<path d="M345.896 341.411L349.974 343.085C350.258 343.201 350.5 343.4 350.671 343.654C350.841 343.909 350.932 344.209 350.932 344.516" stroke="#191D3A" stroke-width="0.554261" stroke-miterlimit="10" stroke-linecap="round"/>
<path d="M396.871 174.044H263.888C263.001 174.044 262.136 173.778 261.403 173.279C260.67 172.78 260.103 172.072 259.777 171.247L231.692 100.198C231.427 99.5263 231.33 98.8001 231.409 98.0825C231.488 97.3649 231.742 96.6776 232.147 96.0806C232.552 95.4836 233.097 94.9949 233.735 94.6573C234.372 94.3197 235.082 94.1433 235.803 94.1436H368.786C369.672 94.1438 370.538 94.4106 371.271 94.9094C372.004 95.4082 372.57 96.116 372.897 96.9411L400.976 167.99C401.241 168.661 401.338 169.387 401.259 170.104C401.18 170.821 400.927 171.508 400.522 172.105C400.118 172.702 399.573 173.19 398.937 173.529C398.301 173.867 397.591 174.044 396.871 174.044Z" fill="white"/>
<path d="M293.725 173.285L262.675 94.718" stroke="#D8E9F1" stroke-width="0.923768" stroke-miterlimit="10" stroke-linecap="round"/>
<path d="M233.186 90.0081H372.186C372.93 90.008 373.657 90.2318 374.273 90.6506C374.889 91.0695 375.364 91.6639 375.639 92.3568L406.289 169.909" stroke="#9FA2BA" stroke-width="0.923768" stroke-miterlimit="10" stroke-linecap="round"/>
<path d="M304.893 90.0081V22.1104" stroke="#9FA2BA" stroke-width="0.923768" stroke-miterlimit="10" stroke-linecap="round"/>
<path d="M240.142 120.643H381.79" stroke="#D8E9F1" stroke-width="0.923768" stroke-miterlimit="10" stroke-linecap="round"/>
<path d="M250.587 147.243H392.478" stroke="#D8E9F1" stroke-width="0.923768" stroke-miterlimit="10" stroke-linecap="round"/>
<path d="M258.568 108.232H245.57" stroke="#4361EE" stroke-width="0.923768" stroke-miterlimit="10" stroke-linecap="round"/>
<path d="M329.51 104.02H276.261" stroke="#4361EE" stroke-width="0.923768" stroke-miterlimit="10" stroke-linecap="round"/>
<path d="M339.168 128.83H285.919" stroke="#4361EE" stroke-width="0.923768" stroke-miterlimit="10" stroke-linecap="round"/>
<path d="M341.355 135.155H288.106" stroke="#4361EE" stroke-width="0.923768" stroke-miterlimit="10" stroke-linecap="round"/>
<path d="M360.544 155.125H295.15" stroke="#4361EE" stroke-width="0.923768" stroke-miterlimit="10" stroke-linecap="round"/>
<path d="M350.101 161.45H297.337" stroke="#4361EE" stroke-width="0.923768" stroke-miterlimit="10" stroke-linecap="round"/>
<path d="M349.568 110.344H278.69" stroke="#4361EE" stroke-width="0.923768" stroke-miterlimit="10" stroke-linecap="round"/>
<path d="M251.79 113.333L244.392 108.067L249.936 102.804" stroke="#4361EE" stroke-width="0.923768" stroke-linecap="round" stroke-linejoin="round"/>
<path d="M268.276 134.258H255.276" stroke="#4361EE" stroke-width="0.923768" stroke-miterlimit="10" stroke-linecap="round"/>
<path d="M261.495 139.359L254.098 134.093L259.644 128.83" stroke="#4361EE" stroke-width="0.923768" stroke-linecap="round" stroke-linejoin="round"/>
<path d="M278.033 160.553H265.033" stroke="#4361EE" stroke-width="0.923768" stroke-miterlimit="10" stroke-linecap="round"/>
<path d="M271.254 165.654L263.854 160.39L269.4 155.125" stroke="#4361EE" stroke-width="0.923768" stroke-linecap="round" stroke-linejoin="round"/>
<path d="M359.033 104.02H366.04" stroke="#4361EE" stroke-width="0.923768" stroke-miterlimit="10" stroke-linecap="round"/>
<path d="M361.46 110.344H368.469" stroke="#4361EE" stroke-width="0.923768" stroke-miterlimit="10" stroke-linecap="round"/>
<path d="M367.013 128.83H374.02" stroke="#4361EE" stroke-width="0.923768" stroke-miterlimit="10" stroke-linecap="round"/>
<path d="M369.439 135.155H376.448" stroke="#4361EE" stroke-width="0.923768" stroke-miterlimit="10" stroke-linecap="round"/>
<path d="M375.963 155.125H382.97" stroke="#4361EE" stroke-width="0.923768" stroke-miterlimit="10" stroke-linecap="round"/>
<path d="M378.393 161.45H385.4" stroke="#4361EE" stroke-width="0.923768" stroke-miterlimit="10" stroke-linecap="round"/>
<path d="M492.471 174.287H625.454C626.34 174.287 627.206 174.021 627.939 173.522C628.672 173.023 629.239 172.315 629.565 171.49L657.646 100.441C657.911 99.7692 658.008 99.043 657.929 98.3254C657.849 97.6078 657.596 96.9205 657.191 96.3235C656.785 95.7265 656.24 95.2378 655.603 94.9002C654.966 94.5626 654.256 94.3862 653.535 94.3865H520.551C519.665 94.3861 518.799 94.6527 518.066 95.1516C517.333 95.6505 516.767 96.3586 516.441 97.184L488.36 168.233C488.095 168.905 487.998 169.631 488.077 170.348C488.156 171.066 488.41 171.753 488.815 172.35C489.22 172.947 489.765 173.436 490.403 173.774C491.04 174.111 491.75 174.288 492.471 174.287Z" fill="white"/>
<path d="M595.617 173.528L626.667 94.9609" stroke="#D8E9F1" stroke-width="0.923768" stroke-miterlimit="10" stroke-linecap="round"/>
<path d="M656.153 90.251H517.154C516.41 90.251 515.683 90.475 515.068 90.8938C514.452 91.3126 513.977 91.907 513.703 92.5997L483.053 170.152" stroke="#9FA2BA" stroke-width="0.923768" stroke-miterlimit="10" stroke-linecap="round"/>
<path d="M584.448 90.251V20.408" stroke="#9FA2BA" stroke-width="0.923768" stroke-miterlimit="10" stroke-linecap="round"/>
<path d="M649.198 120.886H507.551" stroke="#D8E9F1" stroke-width="0.923768" stroke-miterlimit="10" stroke-linecap="round"/>
<path d="M638.755 147.486H496.863" stroke="#D8E9F1" stroke-width="0.923768" stroke-miterlimit="10" stroke-linecap="round"/>
<path d="M630.771 108.475H643.771" stroke="#4361EE" stroke-width="0.923768" stroke-miterlimit="10" stroke-linecap="round"/>
<path d="M605.5 104.263H613.078" stroke="#4361EE" stroke-width="0.923768" stroke-miterlimit="10" stroke-linecap="round"/>
<path d="M513.735 129.072H581.789" stroke="#4361EE" stroke-width="0.923768" stroke-miterlimit="10" stroke-linecap="round"/>
<path d="M511.549 135.398H542.111" stroke="#4361EE" stroke-width="0.923768" stroke-miterlimit="10" stroke-linecap="round"/>
<path d="M502.561 155.368H567.955" stroke="#4361EE" stroke-width="0.923768" stroke-miterlimit="10" stroke-linecap="round"/>
<path d="M500.862 161.694H553.625" stroke="#4361EE" stroke-width="0.923768" stroke-miterlimit="10" stroke-linecap="round"/>
<path d="M520.627 110.587H581.789" stroke="#4361EE" stroke-width="0.923768" stroke-miterlimit="10" stroke-linecap="round"/>
<path d="M637.55 113.576L644.947 108.31L639.404 103.047" stroke="#4361EE" stroke-width="0.923768" stroke-linecap="round" stroke-linejoin="round"/>
<path d="M621.066 134.501H634.065" stroke="#4361EE" stroke-width="0.923768" stroke-miterlimit="10" stroke-linecap="round"/>
<path d="M627.844 139.602L635.242 134.338L629.698 129.072" stroke="#4361EE" stroke-width="0.923768" stroke-linecap="round" stroke-linejoin="round"/>
<path d="M611.307 160.796H624.307" stroke="#4361EE" stroke-width="0.923768" stroke-miterlimit="10" stroke-linecap="round"/>
<path d="M618.086 165.897L625.485 160.633L619.94 155.368" stroke="#4361EE" stroke-width="0.923768" stroke-linecap="round" stroke-linejoin="round"/>
<path d="M592.887 104.263H523.299" stroke="#4361EE" stroke-width="0.923768" stroke-miterlimit="10" stroke-linecap="round"/>
<path d="M610.407 110.587H603.643" stroke="#4361EE" stroke-width="0.923768" stroke-miterlimit="10" stroke-linecap="round"/>
<path d="M603.42 129.072H596.413" stroke="#4361EE" stroke-width="0.923768" stroke-miterlimit="10" stroke-linecap="round"/>
<path d="M600.992 135.398H593.985" stroke="#4361EE" stroke-width="0.923768" stroke-miterlimit="10" stroke-linecap="round"/>
<path d="M594.19 155.368H587.184" stroke="#4361EE" stroke-width="0.923768" stroke-miterlimit="10" stroke-linecap="round"/>
<path d="M591.76 161.694H584.754" stroke="#4361EE" stroke-width="0.923768" stroke-miterlimit="10" stroke-linecap="round"/>
</g>
<defs>
<clipPath id="clip0">
<rect width="890" height="489" fill="white"/>
</clipPath>
</defs>
</svg>
