<svg width="473" height="283" viewBox="0 0 473 283" fill="none" xmlns="http://www.w3.org/2000/svg">
<g clip-path="url(#clip0)">
<path d="M207.973 35.0917V44.0056H187.911L196.201 29.4602L207.973 35.0917Z" fill="white" stroke="#191D3A" stroke-width="0.589311" stroke-linecap="round" stroke-linejoin="round"/>
<path d="M207.973 44.0053V35.0913L196.437 29.4646V31.4789C196.437 32.7668 196.744 34.0361 197.332 35.182C197.92 36.3279 198.772 37.3173 199.818 38.0685L207.973 44.0053Z" fill="#191D3A"/>
<path d="M195.58 26.7697V23.2338C195.58 22.4054 195.814 21.5939 196.256 20.8931C196.698 20.1922 197.329 19.6308 198.076 19.2737L203.091 16.8752C203.605 16.6297 204.166 16.4977 204.736 16.4881C205.305 16.4785 205.87 16.5916 206.392 16.8197C206.914 17.0478 207.381 17.3855 207.76 17.81C208.14 18.2344 208.424 18.7356 208.593 19.2796L209.065 20.8118L195.58 26.7697Z" fill="white" stroke="#191D3A" stroke-width="0.589311" stroke-linecap="round" stroke-linejoin="round"/>
<path d="M195.58 26.7695L213.901 18.6711" stroke="#191D3A" stroke-width="0.589311" stroke-linecap="round" stroke-linejoin="round"/>
<path d="M195.507 32.1443H197.911L198.343 33.5893C198.503 34.1262 198.833 34.5969 199.283 34.9312C199.732 35.2655 200.278 35.4456 200.838 35.4445H207.244C207.696 35.4444 208.142 35.3486 208.553 35.1633C208.965 34.978 209.333 34.7076 209.632 34.3697C209.932 34.0319 210.156 33.6343 210.29 33.2034C210.425 32.7725 210.466 32.3179 210.412 31.8697L209.076 20.8154L196.216 26.4622H195.509C194.761 26.4618 194.043 26.7566 193.51 27.2825C192.978 27.8083 192.675 28.5228 192.667 29.2709C192.663 29.6466 192.733 30.0194 192.874 30.3678C193.015 30.7162 193.223 31.0332 193.487 31.3004C193.752 31.5676 194.066 31.7798 194.413 31.9247C194.76 32.0695 195.132 32.1442 195.507 32.1443Z" fill="white" stroke="#191D3A" stroke-width="0.589311" stroke-linecap="round" stroke-linejoin="round"/>
<path d="M196.169 26.754C196.302 26.754 196.434 26.7802 196.556 26.831C196.679 26.8818 196.79 26.9563 196.884 27.0503C196.978 27.1442 197.052 27.2557 197.103 27.3784C197.154 27.501 197.18 27.6325 197.18 27.7653V29.347H197.487C197.893 29.347 198.283 29.1855 198.571 28.8982C198.858 28.6109 199.019 28.2211 199.019 27.8148V27.2007C199.02 26.8279 199.117 26.4615 199.302 26.1377C199.486 25.8138 199.752 25.5437 200.073 25.3538L202.575 23.8711L196.169 26.754Z" fill="#191D3A"/>
<path d="M209.323 23.9815C209.323 23.9815 206.455 23.5819 206.101 24.9668C205.881 25.826 208.562 30.1362 206.51 30.1362" stroke="#191D3A" stroke-width="0.589311" stroke-miterlimit="10" stroke-linecap="round"/>
<path d="M203.338 27.9935C203.648 27.9935 203.899 27.651 203.899 27.2285C203.899 26.8061 203.648 26.4636 203.338 26.4636C203.028 26.4636 202.777 26.8061 202.777 27.2285C202.777 27.651 203.028 27.9935 203.338 27.9935Z" fill="#191D3A"/>
<path d="M208.567 27.9935C208.877 27.9935 209.128 27.651 209.128 27.2285C209.128 26.8061 208.877 26.4636 208.567 26.4636C208.257 26.4636 208.006 26.8061 208.006 27.2285C208.006 27.651 208.257 27.9935 208.567 27.9935Z" fill="#191D3A"/>
<path d="M196.2 29.3476C196.2 28.9553 196.044 28.579 195.767 28.3016C195.489 28.0242 195.113 27.8684 194.721 27.8684" stroke="#191D3A" stroke-width="0.589311" stroke-miterlimit="10" stroke-linecap="round"/>
<path d="M206.092 31.8383C206.092 31.8383 203.735 31.8383 203.748 30.6809" stroke="#191D3A" stroke-width="0.589311" stroke-miterlimit="10" stroke-linecap="round"/>
<path d="M251.434 83.0656C250.157 82.1056 249.285 80.7028 248.989 79.1326L245.441 60.4738C244.549 55.8392 242.07 51.6601 238.43 48.6549C234.791 45.6496 230.219 44.0059 225.499 44.0061H173.522C168.627 44.0062 163.807 45.203 159.481 47.4923C155.156 49.7816 151.455 53.0939 148.702 57.1407L127.027 89.0023C123.987 93.474 122.859 98.4313 123.266 103.153C123.981 111.434 131.013 117.744 139.325 117.744H142.08L158.75 97.5026C157.174 97.1572 156.377 95.7287 157.201 94.4924L167.02 79.7596C168.642 77.3281 172.335 77.7559 173.361 80.488L184.912 110.062C184.912 110.062 232.687 110.062 232.688 110.071L251.434 83.0656Z" fill="white" stroke="#4361EE" stroke-width="0.589311" stroke-miterlimit="10"/>
<path d="M147.227 63.6766L143.593 67.3103L147.227 70.944L150.86 67.3103L147.227 63.6766Z" fill="#4361EE"/>
<path d="M144.379 67.3122L140.745 70.9459L139.891 70.0914L142.832 65.7659L143.986 66.9197L144.379 67.3122Z" fill="#4361EE"/>
<path d="M153.709 63.6766L150.076 67.3103L153.709 70.944L157.343 67.3103L153.709 63.6766Z" fill="#4361EE"/>
<path d="M160.309 63.6771L156.676 67.3108L160.309 70.9445L163.943 67.3108L160.309 63.6771Z" fill="#4361EE"/>
<path d="M166.792 63.6766L163.158 67.3103L166.792 70.944L170.426 67.3103L166.792 63.6766Z" fill="#4361EE"/>
<path d="M173.275 63.6766L169.641 67.3103L173.275 70.944L176.908 67.3103L173.275 63.6766Z" fill="#4361EE"/>
<path d="M179.757 63.6766L176.123 67.3103L179.757 70.944L183.391 67.3103L179.757 63.6766Z" fill="#4361EE"/>
<path d="M186.357 63.6766L182.723 67.3103L186.357 70.944L189.99 67.3103L186.357 63.6766Z" fill="#4361EE"/>
<path d="M192.839 63.6766L189.206 67.3103L192.839 70.944L196.473 67.3103L192.839 63.6766Z" fill="#4361EE"/>
<path d="M199.204 63.6776L195.571 67.3113L199.204 70.945L202.838 67.3113L199.204 63.6776Z" fill="#4361EE"/>
<path d="M205.687 63.6776L202.053 67.3113L205.687 70.945L209.321 67.3113L205.687 63.6776Z" fill="#4361EE"/>
<path d="M212.287 63.6776L208.654 67.3113L212.287 70.945L215.921 67.3113L212.287 63.6776Z" fill="#4361EE"/>
<path d="M218.769 63.6776L215.135 67.3113L218.769 70.945L222.403 67.3113L218.769 63.6776Z" fill="#4361EE"/>
<path d="M225.252 63.6776L221.618 67.3113L225.252 70.945L228.886 67.3113L225.252 63.6776Z" fill="#4361EE"/>
<path d="M231.735 63.6776L228.101 67.3113L231.735 70.945L235.368 67.3113L231.735 63.6776Z" fill="#4361EE"/>
<path d="M238.335 63.6776L234.702 67.3113L238.335 70.945L241.969 67.3113L238.335 63.6776Z" fill="#4361EE"/>
<path d="M247.014 68.7486L244.818 70.9456L241.184 67.3119L244.818 63.6782L245.033 63.8939L246.34 65.201L247.014 68.7486Z" fill="#4361EE"/>
<path d="M150.861 60.4757L147.228 64.1094L145.283 62.1647L148.225 57.8391L150.469 60.0832L150.861 60.4757Z" fill="#4361EE"/>
<path d="M153.71 56.8417L150.077 60.4753L153.71 64.109L157.344 60.4753L153.71 56.8417Z" fill="#4361EE"/>
<path d="M160.31 56.8407L156.677 60.4744L160.31 64.108L163.944 60.4744L160.31 56.8407Z" fill="#4361EE"/>
<path d="M166.793 56.8407L163.159 60.4744L166.793 64.108L170.426 60.4744L166.793 56.8407Z" fill="#4361EE"/>
<path d="M173.275 56.8417L169.642 60.4753L173.275 64.109L176.909 60.4753L173.275 56.8417Z" fill="#4361EE"/>
<path d="M179.757 56.8412L176.123 60.4749L179.757 64.1085L183.391 60.4749L179.757 56.8412Z" fill="#4361EE"/>
<path d="M186.358 56.8407L182.724 60.4744L186.358 64.108L189.991 60.4744L186.358 56.8407Z" fill="#4361EE"/>
<path d="M192.84 56.8417L189.207 60.4753L192.84 64.109L196.474 60.4753L192.84 56.8417Z" fill="#4361EE"/>
<path d="M199.204 56.8412L195.57 60.4749L199.204 64.1085L202.838 60.4749L199.204 56.8412Z" fill="#4361EE"/>
<path d="M205.687 56.8412L202.053 60.4749L205.687 64.1085L209.32 60.4749L205.687 56.8412Z" fill="#4361EE"/>
<path d="M212.287 56.8412L208.653 60.4749L212.287 64.1085L215.92 60.4749L212.287 56.8412Z" fill="#4361EE"/>
<path d="M218.769 56.8412L215.135 60.4749L218.769 64.1085L222.403 60.4749L218.769 56.8412Z" fill="#4361EE"/>
<path d="M225.252 56.8412L221.618 60.4749L225.252 64.1085L228.885 60.4749L225.252 56.8412Z" fill="#4361EE"/>
<path d="M231.734 56.8412L228.101 60.4749L231.734 64.1085L235.368 60.4749L231.734 56.8412Z" fill="#4361EE"/>
<path d="M238.334 56.8412L234.701 60.4749L238.334 64.1085L241.968 60.4749L238.334 56.8412Z" fill="#4361EE"/>
<path d="M245.922 63.0055L244.818 64.1098L241.184 60.4761L244.505 57.1548C244.91 58.2326 245.224 59.343 245.441 60.4738L245.922 63.0055Z" fill="#4361EE"/>
<path d="M157.346 53.758L153.712 57.3917L150.766 54.4451C151.884 53.1436 153.113 51.9409 154.438 50.8503L157.011 53.4233L157.346 53.758Z" fill="#4361EE"/>
<path d="M160.309 50.1232L156.676 53.7568L160.309 57.3905L163.943 53.7568L160.309 50.1232Z" fill="#4361EE"/>
<path d="M166.792 50.1232L163.158 53.7568L166.792 57.3905L170.426 53.7568L166.792 50.1232Z" fill="#4361EE"/>
<path d="M173.275 50.1232L169.641 53.7568L173.275 57.3905L176.908 53.7568L173.275 50.1232Z" fill="#4361EE"/>
<path d="M179.757 50.1232L176.124 53.7568L179.757 57.3905L183.391 53.7568L179.757 50.1232Z" fill="#4361EE"/>
<path d="M186.357 50.1232L182.723 53.7568L186.357 57.3905L189.991 53.7568L186.357 50.1232Z" fill="#4361EE"/>
<path d="M192.84 50.1232L189.206 53.7568L192.84 57.3905L196.473 53.7568L192.84 50.1232Z" fill="#4361EE"/>
<path d="M199.205 50.1227L195.571 53.7563L199.205 57.39L202.839 53.7564L199.205 50.1227Z" fill="#4361EE"/>
<path d="M205.688 50.1237L202.054 53.7573L205.688 57.391L209.321 53.7573L205.688 50.1237Z" fill="#4361EE"/>
<path d="M212.288 50.1232L208.654 53.7568L212.288 57.3905L215.921 53.7568L212.288 50.1232Z" fill="#4361EE"/>
<path d="M218.769 50.1227L215.136 53.7563L218.769 57.39L222.403 53.7564L218.769 50.1227Z" fill="#4361EE"/>
<path d="M225.252 50.1227L221.618 53.7563L225.252 57.39L228.886 53.7564L225.252 50.1227Z" fill="#4361EE"/>
<path d="M231.735 50.1237L228.101 53.7573L231.735 57.391L235.368 53.7573L231.735 50.1237Z" fill="#4361EE"/>
<path d="M238.335 50.1227L234.702 53.7563L238.335 57.39L241.969 53.7564L238.335 50.1227Z" fill="#4361EE"/>
<path d="M244.459 57.034L241.184 53.7586L242.194 52.7485C243.119 54.0807 243.879 55.5196 244.459 57.034Z" fill="#4361EE"/>
<path d="M163.946 46.9221L160.312 50.5558L158.053 48.2987C159.61 47.361 161.25 46.568 162.951 45.9297L163.551 46.5296L163.946 46.9221Z" fill="#4361EE"/>
<path d="M170.429 46.9221L166.795 50.5558L163.161 46.9221L164.771 45.3097C165.837 44.9838 166.921 44.7182 168.017 44.5142L170.033 46.5296L170.429 46.9221Z" fill="#4361EE"/>
<path d="M176.911 46.922L173.277 50.5557L169.644 46.922L172.543 44.0226C172.869 44.0124 173.195 44.0069 173.521 44.0061H173.993L176.516 46.5295L176.911 46.922Z" fill="#4361EE"/>
<path d="M183.392 46.922L179.758 50.5557L176.124 46.922L179.04 44.0061H180.476L183.058 46.5885L183.392 46.922Z" fill="#4361EE"/>
<path d="M189.991 46.922L186.358 50.5557L182.724 46.922L185.64 44.0061H187.075L189.599 46.5295L189.991 46.922Z" fill="#4361EE"/>
<path d="M196.474 46.922L192.84 50.5557L189.207 46.922L192.122 44.0061H193.558L196.023 46.4706L196.474 46.922Z" fill="#4361EE"/>
<path d="M202.839 46.922L199.205 50.5557L195.571 46.922L198.487 44.0061H199.923L202.446 46.5295L202.839 46.922Z" fill="#4361EE"/>
<path d="M209.321 46.922L205.688 50.5557L202.054 46.922L204.97 44.0061H206.405L208.988 46.5885L209.321 46.922Z" fill="#4361EE"/>
<path d="M215.921 46.922L212.288 50.5557L208.654 46.922L211.57 44.0061H213.006L215.529 46.5295L215.921 46.922Z" fill="#4361EE"/>
<path d="M222.404 46.922L218.77 50.5557L215.136 46.922L218.052 44.0061H219.488L222.011 46.5295L222.404 46.922Z" fill="#4361EE"/>
<path d="M228.888 46.922L225.254 50.5557L221.621 46.922L224.537 44.0061H225.501C225.66 44.0061 225.82 44.0061 225.972 44.012L228.888 46.922Z" fill="#4361EE"/>
<path d="M235.371 46.9223L231.737 50.556L228.103 46.9223L230.42 44.6086C231.871 44.9693 233.277 45.4899 234.613 46.1609L235.371 46.9223Z" fill="#4361EE"/>
<path d="M239.391 49.5026L238.551 50.3429L238.335 50.5586L234.702 46.9249L235.035 46.5914L235.17 46.457C236.701 47.2881 238.12 48.3116 239.391 49.5026Z" fill="#4361EE"/>
<path d="M183.392 94.4203L180.09 97.7216L178.05 92.4944L179.758 90.7866L183.392 94.4203Z" fill="#4361EE"/>
<path d="M186.358 90.786L182.724 94.4197L186.358 98.0534L189.991 94.4197L186.358 90.786Z" fill="#4361EE"/>
<path d="M192.84 90.786L189.206 94.4197L192.84 98.0534L196.473 94.4197L192.84 90.786Z" fill="#4361EE"/>
<path d="M199.322 90.7855L195.689 94.4192L199.322 98.0529L202.956 94.4192L199.322 90.7855Z" fill="#4361EE"/>
<path d="M205.805 90.7855L202.171 94.4192L205.805 98.0529L209.439 94.4192L205.805 90.7855Z" fill="#4361EE"/>
<path d="M212.404 90.786L208.771 94.4197L212.404 98.0534L216.038 94.4197L212.404 90.786Z" fill="#4361EE"/>
<path d="M218.888 90.7855L215.254 94.4192L218.888 98.0529L222.521 94.4192L218.888 90.7855Z" fill="#4361EE"/>
<path d="M225.251 90.7855L221.617 94.4192L225.251 98.0529L228.885 94.4192L225.251 90.7855Z" fill="#4361EE"/>
<path d="M231.734 90.7855L228.1 94.4192L231.734 98.0529L235.367 94.4192L231.734 90.7855Z" fill="#4361EE"/>
<path d="M238.335 90.7855L234.702 94.4192L238.335 98.0529L241.969 94.4192L238.335 90.7855Z" fill="#4361EE"/>
<path d="M245.559 91.5284L242.581 95.8174L241.184 94.4208L244.818 90.7859L245.559 91.5284Z" fill="#4361EE"/>
<path d="M176.909 87.5846L176.517 87.9771L176.35 88.1433L176.138 87.5988L176.124 87.5846L176.13 87.5787L175.635 86.3105L176.517 87.1922L176.909 87.5846Z" fill="#4361EE"/>
<path d="M179.758 83.9501L176.124 87.5837L179.758 91.2174L183.392 87.5837L179.758 83.9501Z" fill="#4361EE"/>
<path d="M186.357 83.9496L182.723 87.5833L186.357 91.2169L189.991 87.5833L186.357 83.9496Z" fill="#4361EE"/>
<path d="M192.84 83.9496L189.206 87.5833L192.84 91.2169L196.473 87.5833L192.84 83.9496Z" fill="#4361EE"/>
<path d="M199.322 83.9496L195.688 87.5833L199.322 91.2169L202.956 87.5833L199.322 83.9496Z" fill="#4361EE"/>
<path d="M205.805 83.9491L202.171 87.5828L205.805 91.2164L209.439 87.5828L205.805 83.9491Z" fill="#4361EE"/>
<path d="M212.404 83.9496L208.771 87.5833L212.404 91.2169L216.038 87.5833L212.404 83.9496Z" fill="#4361EE"/>
<path d="M218.887 83.9496L215.254 87.5833L218.887 91.2169L222.521 87.5833L218.887 83.9496Z" fill="#4361EE"/>
<path d="M225.252 83.9501L221.618 87.5837L225.252 91.2174L228.886 87.5837L225.252 83.9501Z" fill="#4361EE"/>
<path d="M231.735 83.9501L228.101 87.5837L231.735 91.2174L235.368 87.5837L231.735 83.9501Z" fill="#4361EE"/>
<path d="M238.335 83.9491L234.702 87.5828L238.335 91.2164L241.969 87.5828L238.335 83.9491Z" fill="#4361EE"/>
<path d="M248.333 87.4665L245.382 91.7826L241.184 87.5843L244.818 83.9495L248.333 87.4665Z" fill="#4361EE"/>
<path d="M176.911 80.8664L174.466 83.312L173.364 80.4833C173.082 79.7198 172.545 79.0772 171.843 78.6647L173.275 77.2327L176.911 80.8664Z" fill="#4361EE"/>
<path d="M179.758 77.2321L176.124 80.8657L179.758 84.4994L183.392 80.8657L179.758 77.2321Z" fill="#4361EE"/>
<path d="M186.358 77.2321L182.724 80.8657L186.358 84.4994L189.991 80.8657L186.358 77.2321Z" fill="#4361EE"/>
<path d="M192.84 77.2321L189.207 80.8657L192.84 84.4994L196.474 80.8657L192.84 77.2321Z" fill="#4361EE"/>
<path d="M199.323 77.2321L195.689 80.8657L199.323 84.4994L202.957 80.8657L199.323 77.2321Z" fill="#4361EE"/>
<path d="M205.804 77.2321L202.17 80.8657L205.804 84.4994L209.438 80.8657L205.804 77.2321Z" fill="#4361EE"/>
<path d="M212.405 77.2321L208.771 80.8657L212.405 84.4994L216.039 80.8657L212.405 77.2321Z" fill="#4361EE"/>
<path d="M218.888 77.2321L215.254 80.8657L218.888 84.4994L222.521 80.8657L218.888 77.2321Z" fill="#4361EE"/>
<path d="M225.252 77.2321L221.618 80.8657L225.252 84.4994L228.885 80.8657L225.252 77.2321Z" fill="#4361EE"/>
<path d="M231.734 77.2316L228.101 80.8652L231.734 84.4989L235.368 80.8652L231.734 77.2316Z" fill="#4361EE"/>
<path d="M238.334 77.2321L234.701 80.8657L238.334 84.4994L241.968 80.8657L238.334 77.2321Z" fill="#4361EE"/>
<path d="M244.816 77.2321L241.182 80.8657L244.816 84.4994L248.45 80.8657L244.816 77.2321Z" fill="#4361EE"/>
<path d="M250.75 83.9492L247.667 80.8659L249.062 79.4705C249.414 80.9067 250.252 82.1768 251.435 83.0653L250.75 83.9492Z" fill="#4361EE"/>
<path d="M173.275 70.3951L169.642 74.0288L173.275 77.6625L176.909 74.0288L173.275 70.3951Z" fill="#4361EE"/>
<path d="M179.758 70.3951L176.124 74.0288L179.758 77.6625L183.392 74.0288L179.758 70.3951Z" fill="#4361EE"/>
<path d="M186.358 70.3956L182.724 74.0293L186.358 77.663L189.991 74.0293L186.358 70.3956Z" fill="#4361EE"/>
<path d="M192.84 70.3951L189.206 74.0288L192.84 77.6625L196.473 74.0288L192.84 70.3951Z" fill="#4361EE"/>
<path d="M199.322 70.3951L195.689 74.0288L199.322 77.6625L202.956 74.0288L199.322 70.3951Z" fill="#4361EE"/>
<path d="M205.805 70.3951L202.171 74.0288L205.805 77.6625L209.439 74.0288L205.805 70.3951Z" fill="#4361EE"/>
<path d="M212.405 70.3951L208.771 74.0288L212.405 77.6625L216.039 74.0288L212.405 70.3951Z" fill="#4361EE"/>
<path d="M218.888 70.3951L215.254 74.0288L218.888 77.6625L222.521 74.0288L218.888 70.3951Z" fill="#4361EE"/>
<path d="M225.251 70.3946L221.617 74.0283L225.251 77.662L228.885 74.0283L225.251 70.3946Z" fill="#4361EE"/>
<path d="M231.734 70.3946L228.1 74.0283L231.734 77.662L235.367 74.0283L231.734 70.3946Z" fill="#4361EE"/>
<path d="M238.335 70.3946L234.702 74.0283L238.335 77.662L241.969 74.0283L238.335 70.3946Z" fill="#4361EE"/>
<path d="M248.088 74.3932L244.818 77.6639L241.184 74.0302L244.818 70.3965L245.092 70.6711L247.917 73.4963L248.059 73.6377L247.962 73.7343L248.088 74.3932Z" fill="#4361EE"/>
<path d="M248.101 74.4651L247.667 74.0302L247.962 73.7344L248.088 74.3932L248.101 74.4651Z" fill="#4361EE"/>
<path d="M189.991 108.092L188.022 110.061H184.909L183.742 107.074L186.358 104.458L189.991 108.092Z" fill="#4361EE"/>
<path d="M196.474 108.092L194.504 110.061H191.176L189.207 108.092L192.84 104.458L196.474 108.092Z" fill="#4361EE"/>
<path d="M202.957 108.092L200.987 110.061H197.659L195.689 108.092L199.323 104.458L202.957 108.092Z" fill="#4361EE"/>
<path d="M209.439 108.092L207.469 110.061H204.141L202.171 108.092L205.805 104.458L209.439 108.092Z" fill="#4361EE"/>
<path d="M216.04 108.092L214.07 110.061H210.742L208.772 108.092L212.406 104.458L216.04 108.092Z" fill="#4361EE"/>
<path d="M222.522 108.092L220.552 110.061H217.224L215.254 108.092L218.888 104.458L222.522 108.092Z" fill="#4361EE"/>
<path d="M228.886 108.092L226.916 110.061H223.588L221.618 108.092L225.252 104.458L228.886 108.092Z" fill="#4361EE"/>
<path d="M234.595 107.32L232.702 110.066L230.071 110.061L228.101 108.092L231.735 104.458L234.595 107.32Z" fill="#4361EE"/>
<path d="M183.391 101.257L182.01 102.638L180.241 98.1062L183.058 100.923L183.391 101.257Z" fill="#4361EE"/>
<path d="M186.358 97.6219L182.724 101.256L186.358 104.889L189.991 101.256L186.358 97.6219Z" fill="#4361EE"/>
<path d="M192.84 97.6219L189.207 101.256L192.84 104.889L196.474 101.256L192.84 97.6219Z" fill="#4361EE"/>
<path d="M199.323 97.6219L195.689 101.256L199.323 104.889L202.957 101.256L199.323 97.6219Z" fill="#4361EE"/>
<path d="M205.804 97.6219L202.17 101.256L205.804 104.889L209.438 101.256L205.804 97.6219Z" fill="#4361EE"/>
<path d="M212.405 97.6219L208.771 101.256L212.405 104.889L216.039 101.256L212.405 97.6219Z" fill="#4361EE"/>
<path d="M218.888 97.6219L215.254 101.256L218.888 104.889L222.521 101.256L218.888 97.6219Z" fill="#4361EE"/>
<path d="M225.252 97.6215L221.618 101.255L225.252 104.889L228.885 101.255L225.252 97.6215Z" fill="#4361EE"/>
<path d="M231.734 97.621L228.101 101.255L231.734 104.888L235.368 101.255L231.734 97.621Z" fill="#4361EE"/>
<path d="M237.124 103.679L234.702 101.257L238.335 97.6218L240.102 99.3886L237.124 103.679Z" fill="#4361EE"/>
<path d="M124.816 94.4203L124.424 94.8128L124.088 95.1487C124.139 94.9778 124.192 94.8069 124.248 94.6372C124.312 94.4415 124.378 94.247 124.449 94.0479L124.816 94.4203Z" fill="#4361EE"/>
<path d="M131.299 94.4203L127.665 98.054L124.247 94.636C124.31 94.4404 124.376 94.2459 124.447 94.0467L124.422 94.022L124.475 93.9689L127.448 90.9965L127.664 90.7808L131.299 94.4203Z" fill="#4361EE"/>
<path d="M134.262 90.786L130.628 94.4197L134.262 98.0534L137.896 94.4197L134.262 90.786Z" fill="#4361EE"/>
<path d="M140.745 90.786L137.111 94.4197L140.745 98.0534L144.379 94.4197L140.745 90.786Z" fill="#4361EE"/>
<path d="M147.227 90.786L143.594 94.4197L147.227 98.0534L150.861 94.4197L147.227 90.786Z" fill="#4361EE"/>
<path d="M157.286 94.3626L157.201 94.4887C157.161 94.55 157.125 94.6065 157.092 94.6725L153.71 98.054L150.077 94.4203L153.71 90.7866L157.011 94.0868L157.286 94.3626Z" fill="#4361EE"/>
<path d="M158.387 92.7102L157.286 94.3603L157.201 94.4864C157.161 94.5477 157.125 94.6043 157.092 94.6703C157.073 94.7056 157.054 94.7422 157.037 94.7787L156.677 94.418L158.387 92.7102Z" fill="#4361EE"/>
<path d="M131.299 87.5843L127.665 91.218L126.411 89.9639C126.607 89.641 126.813 89.3204 127.03 89.0022L129.332 85.6172L131.299 87.5843Z" fill="#4361EE"/>
<path d="M134.262 83.9501L130.628 87.5837L134.262 91.2174L137.896 87.5837L134.262 83.9501Z" fill="#4361EE"/>
<path d="M140.745 83.9496L137.111 87.5833L140.745 91.2169L144.378 87.5833L140.745 83.9496Z" fill="#4361EE"/>
<path d="M147.227 83.9496L143.593 87.5833L147.227 91.2169L150.86 87.5833L147.227 83.9496Z" fill="#4361EE"/>
<path d="M153.709 83.9496L150.076 87.5833L153.709 91.2169L157.343 87.5833L153.709 83.9496Z" fill="#4361EE"/>
<path d="M162.659 86.2994L159.753 90.6603L156.677 87.5841L160.31 83.9504L162.659 86.2994Z" fill="#4361EE"/>
<path d="M137.896 80.8664L134.263 84.5001L131.779 82.0167L134.721 77.6912L137.896 80.8664Z" fill="#4361EE"/>
<path d="M140.745 77.2311L137.111 80.8647L140.745 84.4984L144.379 80.8648L140.745 77.2311Z" fill="#4361EE"/>
<path d="M147.228 77.2321L143.594 80.8657L147.228 84.4994L150.861 80.8657L147.228 77.2321Z" fill="#4361EE"/>
<path d="M153.71 77.2321L150.077 80.8657L153.71 84.4994L157.344 80.8657L153.71 77.2321Z" fill="#4361EE"/>
<path d="M160.31 77.2311L156.677 80.8647L160.31 84.4984L163.944 80.8648L160.31 77.2311Z" fill="#4361EE"/>
<path d="M168.202 78.6411C167.728 78.9184 167.325 79.3011 167.023 79.7596L165.033 82.7391L163.159 80.8651L166.793 77.2314L168.202 78.6411Z" fill="#4361EE"/>
<path d="M140.113 69.7639L144.379 74.0305L140.745 77.6642L137.171 74.0895L140.113 69.7639Z" fill="#4361EE"/>
<path d="M147.227 70.3951L143.594 74.0288L147.227 77.6625L150.861 74.0288L147.227 70.3951Z" fill="#4361EE"/>
<path d="M153.71 70.3951L150.076 74.0288L153.71 77.6625L157.344 74.0288L153.71 70.3951Z" fill="#4361EE"/>
<path d="M160.31 70.3956L156.676 74.0293L160.31 77.663L163.944 74.0293L160.31 70.3956Z" fill="#4361EE"/>
<path d="M166.792 70.3956L163.158 74.0293L166.792 77.663L170.426 74.0293L166.792 70.3956Z" fill="#4361EE"/>
<path d="M124.816 108.093L124.609 108.299C124.527 108.118 124.448 107.934 124.374 107.749C124.349 107.695 124.328 107.639 124.305 107.584L124.816 108.093Z" fill="#4361EE"/>
<path d="M124.373 107.748L127.663 104.458L131.296 108.092L127.151 112.237L124.373 107.748Z" fill="#4361EE"/>
<path d="M134.262 104.457L130.629 108.091L134.262 111.725L137.896 108.091L134.262 104.457Z" fill="#4361EE"/>
<path d="M140.745 104.457L137.111 108.091L140.745 111.725L144.379 108.091L140.745 104.457Z" fill="#4361EE"/>
<path d="M137.899 115.046L135.63 117.315C134.022 116.94 132.482 116.32 131.063 115.478L130.631 115.046L134.265 111.413L137.899 115.046Z" fill="#4361EE"/>
<path d="M144.379 115.046L143.923 115.502L141.684 117.741H139.806L137.111 115.046L140.745 111.413L140.902 111.569L144.335 115.003L144.379 115.046Z" fill="#4361EE"/>
<path d="M150.403 107.633L147.12 111.618L143.594 108.092L147.228 104.458L150.403 107.633Z" fill="#4361EE"/>
<path d="M124.816 101.256L124.424 101.649L123.245 102.827C123.169 101.782 123.169 100.732 123.245 99.6863L124.424 100.865L124.816 101.256Z" fill="#4361EE"/>
<path d="M127.663 97.6219L124.029 101.256L127.663 104.889L131.296 101.256L127.663 97.6219Z" fill="#4361EE"/>
<path d="M134.262 97.621L130.629 101.255L134.262 104.888L137.896 101.255L134.262 97.621Z" fill="#4361EE"/>
<path d="M140.745 97.6219L137.111 101.256L140.745 104.889L144.379 101.256L140.745 97.6219Z" fill="#4361EE"/>
<path d="M147.228 97.6219L143.594 101.256L147.228 104.889L150.861 101.256L147.228 97.6219Z" fill="#4361EE"/>
<path d="M156.418 100.33L153.136 104.316L150.077 101.256L153.71 97.6226L153.926 97.8382L156.418 100.33Z" fill="#4361EE"/>
<path d="M232.681 110.062V72.1624" stroke="#191D3A" stroke-width="0.589311" stroke-linecap="round" stroke-linejoin="round"/>
<path d="M208.208 43.6528V69.223L196.789 43.6528H208.208Z" fill="#191D3A"/>
<path d="M216.119 44.3595H208.209V39.0439C209.669 39.0687 211.068 39.6349 212.135 40.6327L216.119 44.3595Z" fill="#7EBAD2"/>
<path d="M197.142 44.3597L195.874 40.7696C195.695 40.2651 195.365 39.8282 194.928 39.5191C194.491 39.2099 193.969 39.0436 193.433 39.043H183.721C182.226 39.043 180.787 39.6114 179.695 40.6329L175.711 44.3597H197.142Z" fill="#7EBAD2"/>
<path d="M190.804 44.3598L194.237 40.2511C194.339 40.131 194.471 40.0398 194.619 39.9865C194.767 39.9332 194.927 39.9197 195.082 39.9474C195.237 39.975 195.382 40.0429 195.503 40.1442C195.623 40.2455 195.715 40.3766 195.769 40.5246L197.143 44.3598H190.804Z" fill="#191D3A"/>
<path d="M214.442 67.1738H225.967V74.1819C225.966 74.6384 225.785 75.0761 225.462 75.3988C225.139 75.7214 224.701 75.9027 224.245 75.9027H216.159C215.703 75.9027 215.265 75.7213 214.942 75.3983C214.619 75.0754 214.438 74.6374 214.438 74.1807V67.1738H214.442Z" fill="white" stroke="#191D3A" stroke-width="0.589311" stroke-linecap="round" stroke-linejoin="round"/>
<path d="M225.967 64.8257H214.442V67.1735H225.967V64.8257Z" fill="white" stroke="#191D3A" stroke-width="0.589311" stroke-linecap="round" stroke-linejoin="round"/>
<path d="M241.601 275.638H210.937C208.371 275.638 206.257 273.586 205.973 271.097H210.529C212.162 271.097 213.78 270.79 215.299 270.192L220.07 268.313C222.937 267.185 225.99 266.606 229.07 266.606H232.688L241.601 275.638Z" fill="#191D3A"/>
<path d="M161.943 275.636H124.735C123.519 275.636 122.347 275.183 121.448 274.365C120.549 273.547 119.987 272.423 119.873 271.213H130.993C132.626 271.213 134.244 270.906 135.763 270.308L140.534 268.429C143.401 267.301 146.454 266.722 149.534 266.722H153.387L161.943 275.636Z" fill="#191D3A"/>
<path d="M232.689 266.604H229.072C225.991 266.604 222.938 267.183 220.072 268.311L215.301 270.189C213.781 270.787 212.163 271.094 210.531 271.095H205.974C205.952 270.904 205.941 270.713 205.941 270.521V145.487C205.941 144.316 204.332 143.996 203.883 145.076L153.388 266.722H149.535C146.454 266.722 143.401 267.301 140.535 268.429L135.764 270.307C134.245 270.905 132.627 271.212 130.994 271.213H119.874C119.802 270.431 119.92 269.645 120.218 268.919L184.91 110.062H232.683V266.604H232.689Z" fill="#666B96"/>
<path d="M232.683 110.061V116.072H182.462L184.91 110.061H232.683Z" stroke="#191D3A" stroke-width="0.589311" stroke-linecap="round" stroke-linejoin="round"/>
<path d="M213.101 110.061H208.427C208.048 110.061 207.741 110.368 207.741 110.747V115.421C207.741 115.8 208.048 116.107 208.427 116.107H213.101C213.48 116.107 213.787 115.8 213.787 115.421V110.747C213.787 110.368 213.48 110.061 213.101 110.061Z" stroke="#191D3A" stroke-width="0.589311" stroke-linecap="round" stroke-linejoin="round"/>
<path d="M207.741 113.066H210.764" stroke="#191D3A" stroke-width="0.589311" stroke-linecap="round" stroke-linejoin="round"/>
<path d="M224.704 110.061H223.4V116.072H224.704V110.061Z" stroke="#191D3A" stroke-width="0.589311" stroke-linecap="round" stroke-linejoin="round"/>
<path d="M197.831 110.061H196.528V116.072H197.831V110.061Z" stroke="#191D3A" stroke-width="0.589311" stroke-linecap="round" stroke-linejoin="round"/>
<path d="M216.236 44.0066L171.663 127.924H177.145L221.256 44.0066H216.236Z" fill="white" stroke="#191D3A" stroke-width="0.589311" stroke-linecap="round" stroke-linejoin="round"/>
<path d="M177.383 127.89L163.546 161.707C163.147 162.69 162.463 163.532 161.582 164.125C160.702 164.717 159.664 165.033 158.603 165.033H144.403C143.802 165.035 143.21 164.888 142.679 164.607C142.147 164.326 141.693 163.919 141.356 163.422C141.018 162.925 140.808 162.352 140.743 161.755C140.679 161.157 140.762 160.553 140.985 159.995L152.577 131.236C152.972 130.247 153.655 129.398 154.538 128.8C155.42 128.202 156.461 127.883 157.527 127.882L177.383 127.89Z" fill="white" stroke="#191D3A" stroke-width="0.589311" stroke-linecap="round" stroke-linejoin="round"/>
<path d="M177.383 127.925L163.746 161.489C163.353 162.459 162.68 163.289 161.813 163.873C160.946 164.458 159.924 164.771 158.878 164.772H153.25C152.659 164.772 152.076 164.627 151.553 164.349C151.03 164.072 150.583 163.671 150.252 163.18C149.92 162.69 149.713 162.126 149.65 161.538C149.586 160.95 149.668 160.355 149.888 159.805L161.312 131.234C161.702 130.258 162.376 129.422 163.246 128.832C164.116 128.243 165.143 127.928 166.194 127.928L177.383 127.925Z" fill="white" stroke="#191D3A" stroke-width="0.589311" stroke-linecap="round" stroke-linejoin="round"/>
<path d="M171.489 127.925L171.155 128.744" stroke="#191D3A" stroke-width="0.589311" stroke-miterlimit="10" stroke-linecap="round"/>
<path d="M170.49 130.382L157.852 161.49C157.571 162.181 157.146 162.805 156.606 163.319C156.065 163.834 155.422 164.227 154.717 164.474" stroke="#191D3A" stroke-width="0.589311" stroke-miterlimit="10" stroke-linecap="round" stroke-dasharray="1.77 1.77"/>
<path d="M153.86 164.694C153.569 164.743 153.275 164.768 152.98 164.768" stroke="#191D3A" stroke-width="0.589311" stroke-miterlimit="10" stroke-linecap="round"/>
<path d="M157.913 139.543H149.335" stroke="#191D3A" stroke-width="0.589311" stroke-miterlimit="10" stroke-linecap="round"/>
<path d="M257.671 86.6301C254.704 87.7758 251.029 92.8203 248.789 99.3027C245.99 107.405 246.314 114.868 249.497 115.971C250.031 116.146 250.607 116.155 251.147 115.997L252.164 115.549C251.641 116.183 250.984 116.694 250.241 117.046C249.498 117.397 248.686 117.58 247.864 117.581H240.822C236.674 117.581 232.706 114.387 232.7 110.239C232.692 104.464 238.829 85.857 251.086 82.4779C255.239 81.3334 261.059 82.4484 261.516 85.6377L257.671 86.6301Z" fill="#191D3A"/>
<path d="M312.045 90.703H297.071C296.815 90.7029 296.564 90.6362 296.343 90.5096C296.121 90.383 295.936 90.2008 295.806 89.981C295.676 89.7611 295.606 89.5112 295.602 89.2559C295.598 89.0006 295.66 88.7487 295.784 88.5249L305.492 70.8986C305.758 70.4154 306.149 70.0126 306.625 69.7321C307.1 69.4516 307.641 69.3037 308.193 69.304H323.162C323.417 69.3041 323.668 69.3707 323.89 69.4973C324.111 69.624 324.296 69.8062 324.426 70.026C324.556 70.2458 324.627 70.4957 324.631 70.751C324.634 71.0064 324.572 71.2583 324.449 71.482L314.746 89.1048C314.48 89.5887 314.089 89.9922 313.614 90.2734C313.139 90.5545 312.597 90.7029 312.045 90.703V90.703Z" stroke="#191D3A" stroke-width="0.589311" stroke-miterlimit="10"/>
<path d="M310.119 81.8054L313.699 90.2184" stroke="#191D3A" stroke-width="0.589311" stroke-miterlimit="10"/>
<path d="M323.634 69.3018L311.03 77.8798" stroke="#191D3A" stroke-width="0.589311" stroke-miterlimit="10"/>
<path d="M306.591 69.7522L311.458 78.5223C311.732 79.0161 311.805 79.5964 311.662 80.1426C311.519 80.6889 311.17 81.1588 310.689 81.4547L296.164 90.391" stroke="#191D3A" stroke-width="0.589311" stroke-miterlimit="10"/>
<path d="M251.147 115.999C250.607 116.157 250.032 116.148 249.497 115.973C246.304 114.869 245.986 107.406 248.79 99.3046C251.029 92.8222 254.704 87.7777 257.672 86.6321L293.811 77.2644C294.497 76.9473 296.539 76.9014 297.296 76.9014H306.66V77.4565C306.66 78.2025 306.398 78.9248 305.918 79.4964C305.439 80.0681 304.773 80.4525 304.039 80.5822L301.664 81.1963C301.169 81.2835 300.7 81.4812 300.292 81.7746C299.884 82.068 299.547 82.4497 299.306 82.8911L296.322 89.0812C295.841 89.9628 296.479 90.683 297.483 90.683H308.101C308.101 90.683 304.936 96.892 294.059 99.1997L287.157 100.148L251.147 115.999Z" fill="white" stroke="#191D3A" stroke-width="0.589311" stroke-linecap="round" stroke-linejoin="round"/>
<path d="M298.165 85.2563C296.735 87.8222 294.307 91.1082 291.113 91.483" stroke="#191D3A" stroke-width="0.589311" stroke-miterlimit="10" stroke-linecap="round"/>
<path d="M283.891 97.8269C284.283 98.5874 284.902 99.2064 285.663 99.5972C286.424 99.988 287.288 100.131 288.134 100.006" stroke="#191D3A" stroke-width="0.589311" stroke-miterlimit="10" stroke-linecap="round"/>
<path d="M143.031 118.333H137.138C131.417 118.333 127.753 111.662 130.42 106.601C131.854 103.878 133.856 101.101 136.101 98.6339C143.504 90.5014 153.364 87.4181 158.129 91.7531C159.072 92.6159 159.877 94.2577 159.877 96.9072L143.031 118.333Z" fill="#191D3A"/>
<path d="M142.741 118.078C140.755 116.395 142.868 109.575 147.455 104.154C150.767 100.244 154.585 97.5169 157.202 96.93C157.403 96.9123 157.595 96.9041 157.779 96.9041H168.622C173.063 96.9037 177.425 98.0806 181.263 100.315L189.006 104.821C189.948 105.403 190.725 106.217 191.265 107.184C191.804 108.151 192.087 109.24 192.087 110.347V120.809C192.087 122.164 191.588 123.472 190.684 124.482C189.78 125.492 188.536 126.133 187.189 126.284L179.47 127.144V125.474C179.47 124.997 179.588 124.528 179.815 124.108C180.041 123.689 180.368 123.332 180.767 123.071L182.625 122.058C182.706 122.014 182.769 121.945 182.806 121.861C182.842 121.777 182.85 121.683 182.827 121.594C182.804 121.505 182.753 121.427 182.68 121.371C182.608 121.314 182.519 121.284 182.427 121.284H180.095C176.882 121.284 174.387 120.38 172.09 118.133L145.551 118.093L142.741 118.078Z" fill="white" stroke="#191D3A" stroke-width="0.589311" stroke-linecap="round" stroke-linejoin="round"/>
<path d="M184.591 110.926L188.763 113.508C189.704 114.091 190.482 114.904 191.021 115.871C191.56 116.838 191.842 117.927 191.843 119.034V122.271" stroke="#191D3A" stroke-width="0.589311" stroke-miterlimit="10" stroke-linecap="round"/>
<path d="M184.591 106.565L188.763 109.147C189.705 109.73 190.483 110.545 191.022 111.513C191.561 112.481 191.843 113.572 191.843 114.68V118.859" stroke="#191D3A" stroke-width="0.589311" stroke-miterlimit="10" stroke-linecap="round"/>
<path d="M191.708 122.695C191.354 120.727 190.411 119.196 188.879 118.249L184.707 115.665" stroke="#191D3A" stroke-width="0.589311" stroke-miterlimit="10" stroke-linecap="round"/>
<path d="M171.293 115.131C171.293 116.031 171.531 116.915 171.983 117.692C172.436 118.47 173.086 119.114 173.868 119.558" stroke="#191D3A" stroke-width="0.589311" stroke-miterlimit="10" stroke-linecap="round"/>
<path d="M353.168 276.226C353.168 274.636 353.481 273.062 354.089 271.594C354.697 270.125 355.589 268.791 356.713 267.667C357.837 266.543 359.171 265.652 360.639 265.044C362.108 264.435 363.682 264.122 365.271 264.123H365.41C361.445 258.701 359.067 251.846 359.035 244.393C358.959 226.62 372.093 212.261 388.465 212.223C403.055 212.19 415.183 223.656 417.587 238.742C421.286 235.719 425.825 234.175 430.731 234.175C443.178 234.175 453.268 245.403 453.268 259.545C453.268 265.43 451.286 271.794 448.346 276.117L353.168 276.226Z" fill="#FED4C7"/>
<path d="M327.753 135.83C330.074 135.829 332.357 135.233 334.381 134.098C336.406 132.963 338.106 131.327 339.318 129.348L346.368 117.844H327.286L322.269 126.031C319.642 130.322 322.726 135.83 327.753 135.83Z" fill="#FED4C7"/>
<path d="M378.874 99.3793V115.964H346.58V99.3793C346.58 96.5476 345.542 93.8141 343.662 91.6964C341.782 89.5788 339.191 88.2241 336.379 87.8889C336.833 87.8344 337.29 87.8073 337.747 87.8076H367.305C370.373 87.8082 373.316 89.0277 375.486 91.1977C377.655 93.3678 378.874 96.3107 378.874 99.3793V99.3793Z" stroke="#191D3A" stroke-width="0.589311" stroke-linejoin="round"/>
<path d="M346.579 99.4004V116.2H326.17V99.4004C326.17 94.1543 329.572 89.7121 334.264 88.2176C335.637 87.7803 337.112 87.7803 338.485 88.2176C343.177 89.7121 346.579 94.1543 346.579 99.4004Z" stroke="#191D3A" stroke-width="0.589311" stroke-linejoin="round"/>
<path d="M326.17 99.4004C326.17 94.1543 329.572 89.7121 334.264 88.2176C335.637 87.7803 337.112 87.7803 338.485 88.2176C343.177 89.7121 346.579 94.1543 346.579 99.4004V113.843L326.17 99.4004Z" fill="#191D3A"/>
<path d="M346.58 115.964V275.637" stroke="#191D3A" stroke-width="0.589311" stroke-miterlimit="10"/>
<path d="M326.669 135.43C329.152 135.431 331.594 134.794 333.761 133.582C335.928 132.369 337.747 130.62 339.045 128.503L346.588 116.2H326.17L320.803 124.956C317.992 129.539 321.292 135.43 326.669 135.43Z" stroke="#191D3A" stroke-width="0.589311" stroke-linejoin="round"/>
<path d="M359.868 78.7742H352.829V81.9235H359.868V78.7742Z" fill="#7EBAD2"/>
<path d="M352.829 106.813V78.7622" stroke="#191D3A" stroke-width="0.589311" stroke-miterlimit="10"/>
<path d="M353.141 106.931V88.1992H357.624L353.141 106.931Z" fill="#FED4C7"/>
<path d="M318.034 275.924V206.312C318.042 202.579 319.511 198.998 322.128 196.336C324.744 193.673 328.299 192.142 332.032 192.07C335.764 191.997 339.376 193.39 342.093 195.95C344.811 198.509 346.417 202.031 346.569 205.761C346.577 205.943 346.581 206.127 346.581 206.312V275.924" stroke="#191D3A" stroke-width="0.589311" stroke-miterlimit="10" stroke-linecap="round"/>
<path d="M346.556 275.924V206.312C346.556 206.127 346.556 205.943 346.568 205.76C346.72 202.031 348.326 198.509 351.044 195.949C353.761 193.39 357.373 191.997 361.105 192.069C364.838 192.141 368.393 193.673 371.01 196.335C373.626 198.998 375.095 202.579 375.103 206.312V275.924" stroke="#191D3A" stroke-width="0.589311" stroke-miterlimit="10" stroke-linecap="round"/>
<path d="M375.103 275.924V206.312C375.11 202.579 376.579 198.998 379.196 196.335C381.812 193.673 385.368 192.141 389.1 192.069C392.832 191.997 396.444 193.39 399.162 195.949C401.879 198.509 403.486 202.031 403.637 205.76C403.645 205.943 403.649 206.127 403.649 206.312V275.924" stroke="#191D3A" stroke-width="0.589311" stroke-miterlimit="10" stroke-linecap="round"/>
<path d="M403.625 275.924V206.312C403.625 206.127 403.625 205.943 403.637 205.76C403.789 202.031 405.395 198.509 408.113 195.949C410.83 193.39 414.442 191.997 418.174 192.069C421.906 192.141 425.462 193.673 428.078 196.335C430.695 198.998 432.164 202.579 432.171 206.312V275.924" stroke="#191D3A" stroke-width="0.589311" stroke-miterlimit="10" stroke-linecap="round"/>
<path d="M318.034 259.467C318.036 255.754 319.486 252.187 322.075 249.525C324.664 246.863 328.189 245.315 331.901 245.209C335.614 245.104 339.221 246.449 341.957 248.96C344.693 251.471 346.343 254.949 346.557 258.657" stroke="#191D3A" stroke-width="0.589311" stroke-miterlimit="10" stroke-linecap="round"/>
<path d="M346.58 258.657C346.793 254.949 348.443 251.471 351.179 248.96C353.916 246.449 357.523 245.104 361.235 245.209C364.947 245.315 368.472 246.863 371.061 249.525C373.65 252.187 375.1 255.754 375.102 259.467" stroke="#191D3A" stroke-width="0.589311" stroke-miterlimit="10" stroke-linecap="round"/>
<path d="M375.103 259.467C375.105 255.754 376.555 252.187 379.144 249.525C381.733 246.863 385.258 245.315 388.97 245.209C392.682 245.104 396.29 246.449 399.026 248.96C401.762 251.471 403.412 254.949 403.625 258.657" stroke="#191D3A" stroke-width="0.589311" stroke-miterlimit="10" stroke-linecap="round"/>
<path d="M403.649 258.657C403.862 254.949 405.512 251.471 408.248 248.96C410.985 246.449 414.592 245.104 418.304 245.209C422.016 245.315 425.541 246.863 428.13 249.525C430.719 252.187 432.169 255.754 432.171 259.467" stroke="#191D3A" stroke-width="0.589311" stroke-miterlimit="10" stroke-linecap="round"/>
<path d="M432.148 275.924V206.312C432.148 206.127 432.148 205.943 432.159 205.76C432.311 202.031 433.918 198.509 436.635 195.949C439.353 193.39 442.964 191.997 446.697 192.069C450.429 192.141 453.984 193.673 456.601 196.335C459.217 198.998 460.687 202.579 460.694 206.312V275.924" stroke="#191D3A" stroke-width="0.589311" stroke-miterlimit="10" stroke-linecap="round"/>
<path d="M432.171 258.657C432.384 254.949 434.034 251.471 436.771 248.96C439.507 246.449 443.114 245.104 446.826 245.209C450.538 245.315 454.063 246.863 456.653 249.525C459.242 252.187 460.691 255.754 460.694 259.467" stroke="#191D3A" stroke-width="0.589311" stroke-miterlimit="10" stroke-linecap="round"/>
<path d="M318.034 219.205H460.694" stroke="#191D3A" stroke-width="0.589311" stroke-miterlimit="10" stroke-linecap="round"/>
<path d="M367.039 275.924H472.593" stroke="#191D3A" stroke-width="0.589311" stroke-miterlimit="10" stroke-linecap="round"/>
<path d="M403.62 275.636C400.858 275.636 398.619 273.584 398.619 271.053C398.619 268.521 400.858 266.468 403.62 266.468C404.138 266.467 404.654 266.54 405.152 266.686C405.164 265.208 405.544 263.757 406.258 262.463C406.972 261.17 407.998 260.075 409.242 259.277C410.485 258.48 411.909 258.005 413.382 257.896C414.856 257.787 416.333 258.048 417.681 258.653C417.843 258.028 418.13 257.443 418.524 256.931C418.919 256.419 419.412 255.992 419.975 255.676C420.538 255.359 421.159 255.16 421.801 255.088C422.443 255.017 423.092 255.077 423.711 255.262C424.329 255.448 424.904 255.757 425.401 256.17C425.897 256.583 426.305 257.092 426.6 257.666C426.896 258.241 427.072 258.869 427.119 259.513C427.166 260.157 427.083 260.804 426.874 261.415C427.093 261.387 427.313 261.373 427.534 261.374C428.912 261.374 430.235 261.919 431.213 262.891C432.191 263.862 432.744 265.181 432.753 266.56C433.396 266.23 434.105 266.049 434.828 266.032C435.55 266.014 436.267 266.159 436.925 266.457C437.584 266.755 438.166 267.198 438.63 267.753C439.093 268.307 439.426 268.959 439.602 269.66C439.779 270.36 439.795 271.092 439.65 271.8C439.504 272.508 439.201 273.174 438.762 273.748C438.324 274.322 437.761 274.79 437.117 275.117C436.472 275.444 435.762 275.621 435.039 275.635H403.62V275.636Z" fill="#7EBAD2"/>
<path d="M412.551 262.285C413.136 262.285 413.611 261.81 413.611 261.224C413.611 260.638 413.136 260.164 412.551 260.164C411.965 260.164 411.49 260.638 411.49 261.224C411.49 261.81 411.965 262.285 412.551 262.285Z" fill="white"/>
<path d="M415.829 256.605C416.643 256.605 417.302 255.946 417.302 255.132C417.302 254.318 416.643 253.659 415.829 253.659C415.015 253.659 414.356 254.318 414.356 255.132C414.356 255.946 415.015 256.605 415.829 256.605Z" fill="#7EBAD2"/>
<path d="M396.461 269.536C397.437 269.536 398.229 268.745 398.229 267.768C398.229 266.792 397.437 266 396.461 266C395.485 266 394.693 266.792 394.693 267.768C394.693 268.745 395.485 269.536 396.461 269.536Z" fill="#7EBAD2"/>
<path d="M403.981 271.129C404.567 271.129 405.043 270.654 405.043 270.067C405.043 269.481 404.567 269.005 403.981 269.005C403.394 269.005 402.919 269.481 402.919 270.067C402.919 270.654 403.394 271.129 403.981 271.129Z" fill="white"/>
<path d="M415.078 266C415.892 266 416.552 265.34 416.552 264.526C416.552 263.713 415.892 263.053 415.078 263.053C414.265 263.053 413.605 263.713 413.605 264.526C413.605 265.34 414.265 266 415.078 266Z" fill="white"/>
<path d="M427.886 267.126C428.7 267.126 429.359 266.466 429.359 265.652C429.359 264.839 428.7 264.179 427.886 264.179C427.072 264.179 426.413 264.839 426.413 265.652C426.413 266.466 427.072 267.126 427.886 267.126Z" fill="white"/>
<path d="M422.612 272.469C423.198 272.469 423.674 271.993 423.674 271.407C423.674 270.82 423.198 270.345 422.612 270.345C422.025 270.345 421.55 270.82 421.55 271.407C421.55 271.993 422.025 272.469 422.612 272.469Z" fill="white"/>
<path d="M443.972 275.518C445.477 275.518 446.697 274.298 446.697 272.793C446.697 271.288 445.477 270.068 443.972 270.068C442.467 270.068 441.247 271.288 441.247 272.793C441.247 274.298 442.467 275.518 443.972 275.518Z" fill="#7EBAD2"/>
<path d="M76.0613 121.795H37.4438C34.1989 121.795 31.5684 124.425 31.5684 127.67V161.414C31.5684 164.659 34.1989 167.289 37.4438 167.289H76.0613C79.3062 167.289 81.9367 164.659 81.9367 161.414V127.67C81.9367 124.425 79.3062 121.795 76.0613 121.795Z" fill="#7EBAD2"/>
<path d="M68.7537 122.125H36.0292C32.7843 122.125 30.1538 124.756 30.1538 128V161.084C30.1538 164.329 32.7843 166.96 36.0292 166.96H68.7537C71.9986 166.96 74.6291 164.329 74.6291 161.084V128C74.6291 124.756 71.9986 122.125 68.7537 122.125Z" fill="white" stroke="#191D3A" stroke-width="0.589311" stroke-linecap="round" stroke-linejoin="round"/>
<path d="M59.9401 138.501H44.6793C43.9476 138.501 43.3545 139.094 43.3545 139.826V149.22C43.3545 149.952 43.9476 150.545 44.6793 150.545H59.9401C60.6717 150.545 61.2648 149.952 61.2648 149.22V139.826C61.2648 139.094 60.6717 138.501 59.9401 138.501Z" stroke="#191D3A" stroke-width="0.589311" stroke-miterlimit="10" stroke-linecap="round"/>
<path d="M61.266 139.857L53.2113 144.796C52.94 144.962 52.6282 145.049 52.3103 145.049C51.9923 145.049 51.6804 144.962 51.4092 144.796L43.3545 139.857" stroke="#191D3A" stroke-width="0.589311" stroke-miterlimit="10" stroke-linecap="round"/>
<path d="M54.9048 145.739L61.0301 149.882" stroke="#191D3A" stroke-width="0.589311" stroke-miterlimit="10" stroke-linecap="round"/>
<path d="M43.5898 149.882L49.7151 145.739" stroke="#191D3A" stroke-width="0.589311" stroke-miterlimit="10" stroke-linecap="round"/>
<path d="M30.1538 128H81.9377" stroke="#191D3A" stroke-width="0.589311" stroke-miterlimit="10" stroke-linecap="round"/>
<path d="M277.492 275.925H15.5605" stroke="#191D3A" stroke-width="0.589311" stroke-miterlimit="10" stroke-linecap="round"/>
<path d="M63.8586 282.707H241.789" stroke="#191D3A" stroke-width="0.589311" stroke-miterlimit="10" stroke-linecap="round"/>
<path d="M246.598 275.519C274.556 275.519 297.222 252.854 297.222 224.895C297.222 196.936 274.556 174.271 246.598 174.271C218.639 174.271 195.973 196.936 195.973 224.895C195.973 252.854 218.639 275.519 246.598 275.519Z" stroke="#4361EE" stroke-width="0.589311" stroke-miterlimit="10"/>
<path d="M246.598 272.04C272.635 272.04 293.743 250.933 293.743 224.895C293.743 198.858 272.635 177.75 246.598 177.75C220.56 177.75 199.453 198.858 199.453 224.895C199.453 250.933 220.56 272.04 246.598 272.04Z" stroke="#4361EE" stroke-width="0.589311" stroke-miterlimit="10"/>
<path d="M50.9191 275.52C78.878 275.52 101.543 252.855 101.543 224.896C101.543 196.937 78.878 174.271 50.9191 174.271C22.9601 174.271 0.294922 196.937 0.294922 224.896C0.294922 252.855 22.9601 275.52 50.9191 275.52Z" stroke="#4361EE" stroke-width="0.589311" stroke-miterlimit="10"/>
<path d="M50.919 272.04C76.9564 272.04 98.0639 250.933 98.0639 224.895C98.0639 198.858 76.9564 177.75 50.919 177.75C24.8816 177.75 3.77417 198.858 3.77417 224.895C3.77417 250.933 24.8816 272.04 50.919 272.04Z" stroke="#4361EE" stroke-width="0.589311" stroke-miterlimit="10"/>
<path d="M241.276 124.294H237.998V155.082H241.276V124.294Z" fill="#191D3A"/>
<path d="M265.41 128.04L257.168 153.852C257.065 154.175 256.862 154.456 256.588 154.656C256.315 154.856 255.984 154.964 255.645 154.964H252.494C252.333 154.964 252.174 154.926 252.03 154.853C251.887 154.78 251.763 154.674 251.668 154.544C251.573 154.414 251.51 154.263 251.484 154.104C251.458 153.945 251.47 153.782 251.519 153.629L259.887 127.418C259.954 127.212 260.085 127.032 260.26 126.905C260.436 126.778 260.647 126.71 260.863 126.71H264.434C264.595 126.71 264.753 126.748 264.897 126.821C265.04 126.893 265.164 126.999 265.259 127.128C265.354 127.258 265.417 127.408 265.443 127.566C265.47 127.724 265.458 127.887 265.41 128.04Z" fill="#666B96"/>
<path d="M251.067 154.963H245.34L255.133 124.294H260.86L251.067 154.963Z" fill="#4361EE"/>
<path d="M247.196 124.294H241.276V155.082H247.196V124.294Z" fill="#FED4C7"/>
<path d="M235.88 137.204H214.383C213.214 137.204 212.265 138.152 212.265 139.322V153.109C212.265 154.279 213.214 155.227 214.383 155.227H235.88C237.05 155.227 237.998 154.279 237.998 153.109V139.322C237.998 138.152 237.05 137.204 235.88 137.204Z" fill="#7EBAD2"/>
<path d="M202.315 132.624H265.943L260.204 150.592C259.783 151.91 258.954 153.061 257.836 153.878C256.718 154.694 255.369 155.134 253.985 155.134H213.041L202.315 132.624Z" stroke="#4361EE" stroke-width="0.589311" stroke-miterlimit="10"/>
<path d="M261.111 132.624L255.372 150.592C254.951 151.91 254.122 153.061 253.004 153.878C251.886 154.694 250.537 155.134 249.153 155.134" stroke="#4361EE" stroke-width="0.589311" stroke-miterlimit="10"/>
<path d="M255.96 132.624L250.222 150.592C249.8 151.91 248.971 153.061 247.853 153.878C246.735 154.694 245.386 155.134 244.002 155.134" stroke="#4361EE" stroke-width="0.589311" stroke-miterlimit="10"/>
<path d="M250.811 132.624L245.072 150.592C244.651 151.91 243.821 153.061 242.703 153.878C241.585 154.694 240.237 155.134 238.852 155.134" stroke="#4361EE" stroke-width="0.589311" stroke-miterlimit="10"/>
<path d="M245.659 132.624L239.921 150.592C239.499 151.91 238.67 153.061 237.552 153.878C236.434 154.694 235.085 155.134 233.701 155.134" stroke="#4361EE" stroke-width="0.589311" stroke-miterlimit="10"/>
<path d="M240.509 132.624L234.77 150.592C234.349 151.91 233.519 153.061 232.401 153.878C231.283 154.694 229.935 155.134 228.55 155.134" stroke="#4361EE" stroke-width="0.589311" stroke-miterlimit="10"/>
<path d="M235.357 132.624L229.619 150.592C229.198 151.91 228.368 153.061 227.25 153.878C226.132 154.694 224.784 155.134 223.399 155.134" stroke="#4361EE" stroke-width="0.589311" stroke-miterlimit="10"/>
<path d="M230.207 132.624L224.468 150.592C224.047 151.91 223.218 153.061 222.1 153.878C220.982 154.694 219.633 155.134 218.249 155.134" stroke="#4361EE" stroke-width="0.589311" stroke-miterlimit="10"/>
<path d="M225.056 132.624L219.318 150.592C218.897 151.91 218.067 153.061 216.949 153.878C215.831 154.694 214.483 155.134 213.098 155.134" stroke="#4361EE" stroke-width="0.589311" stroke-miterlimit="10"/>
<path d="M219.906 132.624L214.167 150.592C213.808 151.717 213.15 152.724 212.263 153.504" stroke="#4361EE" stroke-width="0.589311" stroke-miterlimit="10"/>
<path d="M214.755 132.624L209.776 148.218" stroke="#4361EE" stroke-width="0.589311" stroke-miterlimit="10"/>
<path d="M209.604 132.624L206.679 141.784" stroke="#4361EE" stroke-width="0.589311" stroke-miterlimit="10"/>
<path d="M188.58 224.971C188.58 192.932 214.553 166.958 246.593 166.958" stroke="#191D3A" stroke-width="0.589311" stroke-miterlimit="10" stroke-linecap="round"/>
<path d="M214.79 158.812C202.315 163.127 190.852 173.159 184.094 185.449L176.067 200.039C171.935 207.552 165.861 213.817 158.48 218.181C151.1 222.545 142.683 224.848 134.109 224.848H115.775L94.8145 157.027" stroke="#191D3A" stroke-width="0.589311" stroke-miterlimit="10" stroke-linecap="round"/>
<path d="M246.597 224.895L199.849 127.652C198.876 125.627 197.352 123.918 195.45 122.722C193.549 121.526 191.349 120.892 189.103 120.891H186.609C185.074 120.892 183.564 121.29 182.228 122.047C180.892 122.804 179.775 123.894 178.986 125.211L177.376 127.898" stroke="#191D3A" stroke-width="0.589311" stroke-miterlimit="10" stroke-linecap="round"/>
<path d="M84.6486 166.912C84.6483 165.307 84.0104 163.767 82.8752 162.632C81.7401 161.497 80.2005 160.859 78.5952 160.859H44.434C42.8286 160.859 41.2891 161.497 40.154 162.632C39.0188 163.767 38.3809 165.307 38.3806 166.912V166.959H90.1551C92.3776 166.959 94.5422 167.667 96.3345 168.981C98.1268 170.296 99.4534 172.147 100.122 174.267L51.3054 224.895" stroke="#191D3A" stroke-width="0.589311" stroke-miterlimit="10" stroke-linecap="round"/>
<path d="M246.561 227.302C247.879 227.302 248.947 226.234 248.947 224.917C248.947 223.599 247.879 222.531 246.561 222.531C245.244 222.531 244.176 223.599 244.176 224.917C244.176 226.234 245.244 227.302 246.561 227.302Z" stroke="#191D3A" stroke-width="0.589311" stroke-miterlimit="10" stroke-linecap="round"/>
<path d="M136.574 236.897C136.485 243.297 131.261 248.521 124.86 248.612C123.285 248.634 121.721 248.344 120.26 247.757C118.798 247.17 117.468 246.298 116.346 245.192C115.224 244.086 114.333 242.769 113.725 241.315C113.117 239.862 112.804 238.303 112.804 236.728V236.677C112.81 236.07 112.697 235.468 112.469 234.906C112.242 234.343 111.905 233.831 111.479 233.399C111.052 232.967 110.545 232.624 109.985 232.39C109.425 232.155 108.825 232.033 108.218 232.032H51.3766C49.426 232.032 47.7818 230.5 47.737 228.548C47.726 228.072 47.8102 227.599 47.9846 227.157C48.159 226.714 48.4201 226.311 48.7526 225.97C49.085 225.63 49.4822 225.359 49.9207 225.175C50.3591 224.99 50.8301 224.895 51.3059 224.894H123.566C123.936 224.859 124.311 224.841 124.689 224.841C126.264 224.841 127.824 225.155 129.277 225.763C130.73 226.371 132.048 227.262 133.154 228.383C134.259 229.505 135.131 230.835 135.719 232.297C136.306 233.759 136.597 235.322 136.574 236.897Z" fill="white" stroke="#191D3A" stroke-width="0.589311" stroke-miterlimit="10" stroke-linecap="round"/>
<path d="M124.689 243.428C128.325 243.428 131.273 240.48 131.273 236.844C131.273 233.208 128.325 230.26 124.689 230.26C121.053 230.26 118.105 233.208 118.105 236.844C118.105 240.48 121.053 243.428 124.689 243.428Z" stroke="#191D3A" stroke-width="0.589311" stroke-miterlimit="10" stroke-linecap="round"/>
<path d="M124.689 236.844L131.171 253.362C131.273 253.623 131.452 253.846 131.683 254.003C131.914 254.161 132.188 254.245 132.468 254.244H148.624" stroke="#191D3A" stroke-width="0.589311" stroke-miterlimit="10" stroke-linecap="round"/>
<path d="M51.4192 230.838C52.7367 230.838 53.8048 229.77 53.8048 228.452C53.8048 227.135 52.7367 226.067 51.4192 226.067C50.1017 226.067 49.0337 227.135 49.0337 228.452C49.0337 229.77 50.1017 230.838 51.4192 230.838Z" stroke="#191D3A" stroke-width="0.589311" stroke-miterlimit="10" stroke-linecap="round"/>
<path d="M148.964 251.428H132.408C131.911 251.428 131.509 251.831 131.509 252.328V253.345C131.509 253.841 131.911 254.244 132.408 254.244H148.964C149.461 254.244 149.863 253.841 149.863 253.345V252.328C149.863 251.831 149.461 251.428 148.964 251.428Z" stroke="#4361EE" stroke-width="0.589311" stroke-miterlimit="10"/>
<path d="M106.977 157.027H87.1097C86.2073 157.027 85.3418 156.669 84.7037 156.03C84.0655 155.392 83.707 154.527 83.707 153.624C83.707 152.722 84.0655 151.856 84.7037 151.218C85.3418 150.58 86.2073 150.222 87.1097 150.222H115.965C116.083 150.221 116.198 150.256 116.296 150.322C116.394 150.388 116.47 150.481 116.514 150.591C116.558 150.7 116.568 150.821 116.543 150.936C116.518 151.051 116.459 151.156 116.374 151.238L112.794 154.682C111.231 156.187 109.146 157.027 106.977 157.027Z" fill="#4361EE"/>
<path d="M25.7292 27.2266V26.873C28.0865 20.6994 34.4145 16.2772 41.854 16.2772C44.0904 16.2731 46.3084 16.6818 48.3965 17.4829C49.2887 17.8282 50.2552 17.1989 50.254 16.3043V16.2819C50.2528 14.3758 50.6177 12.4872 51.3289 10.7188C53.7533 4.66422 60.0177 0.354004 67.3664 0.354004C74.7151 0.354004 80.9771 4.66422 83.3957 10.7164C83.4511 10.8532 83.5053 10.9922 83.556 11.1325C83.7634 10.9895 83.9736 10.8508 84.1865 10.7164C87.0642 8.93295 90.3826 7.98803 93.7681 7.98803C97.1537 7.98803 100.472 8.93295 103.35 10.7164C107.893 13.5805 110.879 18.4223 110.879 23.917V23.9406C110.879 24.689 111.822 25.1098 112.436 24.6301C115.854 21.9794 120.434 20.3587 125.471 20.3587C131.996 20.3587 137.756 23.079 141.208 27.2325" stroke="#FED4C7" stroke-width="0.707173" stroke-miterlimit="10" stroke-linecap="round"/>
<path d="M89.0634 30.2238C84.2947 27.0933 78.3922 27.223 74.2399 30.1189C74.1444 30.1849 74.0501 30.2521 73.9582 30.3216C73.8851 30.1401 73.8065 29.9605 73.7225 29.783C72.615 27.3997 70.8644 25.3728 68.6676 23.9304C66.4708 22.4881 63.9151 21.6874 61.288 21.6186C57.118 21.5432 53.1178 23.4137 50.7782 26.979L50.7688 26.9932" stroke="#FED4C7" stroke-width="0.707173" stroke-miterlimit="10" stroke-linecap="round"/>
</g>
<defs>
<clipPath id="clip0">
<rect width="472.887" height="283" fill="white"/>
</clipPath>
</defs>
</svg>
