<svg width="680" height="389" viewBox="0 0 680 389" fill="none" xmlns="http://www.w3.org/2000/svg">
<g clip-path="url(#clip0)">
<path d="M663.408 376.82C670.23 337.375 634.811 304.948 596.277 306.322H594.227C578.917 306.322 564.546 299.388 555.592 287.683L550.008 280.387C535.566 261.508 513.101 250.324 488.41 250.324C474.778 250.324 464.983 253.448 457.46 258.321C443.717 267.224 425.267 298.011 406.546 298.797C378.939 299.958 360.859 259.961 291.753 330.215" stroke="#191D3A" stroke-width="0.821462" stroke-miterlimit="10" stroke-linecap="round"/>
<path d="M22.6014 377.22C-12.6898 377.22 -6.25103 322.893 44.6254 345.63C88.0997 365.06 60.8955 281.418 116.47 300.957C130.115 305.754 162.496 330.275 180.676 330.404C188.027 330.456 239.64 302.713 283.484 325.761C325.346 347.766 364.945 377.218 364.945 377.218" stroke="#191D3A" stroke-width="0.821462" stroke-miterlimit="10" stroke-linecap="round"/>
<path d="M669.754 377.202H589.82C591.559 360.714 608.786 347.767 629.782 347.767C650.778 347.767 668.015 360.714 669.754 377.202Z" fill="#FED4C7"/>
<path d="M620.662 377.202L611.045 364.397H602.701L591.602 370.309C591.57 370.326 591.535 370.339 591.5 370.347C591.656 369.947 591.82 369.552 591.997 369.159L600.94 364.397H594.673C594.866 364.117 595.063 363.842 595.265 363.568H610.426L604.147 355.208C604.375 355.053 604.608 354.901 604.843 354.753L621.756 377.202H620.662Z" fill="white"/>
<path d="M650.769 376.904L664.507 363.831C664.671 364.059 664.831 364.288 664.988 364.518L651.657 377.205L650.769 376.904Z" fill="white"/>
<path d="M631.657 377.02V359.359L624.406 348.195C624.379 348.154 624.361 348.108 624.351 348.06C624.649 348.027 624.949 347.997 625.25 347.971L631.657 357.837V347.802C631.934 347.811 632.211 347.823 632.486 347.838V371.397L647.741 351.168C648.007 351.274 648.27 351.382 648.532 351.499L639.744 363.166L657.818 356.933C658.074 357.135 658.328 357.34 658.579 357.547L658.556 357.557L638.85 364.355L632.493 372.79V377.034L631.657 377.02Z" fill="white"/>
<path d="M573.966 363.324L576.285 360.749L578.86 363.068C580.16 364.239 580.941 365.877 581.032 367.624C581.124 369.371 580.517 371.082 579.347 372.381L577.027 374.957L574.446 372.632C573.149 371.46 572.37 369.822 572.28 368.077C572.19 366.332 572.796 364.622 573.966 363.324Z" fill="#666B96"/>
<path d="M564.539 365.181V362.528H567.192C569.703 362.528 572.11 363.526 573.886 365.301C575.661 367.076 576.658 369.484 576.658 371.995V374.648H574.005C571.495 374.648 569.087 373.651 567.311 371.875C565.536 370.1 564.539 367.692 564.539 365.181Z" fill="white" stroke="#191D3A" stroke-width="0.821462" stroke-miterlimit="10"/>
<path d="M53.3832 343.248L52.7856 343.212C50.9713 343.103 49.2743 342.279 48.068 340.919C46.8617 339.559 46.245 337.776 46.3534 335.962L46.3891 335.364L46.9867 335.4C48.801 335.509 50.498 336.333 51.7043 337.693C52.9106 339.053 53.5273 340.836 53.4189 342.65L53.3832 343.248Z" fill="#C7E1E9"/>
<path d="M56.3162 342.62L55.9634 341.99C55.4329 341.044 55.0941 340.003 54.9662 338.926C54.8383 337.849 54.9239 336.757 55.2181 335.713C55.5122 334.669 56.0092 333.694 56.6807 332.842C57.3521 331.99 58.1848 331.279 59.1311 330.749L59.7603 330.396L60.1131 331.025C61.184 332.935 61.4523 335.192 60.8591 337.3C60.2658 339.408 58.8596 341.194 56.9497 342.264L56.3205 342.617L56.3162 342.62Z" stroke="#191D3A" stroke-width="0.821462" stroke-miterlimit="10" stroke-linecap="round"/>
<path d="M574.695 292.83L575.041 290.381L577.49 290.727C579.222 290.972 580.785 291.895 581.836 293.292C582.888 294.69 583.341 296.447 583.096 298.179L582.749 300.628L580.3 300.282C578.569 300.037 577.005 299.114 575.954 297.717C574.903 296.319 574.45 294.561 574.695 292.83Z" fill="#C7E1E9"/>
<path d="M593.855 287.684H600.534V294.363C600.534 296.112 599.84 297.79 598.603 299.027C597.366 300.263 595.689 300.958 593.94 300.958H587.261V294.279C587.261 292.53 587.955 290.853 589.192 289.616C590.429 288.379 592.106 287.684 593.855 287.684Z" stroke="#191D3A" stroke-width="0.821462" stroke-miterlimit="10" stroke-linecap="round"/>
<path d="M587.261 300.956L600.534 287.684" stroke="#191D3A" stroke-width="0.821462" stroke-miterlimit="10" stroke-linecap="round"/>
<path d="M595.26 293.534H600.534" stroke="#191D3A" stroke-width="0.821462" stroke-miterlimit="10" stroke-linecap="round"/>
<path d="M590.875 288.634V297.285" stroke="#191D3A" stroke-width="0.821462" stroke-miterlimit="10" stroke-linecap="round"/>
<path d="M32.9792 358.61H36.6074V362.238C36.6069 363.986 35.9124 365.663 34.6764 366.899C33.4405 368.135 31.7642 368.83 30.0161 368.831H26.3846V365.203C26.3851 363.454 27.0801 361.777 28.3167 360.541C29.5534 359.305 31.2305 358.61 32.9792 358.61Z" stroke="#191D3A" stroke-width="0.821462" stroke-miterlimit="10" stroke-linecap="round"/>
<path d="M26.3846 368.831L36.6057 358.61" stroke="#191D3A" stroke-width="0.821462" stroke-miterlimit="10" stroke-linecap="round"/>
<path d="M32.2373 363.115H36.4242" stroke="#191D3A" stroke-width="0.821462" stroke-miterlimit="10" stroke-linecap="round"/>
<path d="M29.1693 360.062V366.004" stroke="#191D3A" stroke-width="0.821462" stroke-miterlimit="10" stroke-linecap="round"/>
<path d="M203.598 79.4848L285.631 23.3801C295.058 16.9331 307 17.7257 315.703 25.3699L468.204 159.464H20.9718L165.509 72.6282C172.863 68.2091 181.61 67.9438 189.161 71.9102L203.598 79.4848Z" stroke="#FED4C7" stroke-width="0.821462" stroke-miterlimit="10"/>
<path d="M204.484 79.3493L171.154 101.569C170.982 101.684 170.778 101.74 170.571 101.728C170.364 101.716 170.167 101.638 170.01 101.504C169.852 101.37 169.742 101.188 169.696 100.987C169.651 100.785 169.673 100.574 169.758 100.385L183.204 69.5627L204.484 79.3493Z" fill="#FED4C7"/>
<path d="M640.276 159.466C614.99 160.199 575.641 165.968 552.465 176.186L519.079 190.907C494.941 201.551 468.851 207.047 442.471 207.046H309.007C292.426 207.046 275.915 209.186 259.883 213.414V213.414C243.85 217.642 227.339 219.783 210.758 219.783H96.6081C80.6822 219.784 65.0175 215.737 51.0854 208.021C37.1533 200.305 25.4112 189.175 16.9621 175.675L6.82068 159.466H640.276Z" stroke="#191D3A" stroke-width="0.821462" stroke-miterlimit="10" stroke-linecap="round"/>
<path d="M42.1194 169.407C42.8341 168.696 43.8014 168.297 44.8098 168.297C45.8182 168.297 46.7855 168.696 47.5002 169.407V169.407C48.2149 170.119 49.1822 170.518 50.1906 170.518C51.199 170.518 52.1663 170.119 52.881 169.407V169.407C53.5957 168.696 54.563 168.297 55.5714 168.297C56.5798 168.297 57.5471 168.696 58.2618 169.407L58.2883 169.432C59.003 170.144 59.9704 170.543 60.9787 170.543C61.9871 170.543 62.9544 170.144 63.6691 169.432L63.7471 169.356C64.1002 169.002 64.5196 168.722 64.9812 168.53C65.4429 168.339 65.9377 168.24 66.4375 168.24C66.9372 168.24 67.4321 168.339 67.8937 168.53C68.3554 168.722 68.7748 169.002 69.1279 169.356L69.2058 169.432C69.9205 170.144 70.8879 170.543 71.8962 170.543C72.9046 170.543 73.8719 170.144 74.5866 169.432L74.638 169.381C75.3527 168.669 76.3201 168.27 77.3284 168.27C78.3368 168.27 79.3041 168.669 80.0188 169.381L80.0702 169.432C80.785 170.144 81.7527 170.544 82.7615 170.544C83.7703 170.544 84.7379 170.144 85.4527 169.432L85.4776 169.407C86.1923 168.696 87.1596 168.297 88.168 168.297C89.1764 168.297 90.1437 168.696 90.8584 169.407" stroke="#191D3A" stroke-width="0.821462" stroke-miterlimit="10" stroke-linecap="round"/>
<path d="M90.8881 169.432C91.6028 170.143 92.5701 170.543 93.5785 170.543C94.5868 170.543 95.5542 170.143 96.2689 169.432L96.2954 169.407C97.0101 168.696 97.9775 168.296 98.9858 168.296C99.9942 168.296 100.962 168.696 101.676 169.407" stroke="#191D3A" stroke-width="0.821462" stroke-miterlimit="10" stroke-linecap="round"/>
<path d="M58.2583 174.319L58.2848 174.345C58.9995 175.057 59.9669 175.456 60.9752 175.456C61.9836 175.456 62.9509 175.057 63.6656 174.345L63.7436 174.267C64.4583 173.556 65.4256 173.157 66.434 173.157C67.4423 173.157 68.4097 173.556 69.1244 174.267L69.2023 174.345C69.917 175.057 70.8844 175.456 71.8927 175.456C72.9011 175.456 73.8684 175.057 74.5831 174.345L74.6345 174.292C75.3492 173.581 76.3166 173.182 77.3249 173.182C78.3333 173.182 79.3006 173.581 80.0153 174.292L80.0667 174.345C80.7815 175.057 81.7492 175.457 82.758 175.457C83.7668 175.457 84.7344 175.057 85.4492 174.345L85.4741 174.319C86.1888 173.607 87.1561 173.208 88.1645 173.208C89.1729 173.208 90.1402 173.607 90.8549 174.319" stroke="#191D3A" stroke-width="0.821462" stroke-miterlimit="10" stroke-linecap="round"/>
<path d="M432.455 180.398C433.17 181.109 434.137 181.508 435.146 181.508C436.154 181.508 437.121 181.109 437.836 180.398V180.398C438.551 179.686 439.519 179.286 440.527 179.286C441.536 179.286 442.504 179.686 443.219 180.398L443.243 180.424C443.958 181.136 444.926 181.535 445.934 181.535C446.942 181.535 447.91 181.136 448.624 180.424L448.702 180.346C449.417 179.635 450.384 179.236 451.393 179.236C452.401 179.236 453.368 179.635 454.083 180.346L454.161 180.424C454.876 181.136 455.843 181.535 456.851 181.535C457.86 181.535 458.827 181.136 459.542 180.424L459.593 180.371C460.308 179.66 461.275 179.26 462.284 179.26C463.292 179.26 464.259 179.66 464.974 180.371L465.027 180.424C465.742 181.136 466.709 181.535 467.717 181.535C468.726 181.535 469.693 181.136 470.408 180.424L470.433 180.398C471.148 179.686 472.115 179.286 473.124 179.286C474.133 179.286 475.1 179.686 475.815 180.398" stroke="#191D3A" stroke-width="0.821462" stroke-miterlimit="10" stroke-linecap="round"/>
<path d="M443.211 185.309L443.236 185.336C443.951 186.047 444.918 186.446 445.926 186.446C446.935 186.446 447.902 186.047 448.617 185.336L448.695 185.258C449.409 184.546 450.377 184.147 451.385 184.147C452.393 184.147 453.361 184.546 454.075 185.258L454.153 185.336C454.868 186.047 455.835 186.446 456.844 186.446C457.852 186.446 458.819 186.047 459.534 185.336L459.586 185.284C460.3 184.573 461.268 184.173 462.276 184.173C463.284 184.173 464.252 184.573 464.966 185.284L465.019 185.336C465.734 186.047 466.701 186.446 467.71 186.446C468.718 186.446 469.685 186.047 470.4 185.336L470.425 185.309" stroke="#191D3A" stroke-width="0.821462" stroke-miterlimit="10" stroke-linecap="round"/>
<path d="M211.457 96.7883V143.521" stroke="#191D3A" stroke-width="0.821462" stroke-miterlimit="10" stroke-linecap="round"/>
<path d="M204.83 103.4V143.521" stroke="#191D3A" stroke-width="0.821462" stroke-miterlimit="10" stroke-linecap="round"/>
<path d="M198.2 108.028V143.521" stroke="#191D3A" stroke-width="0.821462" stroke-miterlimit="10" stroke-linecap="round"/>
<path d="M191.573 111.498V143.521" stroke="#191D3A" stroke-width="0.821462" stroke-miterlimit="10" stroke-linecap="round"/>
<path d="M184.943 114.309V143.521" stroke="#191D3A" stroke-width="0.821462" stroke-miterlimit="10" stroke-linecap="round"/>
<path d="M178.314 116.292V143.521" stroke="#191D3A" stroke-width="0.821462" stroke-miterlimit="10" stroke-linecap="round"/>
<path d="M171.687 117.779V143.521" stroke="#191D3A" stroke-width="0.821462" stroke-miterlimit="10" stroke-linecap="round"/>
<path d="M222.594 95.2742V143.521" stroke="#191D3A" stroke-width="0.821462" stroke-miterlimit="10" stroke-linecap="round"/>
<path d="M229.221 100.851V143.355" stroke="#191D3A" stroke-width="0.821462" stroke-miterlimit="10" stroke-linecap="round"/>
<path d="M235.85 105.089V143.355" stroke="#191D3A" stroke-width="0.821462" stroke-miterlimit="10" stroke-linecap="round"/>
<path d="M242.478 108.601V143.355" stroke="#191D3A" stroke-width="0.821462" stroke-miterlimit="10" stroke-linecap="round"/>
<path d="M249.107 111.578V143.355" stroke="#191D3A" stroke-width="0.821462" stroke-miterlimit="10" stroke-linecap="round"/>
<path d="M255.735 114.01V143.355" stroke="#191D3A" stroke-width="0.821462" stroke-miterlimit="10" stroke-linecap="round"/>
<path d="M262.364 116.085V143.355" stroke="#191D3A" stroke-width="0.821462" stroke-miterlimit="10" stroke-linecap="round"/>
<path d="M269.005 117.879V143.355" stroke="#191D3A" stroke-width="0.821462" stroke-miterlimit="10" stroke-linecap="round"/>
<path d="M275.635 119.151V143.356" stroke="#191D3A" stroke-width="0.821462" stroke-miterlimit="10" stroke-linecap="round"/>
<path d="M282.264 120.562V143.355" stroke="#191D3A" stroke-width="0.821462" stroke-miterlimit="10" stroke-linecap="round"/>
<path d="M288.902 121.527V143.355" stroke="#191D3A" stroke-width="0.821462" stroke-miterlimit="10" stroke-linecap="round"/>
<path d="M295.532 122.467V143.355" stroke="#191D3A" stroke-width="0.821462" stroke-miterlimit="10" stroke-linecap="round"/>
<path d="M302.162 123.049V143.355" stroke="#191D3A" stroke-width="0.821462" stroke-miterlimit="10" stroke-linecap="round"/>
<path d="M308.802 123.517V143.355" stroke="#191D3A" stroke-width="0.821462" stroke-miterlimit="10" stroke-linecap="round"/>
<path d="M315.432 123.959V143.355" stroke="#191D3A" stroke-width="0.821462" stroke-miterlimit="10" stroke-linecap="round"/>
<path d="M322.059 124.044V143.355" stroke="#191D3A" stroke-width="0.821462" stroke-miterlimit="10" stroke-linecap="round"/>
<path d="M165.057 119.101V143.521" stroke="#191D3A" stroke-width="0.821462" stroke-miterlimit="10" stroke-linecap="round"/>
<path d="M158.427 119.763V143.521" stroke="#191D3A" stroke-width="0.821462" stroke-miterlimit="10" stroke-linecap="round"/>
<path d="M151.8 120.259V143.521" stroke="#191D3A" stroke-width="0.821462" stroke-miterlimit="10" stroke-linecap="round"/>
<path d="M145.168 120.589V143.522" stroke="#191D3A" stroke-width="0.821462" stroke-miterlimit="10" stroke-linecap="round"/>
<path d="M138.541 120.589V143.522" stroke="#191D3A" stroke-width="0.821462" stroke-miterlimit="10" stroke-linecap="round"/>
<path d="M131.911 119.763V143.521" stroke="#191D3A" stroke-width="0.821462" stroke-miterlimit="10" stroke-linecap="round"/>
<path d="M125.284 118.605V143.521" stroke="#191D3A" stroke-width="0.821462" stroke-miterlimit="10" stroke-linecap="round"/>
<path d="M118.655 116.952V143.521" stroke="#191D3A" stroke-width="0.821462" stroke-miterlimit="10" stroke-linecap="round"/>
<path d="M112.027 114.805V143.521" stroke="#191D3A" stroke-width="0.821462" stroke-miterlimit="10" stroke-linecap="round"/>
<path d="M105.398 112.16V143.521" stroke="#191D3A" stroke-width="0.821462" stroke-miterlimit="10" stroke-linecap="round"/>
<path d="M98.7681 108.689V143.521" stroke="#191D3A" stroke-width="0.821462" stroke-miterlimit="10" stroke-linecap="round"/>
<path d="M92.1407 104.557V143.521" stroke="#191D3A" stroke-width="0.821462" stroke-miterlimit="10" stroke-linecap="round"/>
<path d="M80.7764 108.689V143.291" stroke="#191D3A" stroke-width="0.821462" stroke-miterlimit="10" stroke-linecap="round"/>
<path d="M74.149 115.41V143.29" stroke="#191D3A" stroke-width="0.821462" stroke-miterlimit="10" stroke-linecap="round"/>
<path d="M67.5194 120.755V143.29" stroke="#191D3A" stroke-width="0.821462" stroke-miterlimit="10" stroke-linecap="round"/>
<path d="M60.8921 125.325V143.29" stroke="#191D3A" stroke-width="0.821462" stroke-miterlimit="10" stroke-linecap="round"/>
<path d="M54.2626 129.36V143.291" stroke="#191D3A" stroke-width="0.821462" stroke-miterlimit="10" stroke-linecap="round"/>
<path d="M47.6353 132.896V143.291" stroke="#191D3A" stroke-width="0.821462" stroke-miterlimit="10" stroke-linecap="round"/>
<path d="M41.0056 135.761V143.291" stroke="#191D3A" stroke-width="0.821462" stroke-miterlimit="10" stroke-linecap="round"/>
<path d="M34.3739 138.539V143.291" stroke="#191D3A" stroke-width="0.821462" stroke-miterlimit="10" stroke-linecap="round"/>
<path d="M27.7466 140.372V143.291" stroke="#191D3A" stroke-width="0.821462" stroke-miterlimit="10" stroke-linecap="round"/>
<path d="M434.498 90.2705V143.45" stroke="#191D3A" stroke-width="0.821462" stroke-miterlimit="10" stroke-linecap="round"/>
<path d="M441.212 97.5425V143.449" stroke="#191D3A" stroke-width="0.821462" stroke-miterlimit="10" stroke-linecap="round"/>
<path d="M447.926 103.163V143.45" stroke="#191D3A" stroke-width="0.821462" stroke-miterlimit="10" stroke-linecap="round"/>
<path d="M454.637 107.625V143.45" stroke="#191D3A" stroke-width="0.821462" stroke-miterlimit="10" stroke-linecap="round"/>
<path d="M461.351 111.261V143.45" stroke="#191D3A" stroke-width="0.821462" stroke-miterlimit="10" stroke-linecap="round"/>
<path d="M468.06 114.072V143.45" stroke="#191D3A" stroke-width="0.821462" stroke-miterlimit="10" stroke-linecap="round"/>
<path d="M474.774 116.551V143.45" stroke="#191D3A" stroke-width="0.821462" stroke-miterlimit="10" stroke-linecap="round"/>
<path d="M481.487 118.202V143.45" stroke="#191D3A" stroke-width="0.821462" stroke-miterlimit="10" stroke-linecap="round"/>
<path d="M488.197 119.359V143.449" stroke="#191D3A" stroke-width="0.821462" stroke-miterlimit="10" stroke-linecap="round"/>
<path d="M494.91 120.187V143.45" stroke="#191D3A" stroke-width="0.821462" stroke-miterlimit="10" stroke-linecap="round"/>
<path d="M501.622 120.517V143.45" stroke="#191D3A" stroke-width="0.821462" stroke-miterlimit="10" stroke-linecap="round"/>
<path d="M508.335 120.517V143.45" stroke="#191D3A" stroke-width="0.821462" stroke-miterlimit="10" stroke-linecap="round"/>
<path d="M515.045 119.691V143.45" stroke="#191D3A" stroke-width="0.821462" stroke-miterlimit="10" stroke-linecap="round"/>
<path d="M521.758 118.368V143.449" stroke="#191D3A" stroke-width="0.821462" stroke-miterlimit="10" stroke-linecap="round"/>
<path d="M528.472 116.715V143.45" stroke="#191D3A" stroke-width="0.821462" stroke-miterlimit="10" stroke-linecap="round"/>
<path d="M535.183 114.401V143.449" stroke="#191D3A" stroke-width="0.821462" stroke-miterlimit="10" stroke-linecap="round"/>
<path d="M541.897 111.757V143.45" stroke="#191D3A" stroke-width="0.821462" stroke-miterlimit="10" stroke-linecap="round"/>
<path d="M548.606 108.287V143.45" stroke="#191D3A" stroke-width="0.821462" stroke-miterlimit="10" stroke-linecap="round"/>
<path d="M555.156 104.154V143.449" stroke="#191D3A" stroke-width="0.821462" stroke-miterlimit="10" stroke-linecap="round"/>
<path d="M614.019 139.885V143.45" stroke="#191D3A" stroke-width="0.821462" stroke-miterlimit="10" stroke-linecap="round"/>
<path d="M607.307 137.554V143.449" stroke="#191D3A" stroke-width="0.821462" stroke-miterlimit="10" stroke-linecap="round"/>
<path d="M600.596 134.821V143.45" stroke="#191D3A" stroke-width="0.821462" stroke-miterlimit="10" stroke-linecap="round"/>
<path d="M593.884 131.814V143.45" stroke="#191D3A" stroke-width="0.821462" stroke-miterlimit="10" stroke-linecap="round"/>
<path d="M587.17 128.103V143.45" stroke="#191D3A" stroke-width="0.821462" stroke-miterlimit="10" stroke-linecap="round"/>
<path d="M580.457 123.625V143.45" stroke="#191D3A" stroke-width="0.821462" stroke-miterlimit="10" stroke-linecap="round"/>
<path d="M573.745 117.974V143.45" stroke="#191D3A" stroke-width="0.821462" stroke-miterlimit="10" stroke-linecap="round"/>
<path d="M567.196 111.285V143.449" stroke="#191D3A" stroke-width="0.821462" stroke-miterlimit="10" stroke-linecap="round"/>
<path d="M422.432 88.3032V143.449" stroke="#191D3A" stroke-width="0.821462" stroke-miterlimit="10" stroke-linecap="round"/>
<path d="M415.723 94.5471V143.45" stroke="#191D3A" stroke-width="0.821462" stroke-miterlimit="10" stroke-linecap="round"/>
<path d="M409.009 99.5574V143.45" stroke="#191D3A" stroke-width="0.821462" stroke-miterlimit="10" stroke-linecap="round"/>
<path d="M402.296 103.697V143.45" stroke="#191D3A" stroke-width="0.821462" stroke-miterlimit="10" stroke-linecap="round"/>
<path d="M395.584 107.313V143.45" stroke="#191D3A" stroke-width="0.821462" stroke-miterlimit="10" stroke-linecap="round"/>
<path d="M388.87 110.566V143.45" stroke="#191D3A" stroke-width="0.821462" stroke-miterlimit="10" stroke-linecap="round"/>
<path d="M382.161 113.309V143.449" stroke="#191D3A" stroke-width="0.821462" stroke-miterlimit="10" stroke-linecap="round"/>
<path d="M375.448 116.023V143.45" stroke="#191D3A" stroke-width="0.821462" stroke-miterlimit="10" stroke-linecap="round"/>
<path d="M368.734 117.887V143.45" stroke="#191D3A" stroke-width="0.821462" stroke-miterlimit="10" stroke-linecap="round"/>
<path d="M362.022 119.573V143.45" stroke="#191D3A" stroke-width="0.821462" stroke-miterlimit="10" stroke-linecap="round"/>
<path d="M355.309 121.074V143.45" stroke="#191D3A" stroke-width="0.821462" stroke-miterlimit="10" stroke-linecap="round"/>
<path d="M348.597 122.233V143.45" stroke="#191D3A" stroke-width="0.821462" stroke-miterlimit="10" stroke-linecap="round"/>
<path d="M341.886 123.026V143.45" stroke="#191D3A" stroke-width="0.821462" stroke-miterlimit="10" stroke-linecap="round"/>
<path d="M335.174 124.133V143.449" stroke="#191D3A" stroke-width="0.821462" stroke-miterlimit="10" stroke-linecap="round"/>
<path d="M328.461 124.066V143.45" stroke="#191D3A" stroke-width="0.821462" stroke-miterlimit="10" stroke-linecap="round"/>
<path d="M216.847 89.4758V159.317" stroke="#191D3A" stroke-width="0.821462" stroke-miterlimit="10" stroke-linecap="round"/>
<path d="M86.3102 100.446V159.317" stroke="#191D3A" stroke-width="0.821462" stroke-miterlimit="10" stroke-linecap="round"/>
<path d="M428.305 81.1816V159.317" stroke="#191D3A" stroke-width="0.821462" stroke-miterlimit="10" stroke-linecap="round"/>
<path d="M560.484 100.446V159.317" stroke="#191D3A" stroke-width="0.821462" stroke-miterlimit="10" stroke-linecap="round"/>
<path d="M216.805 88.6348C235.33 114.139 283.987 124.001 324.6 124.001" stroke="#191D3A" stroke-width="0.821462" stroke-miterlimit="10" stroke-linecap="round"/>
<path d="M86.3567 100.386C100.758 111.612 120.93 120.394 143.257 120.394C176.534 120.394 205.02 110.68 216.756 88.7227" stroke="#191D3A" stroke-width="0.821462" stroke-miterlimit="10" stroke-linecap="round"/>
<path d="M6.8175 143.372C40.0857 143.372 78.723 117.287 86.3374 100.397" stroke="#191D3A" stroke-width="0.821462" stroke-miterlimit="10" stroke-linecap="round"/>
<path d="M428.349 81.0854C409.592 106.595 365.464 124.001 324.341 124.001" stroke="#191D3A" stroke-width="0.821462" stroke-miterlimit="10" stroke-linecap="round"/>
<path d="M560.439 100.387C545.847 111.613 525.43 120.394 502.82 120.394C469.126 120.394 440.282 103.093 428.398 81.1287" stroke="#191D3A" stroke-width="0.821462" stroke-miterlimit="10" stroke-linecap="round"/>
<path d="M640.272 143.374C603.817 143.374 568.174 120.249 560.455 100.397" stroke="#191D3A" stroke-width="0.821462" stroke-miterlimit="10" stroke-linecap="round"/>
<path d="M640.103 143.502H6.8175" stroke="#191D3A" stroke-width="0.821462" stroke-miterlimit="10" stroke-linecap="round"/>
<path d="M71.1143 143.502C79.5163 143.502 86.3281 150.493 86.3281 159.116" stroke="#191D3A" stroke-width="0.821462" stroke-miterlimit="10" stroke-linecap="round"/>
<path d="M101.524 143.502C93.122 143.502 86.3102 150.493 86.3102 159.116" stroke="#191D3A" stroke-width="0.821462" stroke-miterlimit="10" stroke-linecap="round"/>
<path d="M201.782 143.502C210.184 143.502 216.996 150.493 216.996 159.116" stroke="#191D3A" stroke-width="0.821462" stroke-miterlimit="10" stroke-linecap="round"/>
<path d="M232.189 143.502C223.787 143.502 216.976 150.493 216.976 159.116" stroke="#191D3A" stroke-width="0.821462" stroke-miterlimit="10" stroke-linecap="round"/>
<path d="M545.084 143.502C553.593 143.502 560.489 150.493 560.489 159.116" stroke="#191D3A" stroke-width="0.821462" stroke-miterlimit="10" stroke-linecap="round"/>
<path d="M575.877 143.502C567.371 143.502 560.473 150.493 560.473 159.116" stroke="#191D3A" stroke-width="0.821462" stroke-miterlimit="10" stroke-linecap="round"/>
<path d="M412.916 143.502C421.423 143.502 428.321 150.493 428.321 159.116" stroke="#191D3A" stroke-width="0.821462" stroke-miterlimit="10" stroke-linecap="round"/>
<path d="M443.709 143.502C435.201 143.502 428.305 150.493 428.305 159.116" stroke="#191D3A" stroke-width="0.821462" stroke-miterlimit="10" stroke-linecap="round"/>
<path d="M42.1177 377.202H679.587" stroke="#191D3A" stroke-width="0.821462" stroke-miterlimit="10" stroke-linecap="round"/>
<path d="M156.536 388.045H406.54" stroke="#191D3A" stroke-width="0.821462" stroke-miterlimit="10" stroke-linecap="round"/>
<path d="M227.964 181.358L212.151 252.247C211.504 255.147 209.888 257.741 207.569 259.6C205.25 261.458 202.367 262.471 199.395 262.471H129.479C128.285 262.471 127.106 262.203 126.029 261.686C124.952 261.169 124.006 260.417 123.258 259.485C122.511 258.553 121.983 257.466 121.713 256.302C121.443 255.139 121.437 253.93 121.697 252.764L137.511 181.875C138.158 178.975 139.775 176.382 142.093 174.523C144.412 172.665 147.295 171.652 150.266 171.652H220.184C221.378 171.652 222.556 171.921 223.633 172.437C224.71 172.954 225.656 173.706 226.403 174.638C227.15 175.569 227.678 176.657 227.948 177.82C228.218 178.983 228.224 180.192 227.964 181.358Z" fill="white"/>
<path d="M334.532 181.358L318.718 252.247C318.072 255.147 316.456 257.741 314.137 259.6C311.818 261.459 308.935 262.471 305.964 262.471H232.44C231.245 262.471 230.066 262.203 228.99 261.686C227.913 261.169 226.966 260.417 226.219 259.485C225.472 258.553 224.944 257.466 224.674 256.302C224.404 255.139 224.399 253.93 224.659 252.764L240.473 181.875C241.12 178.975 242.736 176.381 245.055 174.523C247.374 172.665 250.257 171.652 253.228 171.652H326.752C327.946 171.652 329.125 171.921 330.202 172.437C331.278 172.954 332.225 173.706 332.972 174.638C333.719 175.569 334.247 176.657 334.517 177.82C334.787 178.983 334.792 180.192 334.532 181.358Z" fill="white"/>
<path d="M446.801 262.471H342.778C341.347 262.471 339.934 262.15 338.644 261.53C337.354 260.911 336.219 260.01 335.324 258.893C334.429 257.776 333.797 256.473 333.473 255.079C333.15 253.685 333.144 252.236 333.455 250.839L348.84 181.875C349.487 178.975 351.103 176.381 353.422 174.523C355.74 172.665 358.623 171.652 361.595 171.652H401.26C403.481 171.652 405.661 172.253 407.568 173.392C409.475 174.531 411.038 176.164 412.091 178.119L452.462 252.988C454.771 257.271 451.669 262.471 446.801 262.471Z" fill="white"/>
<path d="M318.014 262.471V226.705C318.014 221.569 320.055 216.643 323.686 213.012C327.318 209.38 332.244 207.339 337.38 207.339H382.693C386.397 207.339 390.018 208.43 393.104 210.476C396.191 212.522 398.607 215.432 400.05 218.842L418.507 262.471H318.014Z" fill="white" stroke="#191D3A" stroke-width="0.821462" stroke-miterlimit="10"/>
<path d="M416.322 258.369H318.427V257.375H415.901L416.322 258.369Z" fill="#FED4C7"/>
<path d="M414.376 253.771H318.427V252.776H413.956L414.376 253.771Z" fill="#FED4C7"/>
<path d="M412.431 249.173H318.427V248.178H412.01L412.431 249.173Z" fill="#FED4C7"/>
<path d="M410.486 244.575H318.427V243.58H410.065L410.486 244.575Z" fill="#FED4C7"/>
<path d="M408.541 239.977H318.427V238.982H408.12L408.541 239.977Z" fill="#FED4C7"/>
<path d="M406.596 235.379H318.427V234.384H406.174L406.596 235.379Z" fill="#FED4C7"/>
<path d="M404.651 230.781H318.427V229.786H404.229L404.651 230.781Z" fill="#FED4C7"/>
<path d="M402.702 226.176H318.433C318.442 225.844 318.459 225.512 318.485 225.181H402.276L402.702 226.176Z" fill="#FED4C7"/>
<path d="M400.761 221.586H319.131C319.223 221.254 319.328 220.922 319.441 220.591H400.34L400.761 221.586Z" fill="#FED4C7"/>
<path d="M398.665 216.988H321.112C321.314 216.65 321.527 216.318 321.752 215.993H398.051C398.265 216.318 398.471 216.648 398.665 216.988Z" fill="#FED4C7"/>
<path d="M394.924 212.39H324.972C325.375 212.041 325.791 211.708 326.222 211.395H393.711C394.126 211.709 394.531 212.04 394.924 212.39Z" fill="#FED4C7"/>
<path d="M434.669 245.222L404.078 262.831" stroke="#FFD100" stroke-width="0.821462" stroke-miterlimit="10"/>
<path d="M434.558 262.852C435.377 260.917 435.947 258.884 436.254 256.805C437.904 245.861 431.202 236.723 421.284 236.398C411.366 236.073 401.991 244.689 400.341 255.633C399.967 258.023 400.011 260.46 400.47 262.836L434.558 262.852Z" stroke="#FFD100" stroke-width="0.821462" stroke-miterlimit="10"/>
<path d="M407.659 262.471H317.904C323.541 257.782 379.127 235.995 402.352 245.118C415.753 250.386 407.659 262.471 407.659 262.471Z" fill="#666B96"/>
<path d="M402.174 250.708C407.157 252.667 408.671 255.069 409.231 257.941" stroke="#191D3A" stroke-width="0.821462" stroke-linecap="round" stroke-linejoin="round"/>
<path d="M400.37 255.757C405.353 257.716 407.032 259.621 407.593 262.493" stroke="#191D3A" stroke-width="0.821462" stroke-linecap="round" stroke-linejoin="round"/>
<path d="M372.198 207.339V198.745L359.874 195.941L352.515 207.339L372.358 219.961L372.198 207.339Z" fill="#666B96"/>
<path d="M352.514 207.34L372.898 219.962" stroke="#191D3A" stroke-width="0.821462" stroke-miterlimit="10" stroke-linecap="round"/>
<path d="M372.197 207.671V198.745L360.414 196.121C360.437 197.064 360.682 197.987 361.127 198.818C361.573 199.648 362.208 200.362 362.981 200.902L372.197 207.671Z" fill="#191D3A"/>
<path d="M374.197 188.088C373.971 187.623 373.619 187.231 373.181 186.958C372.743 186.684 372.237 186.539 371.72 186.539H365.689C365.583 186.539 365.479 186.539 365.376 186.552C364.397 186.631 363.484 187.075 362.818 187.797C362.153 188.518 361.783 189.464 361.783 190.446V191.669C359.91 191.537 358.431 189.918 358.431 187.944C358.431 185.881 360.045 184.209 362.033 184.209C362.316 184.209 362.598 184.243 362.872 184.312C363.515 183.1 366.896 177.24 370.486 180.4C371.437 181.23 370.593 182.918 370.533 183.037C370.699 182.856 374.333 178.903 377.545 181.967C380.047 184.355 376.182 186.975 374.197 188.088Z" fill="#191D3A"/>
<path d="M374.475 189.294V196.447C374.475 197.471 374.068 198.454 373.344 199.178C372.62 199.902 371.637 200.309 370.613 200.309H365.638C364.614 200.309 363.632 199.902 362.908 199.178C362.183 198.454 361.777 197.471 361.777 196.447V196.421H359.046C358.28 196.421 357.546 196.117 357.005 195.576C356.464 195.035 356.16 194.301 356.16 193.535V192.962C356.16 192.196 356.464 191.463 357.005 190.922C357.546 190.38 358.28 190.076 359.046 190.076H359.495C359.929 190.075 360.357 190.168 360.751 190.35C361.146 190.531 361.495 190.796 361.777 191.126V190.446C361.777 189.41 362.188 188.416 362.921 187.684C363.653 186.951 364.647 186.54 365.683 186.54H371.714C372.076 186.539 372.435 186.609 372.77 186.747C373.105 186.885 373.409 187.088 373.666 187.344C373.922 187.6 374.126 187.904 374.265 188.238C374.403 188.573 374.475 188.932 374.475 189.294Z" fill="#666B96"/>
<path d="M373.745 190.182C373.745 190.182 369.818 189.519 370.399 191.096C370.979 192.673 370.983 194.385 370.58 195.231" stroke="#191D3A" stroke-width="0.821462" stroke-miterlimit="10" stroke-linecap="round"/>
<path d="M366.932 193.54C367.22 193.54 367.453 193.223 367.453 192.831C367.453 192.439 367.22 192.121 366.932 192.121C366.644 192.121 366.411 192.439 366.411 192.831C366.411 193.223 366.644 193.54 366.932 193.54Z" fill="#191D3A"/>
<path d="M372.318 193.54C372.605 193.54 372.838 193.223 372.838 192.831C372.838 192.439 372.605 192.121 372.318 192.121C372.03 192.121 371.797 192.439 371.797 192.831C371.797 193.223 372.03 193.54 372.318 193.54Z" fill="#191D3A"/>
<path d="M370.388 196.919C370.388 196.919 368.456 197.416 368.215 196.028" stroke="#191D3A" stroke-width="0.821462" stroke-miterlimit="10" stroke-linecap="round"/>
<path d="M364.536 190.359C365.571 189.877 366.731 189.73 367.853 189.94" stroke="#191D3A" stroke-width="0.821462" stroke-miterlimit="10" stroke-linecap="round"/>
<path d="M360.885 193.732C360.885 193.193 360.671 192.676 360.29 192.295C359.908 191.913 359.391 191.699 358.852 191.699" stroke="#191D3A" stroke-width="0.821462" stroke-miterlimit="10" stroke-linecap="round"/>
<path d="M362.354 189.91C363.931 189.91 365.209 188.632 365.209 187.055C365.209 185.478 363.931 184.199 362.354 184.199C360.777 184.199 359.498 185.478 359.498 187.055C359.498 188.632 360.777 189.91 362.354 189.91Z" fill="#191D3A"/>
<path d="M508.694 353.145C508.694 366.371 499.511 377.091 487.003 377.091H481.223C493.289 377.091 503.069 366.371 503.069 353.145C503.069 339.92 493.286 329.198 481.223 329.198H487.011C499.511 329.198 508.694 339.928 508.694 353.145Z" fill="white" stroke="#191D3A" stroke-width="0.821462" stroke-miterlimit="10"/>
<path d="M481.224 377.093C493.29 377.093 503.071 366.372 503.071 353.146C503.071 339.92 493.29 329.198 481.224 329.198C469.159 329.198 459.378 339.92 459.378 353.146C459.378 366.372 469.159 377.093 481.224 377.093Z" fill="#666B96" stroke="#191D3A" stroke-width="0.821462" stroke-miterlimit="10"/>
<path d="M481.221 367.848C488.535 367.848 494.464 361.349 494.464 353.332C494.464 345.316 488.535 338.817 481.221 338.817C473.908 338.817 467.979 345.316 467.979 353.332C467.979 361.349 473.908 367.848 481.221 367.848Z" stroke="#191D3A" stroke-width="0.821462" stroke-miterlimit="10"/>
<path d="M534.67 297.644L462.99 262.474L414.019 171.655L412.21 168.298C410.705 165.48 408.463 163.125 405.724 161.482C402.985 159.84 399.851 158.972 396.657 158.972H143.759C139.751 158.972 135.862 160.338 132.734 162.844C129.606 165.351 127.426 168.849 126.552 172.761L87.988 345.632H543.16V311.817C543.159 308.907 542.368 306.053 540.873 303.557C539.378 301.061 537.234 299.018 534.67 297.644ZM199.398 262.474H129.482C128.288 262.474 127.109 262.206 126.032 261.689C124.956 261.172 124.009 260.42 123.262 259.488C122.515 258.556 121.987 257.469 121.716 256.305C121.446 255.142 121.441 253.933 121.701 252.767L137.515 181.878C138.162 178.978 139.778 176.385 142.096 174.526C144.415 172.668 147.298 171.655 150.269 171.655H220.187C221.381 171.655 222.56 171.924 223.636 172.44C224.713 172.957 225.659 173.709 226.406 174.641C227.153 175.572 227.681 176.66 227.951 177.823C228.221 178.986 228.227 180.195 227.967 181.361L212.155 252.25C211.507 255.15 209.89 257.743 207.571 259.601C205.252 261.459 202.37 262.471 199.398 262.471V262.474ZM305.965 262.474H232.441C231.247 262.474 230.067 262.206 228.991 261.689C227.914 261.172 226.967 260.42 226.22 259.488C225.474 258.556 224.946 257.469 224.676 256.305C224.406 255.142 224.4 253.933 224.661 252.767L240.475 181.878C241.121 178.978 242.737 176.384 245.056 174.526C247.375 172.668 250.258 171.655 253.229 171.655H326.753C327.947 171.655 329.126 171.924 330.203 172.44C331.279 172.957 332.226 173.709 332.973 174.641C333.72 175.572 334.248 176.66 334.518 177.823C334.788 178.986 334.793 180.195 334.534 181.361L318.719 252.25C318.072 255.15 316.456 257.743 314.138 259.601C311.819 261.459 308.936 262.471 305.965 262.471V262.474ZM446.804 262.474H342.781C341.35 262.474 339.937 262.153 338.647 261.533C337.357 260.914 336.223 260.013 335.328 258.896C334.433 257.779 333.8 256.476 333.477 255.082C333.153 253.688 333.147 252.239 333.459 250.842L348.844 181.878C349.49 178.978 351.106 176.384 353.425 174.526C355.744 172.668 358.627 171.655 361.598 171.655H401.264C403.485 171.655 405.664 172.257 407.571 173.395C409.478 174.534 411.042 176.167 412.095 178.122L452.465 252.991C454.775 257.271 451.673 262.471 446.804 262.471V262.474Z" fill="#C7E1E9"/>
<path d="M555.121 349.298V353.444C555.121 354.416 554.735 355.349 554.048 356.036C553.36 356.724 552.428 357.11 551.455 357.11H79.6917C79.2101 357.11 78.7332 357.016 78.2882 356.832C77.8432 356.647 77.4388 356.377 77.0982 356.037C76.7576 355.696 76.4874 355.292 76.303 354.847C76.1187 354.402 76.0238 353.925 76.0238 353.444V349.298C76.0236 348.817 76.1183 348.34 76.3026 347.895C76.4869 347.45 76.7571 347.045 77.0977 346.705C77.4384 346.364 77.8428 346.094 78.2879 345.91C78.733 345.726 79.21 345.632 79.6917 345.632H551.455C551.937 345.632 552.414 345.727 552.858 345.911C553.303 346.095 553.708 346.365 554.048 346.705C554.389 347.046 554.659 347.45 554.843 347.895C555.027 348.34 555.122 348.817 555.121 349.298Z" fill="white" stroke="#191D3A" stroke-width="0.821462" stroke-miterlimit="10"/>
<path d="M437.737 349.298V353.444C437.737 354.416 437.351 355.349 436.663 356.036C435.976 356.724 435.043 357.11 434.071 357.11H79.6917C79.2101 357.11 78.7332 357.016 78.2882 356.832C77.8432 356.647 77.4388 356.377 77.0982 356.037C76.7576 355.696 76.4874 355.292 76.303 354.847C76.1187 354.402 76.0238 353.925 76.0238 353.444V349.298C76.0236 348.817 76.1183 348.34 76.3026 347.895C76.4869 347.45 76.7571 347.045 77.0977 346.705C77.4384 346.364 77.8428 346.094 78.2879 345.91C78.733 345.726 79.21 345.632 79.6917 345.632H434.071C434.552 345.632 435.029 345.727 435.474 345.911C435.919 346.095 436.323 346.365 436.664 346.705C437.004 347.046 437.274 347.45 437.458 347.895C437.642 348.34 437.737 348.817 437.737 349.298Z" fill="white" stroke="#191D3A" stroke-width="0.821462" stroke-miterlimit="10"/>
<path d="M533.258 324.632C538.701 324.632 543.113 318.833 543.113 311.68C543.113 304.526 538.701 298.728 533.258 298.728C527.815 298.728 523.403 304.526 523.403 311.68C523.403 318.833 527.815 324.632 533.258 324.632Z" fill="white"/>
<path d="M531.624 322.893C537.261 322.893 541.831 317.269 541.831 310.33C541.831 303.392 537.261 297.768 531.624 297.768C525.986 297.768 521.416 303.392 521.416 310.33C521.416 317.269 525.986 322.893 531.624 322.893Z" stroke="#191D3A" stroke-width="0.821462" stroke-miterlimit="10" stroke-linecap="round"/>
<path d="M531.082 297.768H528.197C522.559 297.768 517.989 303.393 517.989 310.33C517.989 317.268 522.559 322.893 528.197 322.893H531.082" stroke="#191D3A" stroke-width="0.821462" stroke-miterlimit="10" stroke-linecap="round"/>
<path d="M439.3 324.632C444.742 324.632 449.154 318.833 449.154 311.68C449.154 304.526 444.742 298.728 439.3 298.728C433.857 298.728 429.445 304.526 429.445 311.68C429.445 318.833 433.857 324.632 439.3 324.632Z" fill="white"/>
<path d="M437.668 322.893C443.305 322.893 447.875 317.269 447.875 310.33C447.875 303.392 443.305 297.768 437.668 297.768C432.03 297.768 427.46 303.392 427.46 310.33C427.46 317.269 432.03 322.893 437.668 322.893Z" stroke="#191D3A" stroke-width="0.821462" stroke-miterlimit="10" stroke-linecap="round"/>
<path d="M437.125 297.768H434.24C428.602 297.768 424.032 303.393 424.032 310.331C424.032 317.269 428.602 322.893 434.24 322.893H437.125" stroke="#191D3A" stroke-width="0.821462" stroke-miterlimit="10" stroke-linecap="round"/>
<path d="M418.92 345.631V311.816C418.92 308.907 418.131 306.052 416.636 303.555C415.142 301.059 412.998 299.015 410.434 297.64L346.446 267.854" stroke="#191D3A" stroke-width="0.821462" stroke-miterlimit="10" stroke-linecap="round"/>
<path d="M199.153 338.345L236.57 170.761C236.786 169.792 237.327 168.925 238.102 168.304C238.877 167.682 239.841 167.344 240.834 167.344H337.13C337.942 167.344 338.743 167.527 339.475 167.878C340.207 168.23 340.85 168.741 341.358 169.375C341.866 170.008 342.225 170.747 342.408 171.538C342.592 172.329 342.596 173.151 342.42 173.943L305.714 338.34" stroke="#191D3A" stroke-width="0.821462" stroke-miterlimit="10" stroke-linecap="round"/>
<path d="M202.018 267.854H124.64" stroke="#191D3A" stroke-width="0.821462" stroke-miterlimit="10" stroke-linecap="round"/>
<path d="M128.735 167.344H412.21" stroke="#191D3A" stroke-width="0.821462" stroke-miterlimit="10" stroke-linecap="round"/>
<path d="M453.416 307.341H514.472" stroke="#191D3A" stroke-width="0.821462" stroke-miterlimit="10" stroke-linecap="round"/>
<path d="M357.673 267.854H457.008" stroke="#191D3A" stroke-width="0.821462" stroke-miterlimit="10" stroke-linecap="round"/>
<path d="M104.032 336.943C110.441 321.986 124.69 311.572 141.237 311.572C158.359 311.572 173.018 322.714 179.08 338.509H322.16C327.778 321.969 342.637 311.572 359.184 311.572C376.306 311.572 390.965 322.714 397.025 338.509" stroke="#191D3A" stroke-width="0.821462" stroke-miterlimit="10" stroke-linecap="round"/>
<path d="M505.283 313.085H462.603C460.879 313.085 459.481 314.483 459.481 316.207V333.893C459.481 335.618 460.879 337.016 462.603 337.016H505.283C507.008 337.016 508.405 335.618 508.405 333.893V316.207C508.405 314.483 507.008 313.085 505.283 313.085Z" stroke="white" stroke-width="0.985754" stroke-miterlimit="10" stroke-linecap="round"/>
<path d="M466.338 319.785H501.545" stroke="#191D3A" stroke-width="0.821462" stroke-miterlimit="10" stroke-linecap="round"/>
<path d="M466.338 325.375H501.545" stroke="#191D3A" stroke-width="0.821462" stroke-miterlimit="10" stroke-linecap="round"/>
<path d="M466.338 330.965H501.545" stroke="#191D3A" stroke-width="0.821462" stroke-miterlimit="10" stroke-linecap="round"/>
<path d="M173.241 345.632H109.235C112.613 330.597 125.661 319.389 141.238 319.389C156.815 319.389 169.863 330.597 173.241 345.632Z" fill="#191D3A"/>
<path d="M165.785 353.273C165.785 366.499 156.6 377.22 144.092 377.22H138.313C150.378 377.22 160.16 366.499 160.16 353.273C160.16 340.047 150.377 329.325 138.313 329.325H144.097C156.6 329.325 165.785 340.047 165.785 353.273Z" fill="#666B96" stroke="#191D3A" stroke-width="0.821462" stroke-miterlimit="10"/>
<path d="M138.312 377.22C150.378 377.22 160.159 366.499 160.159 353.273C160.159 340.047 150.378 329.325 138.312 329.325C126.247 329.325 116.466 340.047 116.466 353.273C116.466 366.499 126.247 377.22 138.312 377.22Z" fill="white" stroke="#191D3A" stroke-width="0.821462" stroke-miterlimit="10"/>
<path d="M139.901 369.421C147.215 369.421 153.144 362.922 153.144 354.905C153.144 346.888 147.215 340.389 139.901 340.389C132.588 340.389 126.659 346.888 126.659 354.905C126.659 362.922 132.588 369.421 139.901 369.421Z" fill="#666B96"/>
<path d="M138.314 367.976C145.628 367.976 151.557 361.477 151.557 353.46C151.557 345.443 145.628 338.944 138.314 338.944C131.001 338.944 125.072 345.443 125.072 353.46C125.072 361.477 131.001 367.976 138.314 367.976Z" stroke="#191D3A" stroke-width="0.821462" stroke-miterlimit="10"/>
<path d="M138.276 355.607C139.466 355.607 140.431 354.642 140.431 353.452C140.431 352.261 139.466 351.296 138.276 351.296C137.085 351.296 136.12 352.261 136.12 353.452C136.12 354.642 137.085 355.607 138.276 355.607Z" stroke="#191D3A" stroke-width="0.821462" stroke-miterlimit="10"/>
<path d="M391.186 345.632H327.18C330.557 330.597 343.606 319.389 359.183 319.389C374.76 319.389 387.808 330.597 391.186 345.632Z" fill="#191D3A"/>
<path d="M383.73 353.273C383.73 366.499 374.545 377.22 362.038 377.22H356.259C368.324 377.22 378.105 366.499 378.105 353.273C378.105 340.047 368.322 329.325 356.259 329.325H362.038C374.545 329.325 383.73 340.047 383.73 353.273Z" fill="#666B96" stroke="#191D3A" stroke-width="0.821462" stroke-miterlimit="10"/>
<path d="M356.26 377.22C368.325 377.22 378.107 366.499 378.107 353.273C378.107 340.047 368.325 329.325 356.26 329.325C344.194 329.325 334.413 340.047 334.413 353.273C334.413 366.499 344.194 377.22 356.26 377.22Z" fill="white" stroke="#191D3A" stroke-width="0.821462" stroke-miterlimit="10"/>
<path d="M357.849 369.421C365.163 369.421 371.091 362.922 371.091 354.905C371.091 346.888 365.163 340.389 357.849 340.389C350.535 340.389 344.607 346.888 344.607 354.905C344.607 362.922 350.535 369.421 357.849 369.421Z" fill="#666B96"/>
<path d="M356.26 367.976C363.573 367.976 369.502 361.477 369.502 353.46C369.502 345.443 363.573 338.944 356.26 338.944C348.946 338.944 343.017 345.443 343.017 353.46C343.017 361.477 348.946 367.976 356.26 367.976Z" stroke="#191D3A" stroke-width="0.821462" stroke-miterlimit="10"/>
<path d="M356.225 355.607C357.416 355.607 358.381 354.642 358.381 353.452C358.381 352.261 357.416 351.296 356.225 351.296C355.035 351.296 354.07 352.261 354.07 353.452C354.07 354.642 355.035 355.607 356.225 355.607Z" stroke="#191D3A" stroke-width="0.821462" stroke-miterlimit="10"/>
<path d="M355.776 130.681V153.753C355.776 154.438 355.641 155.116 355.379 155.748C355.117 156.381 354.733 156.956 354.249 157.44C353.764 157.925 353.19 158.309 352.557 158.571C351.924 158.833 351.246 158.968 350.561 158.968H182.464C181.78 158.968 181.102 158.833 180.469 158.571C179.836 158.309 179.262 157.925 178.777 157.44C178.293 156.956 177.909 156.381 177.647 155.748C177.386 155.116 177.251 154.438 177.251 153.753V130.679C177.251 129.994 177.386 129.316 177.647 128.684C177.909 128.051 178.293 127.476 178.778 126.992C179.262 126.508 179.837 126.124 180.469 125.862C181.102 125.6 181.78 125.466 182.464 125.466H350.56C351.943 125.466 353.269 126.015 354.248 126.993C355.226 127.971 355.776 129.298 355.776 130.681Z" fill="#FED4C7"/>
<path d="M355.777 130.681V153.753C355.777 154.438 355.642 155.116 355.38 155.748C355.118 156.381 354.734 156.956 354.25 157.44C353.765 157.925 353.191 158.309 352.558 158.571C351.925 158.833 351.247 158.968 350.562 158.968H292.637C291.254 158.967 289.928 158.418 288.95 157.44C287.973 156.462 287.423 155.136 287.423 153.753V130.679C287.423 129.296 287.973 127.97 288.95 126.993C289.928 126.015 291.254 125.466 292.637 125.466H350.56C351.944 125.466 353.27 126.015 354.249 126.993C355.227 127.971 355.777 129.298 355.777 130.681Z" fill="#666B96"/>
<path d="M353.605 132.098V152.338C353.605 154.865 351.431 156.913 348.748 156.913H294.809C292.127 156.913 289.954 154.865 289.954 152.338V132.096C289.954 129.569 292.127 127.521 294.809 127.521H348.746C351.429 127.515 353.605 129.571 353.605 132.098Z" stroke="#FED4C7" stroke-width="0.821462" stroke-miterlimit="10" stroke-linecap="round"/>
<path d="M289.943 142.126H353.076" stroke="#FED4C7" stroke-width="0.821462" stroke-miterlimit="10" stroke-linecap="round"/>
<path d="M316.077 56.4277H316.386C316.853 56.4277 317.301 56.6133 317.631 56.9435C317.961 57.2738 318.147 57.7217 318.147 58.1887V68.6353H314.318V58.1887C314.318 57.7217 314.504 57.2738 314.834 56.9435C315.164 56.6133 315.612 56.4277 316.079 56.4277H316.077Z" stroke="#191D3A" stroke-width="0.821462" stroke-miterlimit="10" stroke-linecap="round"/>
<path d="M304.213 68.093H328.018C329.257 68.093 330.446 68.5855 331.323 69.4621C332.199 70.3387 332.692 71.5277 332.692 72.7674V125.466H299.538V72.7674C299.538 71.5277 300.031 70.3387 300.907 69.4621C301.784 68.5855 302.973 68.093 304.213 68.093Z" fill="#191D3A"/>
<path d="M332.69 72.7674V73.6944L316.692 89.2216V125.466H315.863V89.1918L299.538 73.6794V72.7674C299.538 72.6912 299.538 72.6165 299.538 72.5419L315.863 88.0493V68.093H316.692V88.0659L332.684 72.5452C332.689 72.6182 332.69 72.6928 332.69 72.7674Z" fill="white"/>
<path d="M321.191 158.968V147.482" stroke="#191D3A" stroke-width="0.821462" stroke-miterlimit="10"/>
<path d="M153.318 158.968V147.482" stroke="#191D3A" stroke-width="0.821462" stroke-miterlimit="10"/>
<path d="M388.089 158.968V147.482" stroke="#191D3A" stroke-width="0.821462" stroke-miterlimit="10"/>
<path d="M144.048 147.482H394.368" stroke="#191D3A" stroke-width="0.821462" stroke-miterlimit="10" stroke-linecap="round"/>
<path d="M207.848 86.9353H293.112C294.815 86.9353 296.449 87.6116 297.654 88.8155C298.858 90.0194 299.536 91.6525 299.537 93.3558V125.467H202.01V92.7738C202.01 92.007 202.161 91.2478 202.454 90.5395C202.747 89.8311 203.177 89.1875 203.72 88.6453C204.262 88.1032 204.905 87.6731 205.614 87.3797C206.322 87.0863 207.081 86.9353 207.848 86.9353Z" fill="#4361EE"/>
<path d="M299.177 125.466V93.3109C299.177 91.7169 298.544 90.1882 297.418 89.0605C296.291 87.9328 294.763 87.2984 293.169 87.2966H286.081C284.397 87.2966 282.782 87.9656 281.591 89.1563C280.4 90.347 279.731 91.9619 279.731 93.6458V125.466" stroke="white" stroke-width="0.821462" stroke-miterlimit="10"/>
<path d="M207.457 86.9353V125.467" stroke="white" stroke-width="0.821462" stroke-miterlimit="10"/>
<path d="M213.046 86.9353V125.467" stroke="white" stroke-width="0.821462" stroke-miterlimit="10"/>
<path d="M218.638 86.9353V125.467" stroke="white" stroke-width="0.821462" stroke-miterlimit="10"/>
<path d="M224.225 86.9353V125.467" stroke="white" stroke-width="0.821462" stroke-miterlimit="10"/>
<path d="M229.814 86.9353V125.467" stroke="white" stroke-width="0.821462" stroke-miterlimit="10"/>
<path d="M235.405 86.9353V125.467" stroke="white" stroke-width="0.821462" stroke-miterlimit="10"/>
<path d="M240.995 86.9353V125.467" stroke="white" stroke-width="0.821462" stroke-miterlimit="10"/>
<path d="M246.584 86.9353V125.467" stroke="white" stroke-width="0.821462" stroke-miterlimit="10"/>
<path d="M252.175 86.9353V125.467" stroke="white" stroke-width="0.821462" stroke-miterlimit="10"/>
<path d="M257.764 86.9353V125.467" stroke="white" stroke-width="0.821462" stroke-miterlimit="10"/>
<path d="M263.353 86.9353V125.467" stroke="white" stroke-width="0.821462" stroke-miterlimit="10"/>
<path d="M268.943 86.9353V125.467" stroke="white" stroke-width="0.821462" stroke-miterlimit="10"/>
<path d="M274.534 86.9353V125.467" stroke="white" stroke-width="0.821462" stroke-miterlimit="10"/>
<path d="M202.01 120.264H279.276" stroke="white" stroke-width="0.821462" stroke-miterlimit="10"/>
<path d="M202.01 114.675H279.276" stroke="white" stroke-width="0.821462" stroke-miterlimit="10"/>
<path d="M202.01 109.085H279.276" stroke="white" stroke-width="0.821462" stroke-miterlimit="10"/>
<path d="M202.01 103.495H279.276" stroke="white" stroke-width="0.821462" stroke-miterlimit="10"/>
<path d="M202.01 97.9055H279.276" stroke="white" stroke-width="0.821462" stroke-miterlimit="10"/>
<path d="M202.01 92.3159H279.816" stroke="white" stroke-width="0.821462" stroke-miterlimit="10"/>
<path d="M289.451 87.2966V125.466" stroke="white" stroke-width="0.821462" stroke-miterlimit="10"/>
<path d="M258.307 79.614H258.804C259.565 79.614 260.295 79.9162 260.833 80.4542C261.371 80.9922 261.673 81.7219 261.673 82.4827V82.9801C261.673 83.7409 261.371 84.4706 260.833 85.0086C260.295 85.5466 259.565 85.8488 258.804 85.8488H255.433V82.4827C255.433 82.1055 255.508 81.7321 255.652 81.3837C255.797 81.0354 256.008 80.7189 256.275 80.4525C256.542 80.186 256.859 79.9748 257.208 79.831C257.556 79.6871 257.93 79.6134 258.307 79.614Z" stroke="#191D3A" stroke-width="0.821462" stroke-miterlimit="10" stroke-linecap="round"/>
<path d="M251.163 77.0623H251.798C252.763 77.0623 253.687 77.4454 254.369 78.1273C255.051 78.8093 255.434 79.7342 255.434 80.6987V85.8539H251.163C250.199 85.8539 249.274 85.4708 248.592 84.7889C247.91 84.1069 247.527 83.182 247.527 82.2175V80.6987C247.527 79.7342 247.91 78.8093 248.592 78.1273C249.274 77.4454 250.199 77.0623 251.163 77.0623V77.0623Z" stroke="#191D3A" stroke-width="0.821462" stroke-miterlimit="10" stroke-linecap="round"/>
<path d="M255.436 85.854C253.448 85.8538 251.512 86.4926 249.915 87.6761C248.317 88.8595 247.142 90.5251 246.563 92.4271L230.137 147.479" stroke="#191D3A" stroke-width="0.821462" stroke-miterlimit="10" stroke-linecap="round"/>
<path d="M468.467 244.661C472.661 244.661 476.061 239.942 476.061 234.121C476.061 228.3 472.661 223.582 468.467 223.582C464.273 223.582 460.873 228.3 460.873 234.121C460.873 239.942 464.273 244.661 468.467 244.661Z" fill="#C7E1E9"/>
<path d="M466.62 243.686C470.814 243.686 474.215 238.968 474.215 233.147C474.215 227.326 470.814 222.607 466.62 222.607C462.426 222.607 459.026 227.326 459.026 233.147C459.026 238.968 462.426 243.686 466.62 243.686Z" stroke="#191D3A" stroke-width="0.821462" stroke-miterlimit="10" stroke-linecap="round"/>
<path d="M460.169 256.664C460.171 248.387 463.243 240.405 468.791 234.262" stroke="#191D3A" stroke-width="0.821462" stroke-miterlimit="10" stroke-linecap="round"/>
<path d="M250.37 215.608L291.141 208.831L302.989 238.299C303.852 240.444 304.08 242.791 303.647 245.062C303.214 247.333 302.138 249.431 300.547 251.108L298.509 253.264V262.479H249.758L250.37 215.608Z" fill="#191D3A"/>
<path d="M300.545 251.108C302.136 249.431 303.212 247.333 303.645 245.062C304.078 242.791 303.85 240.443 302.987 238.299L291.139 208.831C293.995 208.356 296.927 208.819 299.498 210.15C302.068 211.481 304.139 213.608 305.4 216.213L318.179 242.628C322.62 251.808 315.933 262.47 305.743 262.47H298.507V253.256L300.545 251.108Z" fill="#666B96"/>
<path d="M249.254 215.766C246.896 216.165 244.668 217.126 242.758 218.566C240.849 220.006 239.313 221.884 238.28 224.042L226.653 248.342C217.409 267.662 238.139 287.596 257.082 277.604L285.769 262.47H316.963C317.64 262.47 318.29 262.201 318.77 261.722C319.249 261.242 319.518 260.592 319.518 259.915C319.518 259.441 319.386 258.978 319.138 258.575C318.89 258.172 318.535 257.846 318.112 257.633L304.132 250.587C299.261 248.133 293.883 246.855 288.429 246.855H258.314L258.693 223.871C258.712 222.683 258.47 221.506 257.983 220.423C257.496 219.34 256.776 218.377 255.875 217.603C254.974 216.83 253.914 216.264 252.77 215.946C251.625 215.629 250.425 215.567 249.254 215.766Z" fill="#666B96"/>
<path d="M316.961 261.929C318.372 261.929 319.516 261.326 319.516 259.915C319.516 259.441 319.385 258.977 319.136 258.575C318.888 258.172 318.533 257.846 318.11 257.633L304.13 250.587C299.259 248.133 293.881 246.855 288.427 246.855H263.049C258.413 246.855 253.862 248.097 249.869 250.451" stroke="#191D3A" stroke-width="0.821462" stroke-miterlimit="10" stroke-linecap="round"/>
<path d="M282.167 257.781C282.167 258.88 282.604 259.935 283.381 260.712C284.159 261.489 285.213 261.926 286.313 261.926" stroke="#191D3A" stroke-width="0.821462" stroke-miterlimit="10" stroke-linecap="round"/>
<path d="M302.295 254.789L312.741 259.067C313.309 259.3 313.794 259.697 314.136 260.206C314.478 260.716 314.66 261.316 314.66 261.929" stroke="#191D3A" stroke-width="0.821462" stroke-miterlimit="10" stroke-linecap="round"/>
<path d="M295.373 255.721L303.541 259.067C304.109 259.3 304.594 259.697 304.936 260.206C305.278 260.716 305.46 261.316 305.46 261.929" stroke="#191D3A" stroke-width="0.821462" stroke-miterlimit="10" stroke-linecap="round"/>
<path d="M291.732 208.747L270.639 212.247C268.635 220.704 261.116 225.921 252.805 223.055C234.731 216.824 265.788 191.797 271.119 187.146C276.82 182.171 284.385 182.028 286.134 186.496C287.754 190.619 284.393 192.465 281.989 192.807C282.254 194.714 284.1 206.051 291.732 208.747Z" fill="#4361EE"/>
<path d="M280.425 202.056V211.892C280.425 213.358 279.842 214.764 278.805 215.801C277.769 216.838 276.363 217.42 274.896 217.42C273.43 217.42 272.024 216.838 270.987 215.801C269.95 214.764 269.368 213.358 269.368 211.892V197.257L280.425 202.056Z" fill="#666B96"/>
<path d="M269.368 197.257L280.425 202.056V210.63L273.724 206.428C272.363 205.319 271.265 203.92 270.512 202.334C269.758 200.747 269.368 199.013 269.368 197.257Z" fill="#191D3A"/>
<path d="M281.588 192.796V199.458C281.588 200.028 281.476 200.592 281.258 201.119C281.04 201.645 280.72 202.124 280.317 202.527C279.914 202.93 279.436 203.249 278.91 203.467C278.383 203.686 277.819 203.798 277.249 203.798H276.244C275.07 203.798 273.915 203.498 272.89 202.926C271.865 202.353 271.004 201.528 270.389 200.528H267.381C266.627 200.51 265.909 200.197 265.382 199.657C264.855 199.118 264.56 198.393 264.56 197.638C264.56 196.884 264.855 196.159 265.382 195.619C265.909 195.079 266.627 194.767 267.381 194.749H268.283C268.709 194.748 269.125 194.881 269.472 195.129L274.481 189.401C277.665 192.991 281.588 192.796 281.588 192.796Z" fill="#666B96"/>
<path d="M268.889 198.057C268.889 197.562 268.693 197.088 268.343 196.739C267.994 196.389 267.519 196.193 267.025 196.193" stroke="#191D3A" stroke-width="0.821462" stroke-miterlimit="10" stroke-linecap="round"/>
<path d="M281.226 193.657C281.226 193.657 279.522 193.47 278.408 194.736C277.691 195.552 277.661 197.555 278.588 198.872" stroke="#191D3A" stroke-width="0.821462" stroke-miterlimit="10" stroke-linecap="round"/>
<path d="M274.948 197.181C275.235 197.181 275.469 196.863 275.469 196.471C275.469 196.079 275.235 195.761 274.948 195.761C274.66 195.761 274.427 196.079 274.427 196.471C274.427 196.863 274.66 197.181 274.948 197.181Z" fill="#191D3A"/>
<path d="M279.793 197.181C280.081 197.181 280.314 196.863 280.314 196.471C280.314 196.079 280.081 195.761 279.793 195.761C279.506 195.761 279.273 196.079 279.273 196.471C279.273 196.863 279.506 197.181 279.793 197.181Z" fill="#191D3A"/>
<path d="M278.41 200.56C278.41 200.56 276.478 201.058 276.238 199.67" stroke="#191D3A" stroke-width="0.821462" stroke-miterlimit="10" stroke-linecap="round"/>
<path d="M272.552 194.357C272.552 194.357 274.018 193.219 275.869 193.578" stroke="#191D3A" stroke-width="0.821462" stroke-miterlimit="10" stroke-linecap="round"/>
<path d="M219.503 219.284L212.07 252.541C211.463 255.256 209.98 257.696 207.851 259.486C205.721 261.277 203.062 262.317 200.283 262.448C200.086 262.448 199.885 262.463 199.685 262.463H129.238C128.058 262.463 126.893 262.198 125.829 261.686C124.765 261.174 123.831 260.43 123.094 259.508C122.357 258.586 121.837 257.509 121.573 256.359C121.309 255.209 121.307 254.014 121.568 252.862L125.526 235.39C126.56 230.817 129.119 226.732 132.781 223.806C136.444 220.879 140.993 219.284 145.681 219.284H219.503Z" fill="#FED4C7"/>
<path d="M136.165 262.47C141.637 252.223 153.938 245.083 168.228 245.083C182.518 245.083 194.261 252.213 199.745 262.455L136.165 262.47Z" fill="white"/>
<path d="M181.976 247.473L177.848 262.46V262.47H177V262.46L177.446 246.122C178.983 246.476 180.496 246.928 181.976 247.473Z" fill="#191D3A"/>
<path d="M199.824 238.179V262.47H177.808L184.589 238.179C184.589 239.579 187.971 240.713 192.147 240.713C196.322 240.713 199.325 239.486 199.824 238.179Z" fill="white"/>
<path d="M199.824 238.179C199.326 239.486 196.32 240.713 192.146 240.713C187.973 240.713 184.588 239.579 184.588 238.179V227.733C184.588 227.733 185.749 227.283 187.18 229.049C188.611 230.815 189.667 230.187 190.321 228.718C191.052 227.089 193.733 219.266 197.501 219.266C200.563 219.266 200.154 225.333 199.978 227.116C199.976 227.144 199.983 227.173 199.998 227.197C200.013 227.221 200.036 227.239 200.063 227.25C200.089 227.26 200.118 227.261 200.146 227.254C200.173 227.246 200.198 227.23 200.215 227.207C200.756 226.499 201.913 225.088 202.497 225.179C203.274 225.315 200.063 237.558 199.824 238.179Z" fill="#666B96"/>
<path d="M196.488 219.904L193.73 228.576" stroke="#191D3A" stroke-width="0.821462" stroke-miterlimit="10" stroke-linecap="round"/>
<path d="M198.654 220.46L196.077 228.939" stroke="#191D3A" stroke-width="0.821462" stroke-miterlimit="10" stroke-linecap="round"/>
<path d="M200.064 227.25L199.406 229.235" stroke="#191D3A" stroke-width="0.821462" stroke-miterlimit="10" stroke-linecap="round"/>
<path d="M161.723 241.369H173.341V245.09C173.341 246.528 172.77 247.906 171.753 248.923C170.736 249.94 169.358 250.511 167.92 250.511H167.147C165.71 250.511 164.331 249.94 163.314 248.923C162.298 247.906 161.727 246.528 161.727 245.09V241.369H161.723Z" fill="#666B96"/>
<path d="M161.723 241.369H173.341V245.128C173.341 245.928 173.162 246.718 172.818 247.44C172.474 248.162 171.972 248.798 171.351 249.302L165.166 246.624C164.142 246.179 163.271 245.444 162.66 244.511C162.048 243.577 161.723 242.485 161.723 241.369Z" fill="#191D3A"/>
<path d="M161.74 238.339C161.74 238.478 161.795 238.612 161.894 238.711C161.992 238.81 162.126 238.865 162.266 238.866H162.549C162.689 238.866 162.823 238.81 162.922 238.711C163.021 238.613 163.076 238.478 163.076 238.339V237.72C163.076 236.969 163.224 236.225 163.512 235.531C163.799 234.837 164.221 234.207 164.752 233.675C165.283 233.144 165.914 232.723 166.608 232.436C167.302 232.149 168.046 232.001 168.797 232.001H175.13L175.528 239.315C175.565 240.007 175.462 240.7 175.223 241.35C174.984 242.001 174.615 242.596 174.138 243.099C173.662 243.603 173.088 244.003 172.451 244.277C171.814 244.551 171.128 244.693 170.435 244.693H166.908C166.043 244.693 165.192 244.473 164.435 244.053C163.678 243.633 163.04 243.028 162.582 242.293H159.332C158.963 242.293 158.598 242.22 158.257 242.078C157.916 241.936 157.607 241.728 157.347 241.466C157.086 241.204 156.881 240.893 156.742 240.552C156.602 240.21 156.532 239.844 156.535 239.474C156.553 238.727 156.864 238.017 157.401 237.497C157.938 236.978 158.658 236.69 159.405 236.697H160.097C160.532 236.697 160.949 236.869 161.257 237.177C161.565 237.484 161.739 237.9 161.74 238.335V238.339Z" fill="#666B96"/>
<path d="M163.075 238.338C163.075 238.478 163.02 238.612 162.921 238.711C162.822 238.81 162.688 238.866 162.548 238.866H162.264C162.125 238.865 161.991 238.809 161.893 238.711C161.794 238.612 161.739 238.478 161.739 238.338C161.738 237.904 161.565 237.487 161.258 237.18C160.951 236.873 160.535 236.7 160.1 236.7L159.722 233.991C159.722 231.689 161.372 229.823 163.407 229.823C163.787 229.823 164.164 229.889 164.521 230.017C164.864 228.086 166.474 226.622 168.41 226.622C169.293 226.622 170.148 226.931 170.829 227.494C171.109 226.567 171.679 225.755 172.455 225.176C173.231 224.597 174.172 224.282 175.14 224.277C177.627 224.277 179.654 226.343 179.654 228.893C179.654 231.444 177.632 233.51 175.14 233.51C174.509 233.509 173.884 233.374 173.309 233.114C172.733 232.854 172.22 232.474 171.802 232.001H168.804C167.33 231.999 165.911 232.568 164.846 233.588C163.781 234.607 163.151 235.999 163.088 237.473L163.075 238.338Z" fill="#4361EE"/>
<path d="M160.643 239.252C160.584 238.908 160.406 238.595 160.139 238.369C159.872 238.143 159.534 238.019 159.184 238.019" stroke="#191D3A" stroke-width="0.821462" stroke-miterlimit="10" stroke-linecap="round"/>
<path d="M174.69 235.211C174.69 235.211 173.083 234.52 171.886 235.944C171.186 236.774 170.848 238.866 171.526 239.899" stroke="#191D3A" stroke-width="0.821462" stroke-miterlimit="10" stroke-linecap="round"/>
<path d="M168.238 238.569C168.525 238.569 168.759 238.251 168.759 237.859C168.759 237.467 168.525 237.149 168.238 237.149C167.95 237.149 167.717 237.467 167.717 237.859C167.717 238.251 167.95 238.569 168.238 238.569Z" fill="#191D3A"/>
<path d="M173.083 238.569C173.371 238.569 173.604 238.251 173.604 237.859C173.604 237.467 173.371 237.149 173.083 237.149C172.796 237.149 172.563 237.467 172.563 237.859C172.563 238.251 172.796 238.569 173.083 238.569Z" fill="#191D3A"/>
<path d="M171.333 241.763C171.333 241.763 169.533 241.942 169.16 241.051" stroke="#191D3A" stroke-width="0.821462" stroke-miterlimit="10" stroke-linecap="round"/>
<path d="M166.022 236.105C166.022 236.105 166.779 234.957 168.802 234.966" stroke="#191D3A" stroke-width="0.821462" stroke-miterlimit="10" stroke-linecap="round"/>
<path d="M506.228 50.0839C519.921 50.0839 531.022 38.9836 531.022 25.2907C531.022 11.5978 519.921 0.497559 506.228 0.497559C492.535 0.497559 481.435 11.5978 481.435 25.2907C481.435 38.9836 492.535 50.0839 506.228 50.0839Z" stroke="#C7E1E9" stroke-width="0.985754" stroke-miterlimit="10"/>
</g>
<defs>
<clipPath id="clip0">
<rect width="680" height="388.46" fill="white"/>
</clipPath>
</defs>
</svg>
