<svg width="370" height="283" viewBox="0 0 370 283" fill="none" xmlns="http://www.w3.org/2000/svg">
<g clip-path="url(#clip0)">
<path d="M128.205 275.615L131.84 276.707L137.77 263.164L132.405 261.552L128.205 275.615Z" fill="#FFB8B8"/>
<path d="M127.634 274.146L134.793 276.297L134.793 276.297C136.003 276.66 137.019 277.491 137.618 278.606C138.218 279.721 138.351 281.029 137.988 282.243L137.944 282.392L126.223 278.87L127.634 274.146Z" fill="#191D3A"/>
<path d="M162.751 278.594L166.314 277.284L162.971 262.878L157.712 264.811L162.751 278.594Z" fill="#FFB8B8"/>
<path d="M161.416 277.761L168.432 275.181L168.432 275.181C169.618 274.745 170.928 274.799 172.074 275.332C173.22 275.865 174.108 276.832 174.543 278.021L174.596 278.167L163.109 282.392L161.416 277.761Z" fill="#191D3A"/>
<path d="M134.301 251.099L128.11 271.587L135.538 273.76L142.658 254.824L134.301 251.099Z" fill="#191D3A"/>
<path d="M153.801 255.755L159.372 275.002L167.11 271.277L161.539 253.271L153.801 255.755Z" fill="#191D3A"/>
<path d="M150.901 259.226C145.946 259.204 141.002 258.746 136.127 257.86L136.003 257.835V253.1L133.174 252.784L135.382 244.875C134.353 232.689 135.815 217.256 136.288 212.815C136.397 211.773 136.468 211.188 136.468 211.188L138.951 190.022L143.105 186.176L144.992 187.408L148.493 190.919C152.562 200.963 155.791 210.418 155.812 211.026L169.458 254.885L169.366 254.95C164.628 258.305 157.404 259.226 150.901 259.226Z" fill="#3F3D56"/>
<path opacity="0.2" d="M140.712 199.411L139.758 205.384L146.217 208.056L140.712 199.411Z" fill="black"/>
<path d="M153.387 186.145H138.452C138.145 186.145 137.85 186.022 137.633 185.804C137.416 185.587 137.293 185.291 137.293 184.983V178.527C137.297 176.235 138.208 174.039 139.826 172.42C141.443 170.801 143.634 169.892 145.919 169.892C148.204 169.892 150.396 170.801 152.013 172.42C153.63 174.039 154.541 176.235 154.545 178.527V184.983C154.545 185.291 154.423 185.587 154.206 185.804C153.988 186.022 153.694 186.145 153.387 186.145Z" fill="#191D3A"/>
<path d="M147.568 185.756C151.061 185.756 153.893 182.916 153.893 179.413C153.893 175.91 151.061 173.07 147.568 173.07C144.075 173.07 141.244 175.91 141.244 179.413C141.244 182.916 144.075 185.756 147.568 185.756Z" fill="#FFB8B8"/>
<path d="M156.586 179.172H147.454L147.36 177.857L146.892 179.172H145.486L145.3 176.566L144.372 179.172H141.651V179.043C141.653 177.229 142.373 175.489 143.652 174.206C144.931 172.923 146.666 172.201 148.475 172.199H149.763C151.572 172.201 153.306 172.923 154.585 174.206C155.865 175.489 156.584 177.229 156.586 179.043V179.172Z" fill="#191D3A"/>
<path d="M147.379 187.35C147.31 187.35 147.242 187.344 147.174 187.332L140.487 186.149V175.064H147.848L147.666 175.278C145.13 178.244 147.04 183.053 148.405 185.656C148.505 185.846 148.55 186.061 148.534 186.276C148.518 186.492 148.442 186.698 148.314 186.871C148.207 187.02 148.067 187.14 147.904 187.224C147.742 187.307 147.562 187.35 147.379 187.35Z" fill="#191D3A"/>
<path d="M159.179 214.142H155.513C155.396 214.142 155.282 214.099 155.195 214.02C155.108 213.94 155.053 213.831 155.042 213.714L154.309 206.171H160.383L159.649 213.714C159.638 213.831 159.584 213.94 159.497 214.019C159.41 214.099 159.296 214.142 159.179 214.142Z" fill="#4361EE"/>
<path d="M160.373 207.12H154.318C154.193 207.12 154.073 207.07 153.984 206.981C153.895 206.892 153.845 206.772 153.845 206.646V205.507C153.845 205.381 153.895 205.261 153.984 205.172C154.073 205.083 154.193 205.033 154.318 205.033H160.373C160.499 205.033 160.619 205.083 160.708 205.172C160.796 205.261 160.846 205.381 160.846 205.507V206.646C160.846 206.772 160.796 206.892 160.708 206.981C160.619 207.07 160.499 207.12 160.373 207.12Z" fill="#191D3A"/>
<path opacity="0.2" d="M136.622 210.897C138.305 212.852 140.588 214.19 143.112 214.702C145.637 215.213 148.259 214.869 150.567 213.724L151.943 213.041L136.622 210.897Z" fill="black"/>
<path d="M158.629 209.437C158.347 209.119 157.999 208.867 157.609 208.698C157.22 208.53 156.798 208.45 156.374 208.462C155.95 208.475 155.533 208.581 155.155 208.773C154.776 208.964 154.443 209.237 154.181 209.571L147.795 207.773L145.759 211.399L154.813 213.811C155.402 214.216 156.119 214.39 156.828 214.3C157.536 214.211 158.188 213.863 158.658 213.324C159.129 212.785 159.386 212.091 159.38 211.375C159.375 210.658 159.108 209.969 158.629 209.437Z" fill="#FFB8B8"/>
<path d="M143.391 213.46C140.355 213.46 136.247 211.675 131.371 208.217C131.099 208.028 130.869 207.785 130.696 207.502C130.523 207.22 130.41 206.904 130.365 206.576C130.006 204.29 132.228 201.2 132.446 200.904L134.783 194.469C134.81 194.364 135.563 191.579 137.453 190.589C137.851 190.384 138.289 190.268 138.736 190.249C139.183 190.23 139.629 190.308 140.043 190.478C143.643 191.793 140.832 201.948 140.446 203.28L145.217 205.532L148.246 207.469L152.395 207.905L151.269 213.133L144.968 213.275C144.452 213.402 143.922 213.464 143.391 213.46Z" fill="#3F3D56"/>
<path d="M369.864 165.761C369.861 159.651 368.503 153.618 365.888 148.099C363.272 142.581 359.466 137.715 354.744 133.854C350.022 129.993 344.503 127.234 338.587 125.776C332.67 124.319 326.505 124.2 320.537 125.427C314.569 126.655 308.948 129.199 304.081 132.874C299.215 136.55 295.224 141.265 292.399 146.679C289.573 152.092 287.984 158.068 287.746 164.173C287.508 170.279 288.627 176.361 291.022 181.979C290.982 181.934 290.941 181.891 290.901 181.846C292.725 186.111 295.254 190.036 298.382 193.456C298.391 193.466 298.401 193.476 298.41 193.487C298.662 193.763 298.916 194.037 299.176 194.306C302.929 198.232 307.423 201.372 312.396 203.542C317.37 205.712 322.723 206.87 328.146 206.948L326.758 282.557H331.046L330.179 232.655L336.381 229.379L335.435 227.577L330.139 230.373L329.732 206.945C340.459 206.698 350.665 202.251 358.165 194.554C365.665 186.858 369.864 176.523 369.864 165.761Z" fill="#E6E6E6"/>
<path d="M247.953 145.682C247.949 138.522 246.357 131.452 243.293 124.984C240.228 118.517 235.767 112.815 230.233 108.29C224.7 103.765 218.232 100.532 211.298 98.8237C204.365 97.1158 197.139 96.9761 190.145 98.4148C183.152 99.8535 176.564 102.835 170.861 107.142C165.157 111.449 160.481 116.975 157.17 123.319C153.859 129.663 151.997 136.667 151.718 143.822C151.439 150.977 152.75 158.105 155.557 164.689C155.51 164.636 155.462 164.585 155.415 164.532C157.553 169.53 160.517 174.13 164.182 178.139C164.193 178.151 164.204 178.162 164.215 178.174C164.511 178.498 164.808 178.819 165.112 179.134C169.511 183.736 174.777 187.415 180.606 189.959C186.434 192.502 192.708 193.859 199.063 193.95L197.437 282.558H202.462L201.445 224.076L208.714 220.237L207.605 218.125L201.398 221.402L200.921 193.946C213.493 193.657 225.452 188.445 234.242 179.425C243.032 170.406 247.953 158.294 247.953 145.682Z" fill="#E6E6E6"/>
<path d="M109.691 126.796C109.687 118.648 107.875 110.602 104.388 103.242C100.9 95.8828 95.8238 89.3934 89.5267 84.2444C83.2296 79.0954 75.8693 75.4158 67.9791 73.4722C60.0889 71.5286 51.8664 71.3696 43.9074 73.0068C35.9484 74.644 28.4522 78.0364 21.9619 82.9382C15.4716 87.8399 10.1498 94.1283 6.38195 101.348C2.61415 108.567 0.494756 116.537 0.177325 124.679C-0.140105 132.821 1.35238 140.933 4.54664 148.425C4.49308 148.365 4.43773 148.307 4.38443 148.247C6.81749 153.935 10.1904 159.17 14.3611 163.731C14.3736 163.745 14.3863 163.758 14.3988 163.772C14.7353 164.14 15.0738 164.505 15.42 164.864C20.4258 170.1 26.4188 174.287 33.0512 177.182C39.6836 180.076 46.8232 181.62 54.0555 181.724L52.2046 282.558H57.9231L56.7658 216.007L65.0379 211.639L63.776 209.235L56.7129 212.964L56.1695 181.719C70.476 181.391 84.0861 175.46 94.0884 165.195C104.091 154.931 109.691 141.149 109.691 126.796Z" fill="#E6E6E6"/>
<path d="M315.286 71.8573C335.07 71.8573 351.109 55.7715 351.109 35.9287C351.109 16.0858 335.07 0 315.286 0C295.501 0 279.462 16.0858 279.462 35.9287C279.462 55.7715 295.501 71.8573 315.286 71.8573Z" fill="#F5BBBB"/>
<path d="M102.316 150.411C141.968 150.411 174.113 118.172 174.113 78.4035C174.113 38.6346 141.968 6.39563 102.316 6.39563C62.6639 6.39563 30.5195 38.6346 30.5195 78.4035C30.5195 118.172 62.6639 150.411 102.316 150.411Z" fill="#4361EE"/>
<path opacity="0.2" d="M49.3039 30.308C42.6069 46.0196 41.6984 63.6076 46.7407 79.9291C51.7831 96.2507 62.4478 110.242 76.829 119.404C91.2102 128.565 108.371 132.299 125.245 129.939C142.118 127.578 157.605 119.277 168.938 106.519C164.847 116.118 158.724 124.71 150.993 131.701C143.263 138.691 134.109 143.912 124.167 147.002C114.225 150.092 103.732 150.977 93.4144 149.595C83.0972 148.214 73.2028 144.6 64.4167 139.003C55.6306 133.406 48.1628 125.96 42.5307 117.181C36.8986 108.402 33.237 98.4997 31.7994 88.1604C30.3619 77.8212 31.1828 67.2921 34.2053 57.3027C37.2278 47.3132 42.3797 38.1023 49.3039 30.308Z" fill="black"/>
<path d="M102.513 78.4034H102.711L106.261 282.557H98.7659L102.513 78.4034Z" fill="#3F3D56"/>
<path d="M113.932 186.454L102.064 192.721L103.718 195.872L115.586 189.605L113.932 186.454Z" fill="#3F3D56"/>
<path d="M212.131 280.648C212.131 280.648 212.39 275.204 217.701 275.837L212.131 280.648Z" fill="#3F3D56"/>
<path d="M210.631 275.467C212.099 275.467 213.289 274.274 213.289 272.802C213.289 271.33 212.099 270.136 210.631 270.136C209.163 270.136 207.973 271.33 207.973 272.802C207.973 274.274 209.163 275.467 210.631 275.467Z" fill="#4361EE"/>
<path d="M210.949 277.291H210.198V282.558H210.949V277.291Z" fill="#3F3D56"/>
<path d="M27.9512 279.895C27.9512 279.895 28.2102 274.452 33.5205 275.084L27.9512 279.895Z" fill="#3F3D56"/>
<path d="M26.4507 274.715C27.9186 274.715 29.1085 273.522 29.1085 272.049C29.1085 270.577 27.9186 269.384 26.4507 269.384C24.9829 269.384 23.793 270.577 23.793 272.049C23.793 273.522 24.9829 274.715 26.4507 274.715Z" fill="#4361EE"/>
<path d="M26.7685 276.538H26.0183V281.805H26.7685V276.538Z" fill="#3F3D56"/>
<path d="M71.4641 280.272C71.4641 280.272 71.7232 274.828 77.0335 275.461L71.4641 280.272Z" fill="#3F3D56"/>
<path d="M69.9637 275.091C71.4315 275.091 72.6215 273.898 72.6215 272.426C72.6215 270.953 71.4315 269.76 69.9637 269.76C68.4958 269.76 67.3059 270.953 67.3059 272.426C67.3059 273.898 68.4958 275.091 69.9637 275.091Z" fill="#4361EE"/>
<path d="M70.2815 276.914H69.5312V282.181H70.2815V276.914Z" fill="#3F3D56"/>
<path d="M187.185 34.8099L192.516 30.5334C188.374 30.0751 186.673 32.3405 185.976 34.1335C182.741 32.7861 179.218 34.552 179.218 34.552L189.885 38.4358C189.347 36.9943 188.41 35.7365 187.185 34.8099Z" fill="#3F3D56"/>
<path d="M268.261 78.3715L273.592 74.095C269.451 73.6368 267.749 75.9022 267.053 77.6952C263.817 76.3477 260.295 78.1137 260.295 78.1137L270.962 81.9974C270.423 80.5559 269.487 79.2981 268.261 78.3715Z" fill="#3F3D56"/>
<path d="M180.815 115.544L186.146 111.268C182.004 110.809 180.302 113.075 179.606 114.868C176.37 113.52 172.848 115.286 172.848 115.286L183.515 119.17C182.977 117.729 182.04 116.471 180.815 115.544Z" fill="#3F3D56"/>
<path d="M284.856 282.624C284.856 282.624 285.115 277.18 290.426 277.813L284.856 282.624Z" fill="#3F3D56"/>
<path d="M234.966 282.624C234.966 282.624 235.225 277.18 240.536 277.813L234.966 282.624Z" fill="#3F3D56"/>
<path d="M53.0369 282.624C53.0369 282.624 53.2959 277.18 58.6062 277.813L53.0369 282.624Z" fill="#3F3D56"/>
<path d="M307.363 282.624C307.363 282.624 307.622 277.18 312.933 277.813L307.363 282.624Z" fill="#3F3D56"/>
<path d="M296.86 282.624C296.86 282.624 297.119 277.18 302.429 277.813L296.86 282.624Z" fill="#3F3D56"/>
<path d="M275.194 282.624C275.194 282.624 274.935 277.18 269.624 277.813L275.194 282.624Z" fill="#3F3D56"/>
<path d="M188.918 282.624C188.918 282.624 188.659 277.18 183.349 277.813L188.918 282.624Z" fill="#3F3D56"/>
<path d="M117.271 282.624C117.271 282.624 117.012 277.18 111.702 277.813L117.271 282.624Z" fill="#3F3D56"/>
<path d="M41.1238 282.624C41.1238 282.624 40.8647 277.18 35.5544 277.813L41.1238 282.624Z" fill="#3F3D56"/>
<path d="M329.96 282.624C329.96 282.624 329.701 277.18 324.391 277.813L329.96 282.624Z" fill="#3F3D56"/>
<path d="M297.701 283C297.701 283 297.442 277.556 292.131 278.189L297.701 283Z" fill="#3F3D56"/>
<path d="M370 281.912H0V282.748H370V281.912Z" fill="#3F3D56"/>
</g>
<defs>
<clipPath id="clip0">
<rect width="370" height="283" fill="white"/>
</clipPath>
</defs>
</svg>
