<svg width="1120" height="389" viewBox="0 0 1120 389" fill="none" xmlns="http://www.w3.org/2000/svg">
<rect x="0.000488281" width="1120" height="389" fill="#191D3A"/>
<path d="M-6.61724 -113.121C166.511 -50.8109 271.902 -139.884 400.807 -93.4898C556.999 -37.2751 516.531 75.1642 737.647 154.745C966.759 237.205 1018.99 128.999 1162.95 180.811C1321.96 238.042 1241.98 336.258 1466.39 417.024" stroke="#2D3252" stroke-width="5"/>
<path d="M-26.7664 -57.1368C146.362 5.17346 251.753 -83.8995 380.658 -37.5055C536.85 18.7093 496.382 131.149 717.497 210.73C946.61 293.189 998.839 184.983 1142.8 236.795C1301.81 294.026 1221.83 392.242 1446.24 473.009" stroke="#2D3252" stroke-width="5"/>
<path d="M-47.085 -0.681875C126.043 61.6284 231.434 -27.4446 360.34 18.9495C516.532 75.1642 476.064 187.604 697.179 267.185C926.292 349.644 978.521 241.438 1122.48 293.25C1281.5 350.481 1201.51 448.697 1425.92 529.464" stroke="#2D3252" stroke-width="5"/>
<path d="M-67.4036 55.7731C105.725 118.083 211.116 29.0104 340.021 75.4045C496.213 131.619 455.745 244.059 676.86 323.64C905.973 406.099 958.202 297.893 1102.16 349.705C1261.18 406.936 1181.19 505.152 1405.6 585.918" stroke="#2D3252" stroke-width="5"/>
<path d="M-87.3836 111.287C85.7448 173.597 191.136 84.5244 320.041 130.918C476.233 187.133 435.765 299.573 656.88 379.154C885.993 461.613 938.222 353.407 1082.18 405.219C1241.2 462.45 1161.21 560.666 1385.62 641.433" stroke="#2D3252" stroke-width="5"/>
<path d="M-107.702 167.742C65.4262 230.052 170.817 140.98 299.722 187.374C455.914 243.588 415.447 356.028 636.562 435.609C865.674 518.068 917.904 409.862 1061.86 461.674C1220.88 518.905 1140.89 617.121 1365.3 697.888" stroke="#2D3252" stroke-width="5"/>
<path d="M-128.021 224.197C45.1076 286.507 150.499 197.434 279.404 243.829C435.596 300.043 395.128 412.483 616.243 492.064C845.356 574.523 897.585 466.317 1041.55 518.129C1200.56 575.36 1120.57 673.576 1344.98 754.343" stroke="#2D3252" stroke-width="5"/>
<path d="M-148.001 279.711C25.1278 342.022 130.519 252.949 259.424 299.343C415.616 355.557 375.148 467.997 596.263 547.578C825.376 630.037 877.605 521.831 1021.57 573.643C1180.58 630.874 1100.59 729.09 1325 809.857" stroke="#2D3252" stroke-width="5"/>
<path d="M-184.001 326.44C-10.8724 388.75 94.5185 299.677 223.424 346.072C379.616 402.286 339.148 514.726 560.263 594.307C789.376 676.766 841.605 568.56 985.565 620.372C1144.58 677.603 1064.59 775.819 1289 856.586" stroke="#2D3252" stroke-width="5"/>
<path d="M22.4707 -165.889C195.599 -103.578 300.99 -192.651 429.895 -146.257C586.087 -90.0424 545.619 22.3969 766.734 101.978C995.847 184.438 1048.08 76.2312 1192.04 128.044C1351.05 185.274 1271.06 283.491 1495.47 364.257" stroke="#2D3252" stroke-width="5"/>
<path d="M42.7895 -222.343C215.918 -160.033 321.309 -249.106 450.214 -202.712C606.406 -146.497 565.938 -34.0581 787.053 45.523C1016.17 127.983 1068.4 19.7762 1212.36 71.5886C1371.37 128.819 1291.38 227.036 1515.79 307.802" stroke="#2D3252" stroke-width="5"/>
<path d="M76.9997 -275.56C250.128 -213.25 355.519 -302.323 484.424 -255.929C640.616 -199.714 600.148 -87.2746 821.263 -7.69354C1050.38 74.766 1102.61 -33.4403 1246.57 18.372C1405.58 75.6027 1325.59 173.819 1550 254.585" stroke="#2D3252" stroke-width="5"/>
<path d="M116.999 -310.56C290.128 -248.25 395.519 -337.323 524.424 -290.929C680.616 -234.714 640.148 -122.275 861.263 -42.6938C1090.38 39.7658 1142.61 -68.4406 1286.57 -16.6282C1445.58 40.6024 1365.59 138.819 1590 219.585" stroke="#2D3252" stroke-width="5"/>
<path d="M148.999 -360.56C322.128 -298.25 427.519 -387.323 556.424 -340.929C712.616 -284.714 672.148 -172.275 893.263 -92.6935C1122.38 -10.234 1174.61 -118.44 1318.57 -66.628C1477.58 -9.39731 1397.59 88.819 1622 169.585" stroke="#2D3252" stroke-width="5"/>
<path d="M-211 377.439C-37.8719 439.75 67.519 350.677 196.424 397.071C352.616 453.286 312.148 565.725 533.263 645.306C762.376 727.766 814.606 619.559 958.566 671.372C1117.58 728.602 1037.59 826.819 1262 907.585" stroke="#2D3252" stroke-width="5"/>
<path d="M-244.001 432.44C-70.8722 494.75 34.5188 405.677 163.424 452.071C319.616 508.286 279.148 620.725 500.263 700.306C729.376 782.766 781.605 674.56 925.565 726.372C1084.58 783.603 1004.59 881.819 1229 962.585" stroke="#2D3252" stroke-width="5"/>
</svg>
